<?xml version="1.0" standalone="no"?>
<!DOCTYPE svg PUBLIC "-//W3C//DTD SVG 1.1//EN" "http://www.w3.org/Graphics/SVG/1.1/DTD/svg11.dtd" >
<svg xmlns="http://www.w3.org/2000/svg" xmlns:xlink="http://www.w3.org/1999/xlink" version="1.1">
<metadata>
Created by FontForge 20161013 at Tue Dec 20 19:00:42 2011
 By ,,,
(c) 2011 Microsoft Corporation. All Rights Reserved.
</metadata>
<defs>
<font id="SegoeUI-Semibold" horiz-adv-x="0" >
  <font-face 
    font-family="Segoe UI Semibold 8"
    font-weight="600"
    font-stretch="normal"
    units-per-em="2048"
    panose-1="2 11 7 2 4 2 4 2 2 3"
    ascent="1638"
    descent="-410"
    x-height="1024"
    cap-height="1434"
    bbox="-887 -666 2907 2277"
    underline-thickness="119"
    underline-position="-355"
    unicode-range="U+000D-FFFD"
  />
<missing-glyph horiz-adv-x="1322" 
d="M166 0v1398h990v-1398h-990zM314 148h694v1102h-694v-1102z" />
    <glyph glyph-name="uniFDF2" unicode="&#x627;&#xfedf;&#xfee0;&#x651;&#x670;&#xfeea;" horiz-adv-x="2565" arabic-form="isolated" 
d="M854 1061v-642q0 -49 4.5 -86t20.5 -61.5t47 -36.5t84 -12q35 0 64.5 5.5t50.5 21.5t32.5 44.5t11.5 75.5v893h199v-827q0 -53 3.5 -93t19 -66.5t46.5 -40t86 -13.5q37 0 67 6t50 22.5t31 45t11 73.5v1043h199v-1050q0 -117 -30.5 -192t-82 -117.5t-118 -59t-138.5 -16.5
q-92 0 -156.5 28.5t-93.5 88.5h-5q-25 -34 -57 -56.5t-67 -36t-71 -19t-70 -5.5q-53 0 -100.5 9.5t-88 32.5t-72 61.5t-51.5 95.5q-41 -11 -81.5 -16.5t-80.5 -5.5q-75 0 -142.5 19.5t-118.5 60t-81.5 102t-30.5 144.5q0 99 42 177t113 136t163 95.5t193 54.5v117h198z
M656 712q-65 -12 -122.5 -30t-101 -43.5t-69 -59t-25.5 -77.5q0 -34 15.5 -56t41 -34.5t58.5 -17t68 -4.5t68.5 4t66.5 13v305zM1340 1752h-139v350h139v-350zM1262 1453q-23 -28 -58.5 -41.5t-77.5 -13.5q-49 0 -82.5 17t-54.5 47t-30 70t-9 87q0 15 0.5 32t2.5 31h124
q-3 -29 -4 -45t-1 -24q0 -49 17 -77t55 -28t52 29t14 93v24.5t-1 27.5h124q-1 -15 -1.5 -32.5t-0.5 -30.5q0 -57 14.5 -84t53.5 -27q41 0 56 28t15 78q0 17 -1 34t-3 34h123q2 -14 2.5 -28.5t0.5 -22.5q0 -112 -53 -172.5t-144 -60.5q-39 0 -73 13t-55 42h-5zM2194 0v1516
h199v-1516h-199z" />
    <glyph glyph-name="uniFEDF_uniFEE0_uni0651_uni0670_uniFEEA.liga" unicode="&#xfedf;&#xfee0;&#x651;&#x670;&#xfeea;" horiz-adv-x="2052" 
d="M854 1061v-642q0 -49 4.5 -86t20.5 -61.5t47 -36.5t84 -12q35 0 64.5 5.5t50.5 21.5t32.5 44.5t11.5 75.5v893h199v-827q0 -53 3.5 -93t19 -66.5t46.5 -40t86 -13.5q37 0 67 6t50 22.5t31 45t11 73.5v1043h199v-1050q0 -117 -30.5 -192t-82 -117.5t-118 -59t-138.5 -16.5
q-92 0 -156.5 28.5t-93.5 88.5h-5q-25 -34 -57 -56.5t-67 -36t-71 -19t-70 -5.5q-53 0 -100.5 9.5t-88 32.5t-72 61.5t-51.5 95.5q-41 -11 -81.5 -16.5t-80.5 -5.5q-75 0 -142.5 19.5t-118.5 60t-81.5 102t-30.5 144.5q0 99 42 177t113 136t163 95.5t193 54.5v117h198z
M656 712q-65 -12 -122.5 -30t-101 -43.5t-69 -59t-25.5 -77.5q0 -34 15.5 -56t41 -34.5t58.5 -17t68 -4.5t68.5 4t66.5 13v305zM1340 1752h-139v350h139v-350zM1262 1453q-23 -28 -58.5 -41.5t-77.5 -13.5q-49 0 -82.5 17t-54.5 47t-30 70t-9 87q0 15 0.5 32t2.5 31h124
q-3 -29 -4 -45t-1 -24q0 -49 17 -77t55 -28t52 29t14 93v24.5t-1 27.5h124q-1 -15 -1.5 -32.5t-0.5 -30.5q0 -57 14.5 -84t53.5 -27q41 0 56 28t15 78q0 17 -1 34t-3 34h123q2 -14 2.5 -28.5t0.5 -22.5q0 -112 -53 -172.5t-144 -60.5q-39 0 -73 13t-55 42h-5z" />
    <glyph glyph-name="uni0620.init" unicode="&#x620;" horiz-adv-x="684" 
d="M513 837v-474q0 -120 -31 -195t-83 -117.5t-119.5 -57.5t-140.5 -15h-139q-35 0 -52.5 34t-17.5 89t17.5 88.5t52.5 33.5h149q42 0 73 4t51.5 19t30.5 44.5t10 79.5v467h199zM285 67q35 0 65.5 -13t53.5 -35.5t36 -54t13 -67.5q0 -35 -13 -65t-36 -53t-53.5 -36
t-65.5 -13q-37 0 -68.5 13t-54.5 36t-36 53t-13 65q0 36 13 67.5t35.5 54t54 35.5t69.5 13zM285 -187q33 0 55 24.5t22 59.5q0 38 -22 62.5t-55 24.5q-36 0 -58.5 -24.5t-22.5 -62.5q0 -35 22.5 -59.5t58.5 -24.5z" />
    <glyph glyph-name="uni0620.medi" unicode="&#x620;" horiz-adv-x="684" 
d="M513 439q0 -56 3 -96.5t19.5 -67t51 -39.5t97.5 -13v-245h-36q-91 0 -152.5 28.5t-90.5 88.5h-5q-26 -35 -58.5 -57.5t-68 -36t-71.5 -18.5t-67 -5h-135q-35 0 -52.5 33.5t-17.5 89.5q0 55 17.5 88.5t52.5 33.5h149q39 0 70 5t52 20.5t32 44.5t11 77v467h199v-398z
M265 67q35 0 65.5 -13t53.5 -35.5t36 -54t13 -67.5q0 -35 -13 -65t-36 -53t-53.5 -36t-65.5 -13q-37 0 -68.5 13t-54.5 36t-36 53t-13 65q0 36 13 67.5t35.5 54t54 35.5t69.5 13zM265 -187q33 0 55 24.5t22 59.5q0 38 -22 62.5t-55 24.5q-36 0 -58.5 -24.5t-22.5 -62.5
q0 -35 22.5 -59.5t58.5 -24.5z" />
    <glyph glyph-name="uni0620.fina" unicode="&#x620;" horiz-adv-x="1710" 
d="M386 556q-20 -74 -32 -139t-12 -138q0 -65 15.5 -120.5t57.5 -96.5t115 -64.5t189 -23.5q73 0 132 5.5t101 18.5t65 33t23 50q0 33 -17 60.5t-37 56.5q-20 31 -31 64.5t-11 70.5q0 52 19.5 97.5t53.5 79t80.5 52.5t101.5 19q37 0 69 -8t59.5 -25.5t53 -46t49.5 -68.5
q32 -53 56.5 -92t54 -65.5t68.5 -39.5t101 -13v-245h-21q-80 0 -136 18.5t-99.5 55t-80 90.5t-77.5 124q-29 49 -52.5 67t-51.5 18q-25 0 -40 -16t-15 -42q0 -23 13.5 -44t33.5 -47q50 -65 50 -141q0 -90 -49 -152.5t-128 -102.5t-178 -58t-199 -18q-158 0 -261.5 43.5
t-165 115.5t-86.5 166.5t-25 196.5q0 78 12 154t32 150h200zM772 -190q35 0 65.5 -13t53.5 -35.5t36 -54t13 -67.5q0 -35 -13 -65t-36 -53t-53.5 -36t-65.5 -13q-37 0 -68.5 13t-54.5 36t-36 53t-13 65q0 36 13 67.5t35.5 54t54 35.5t69.5 13zM772 -444q33 0 55 24.5
t22 59.5q0 38 -22 62.5t-55 24.5q-36 0 -58.5 -24.5t-22.5 -62.5q0 -35 22.5 -59.5t58.5 -24.5z" />
    <glyph glyph-name="uni0621" unicode="&#x621;" horiz-adv-x="855" arabic-form="isolated" 
d="M684 504q-29 6 -67.5 11t-78.5 5q-38 0 -73.5 -6.5t-62.5 -22.5t-43.5 -43t-16.5 -67q0 -38 13.5 -64.5t38 -43t59 -24t75.5 -7.5h228v-242h-649l-45 232h144l2 5q-32 48 -47.5 98.5t-15.5 97.5q0 71 28.5 131.5t82 105t129 70t168.5 25.5q33 0 63.5 -3.5t67.5 -9.5v-248
z" />
    <glyph glyph-name="uni0622" unicode="&#x622;" horiz-adv-x="513" arabic-form="isolated" 
d="M142 0v1516h199v-1516h-199zM607 1713q-27 -29 -53.5 -47t-51 -27.5t-46.5 -12.5t-41 -3q-52 0 -98 14.5t-89 32.5t-84 32.5t-82 14.5q-28 0 -53.5 -13t-54.5 -39l-74 85q27 29 53 46.5t50.5 27.5t46.5 13t41 3q52 0 98 -15t89 -32.5t83.5 -32.5t81.5 -15q31 0 55.5 12.5
t53.5 40.5z" />
    <glyph glyph-name="uni0623" unicode="&#x623;" horiz-adv-x="513" arabic-form="isolated" 
d="M142 0v1516h199v-1516h-199zM376 1901q-20 5 -39 7.5t-32 2.5q-39 0 -65.5 -16t-26.5 -55q0 -40 30 -59.5t87 -19.5h92v-111h-369v105h82l1 4q-42 52 -42 105q0 35 14.5 64.5t41.5 51t65 33.5t84 12q31 0 77 -8v-116z" />
    <glyph glyph-name="uni0624" unicode="&#x624;" horiz-adv-x="1026" arabic-form="isolated" 
d="M0 -196q106 -42 187.5 -59t156.5 -17q87 0 144.5 24.5t92.5 64t51 91t21 105.5q-72 -28 -150 -28q-64 0 -127.5 19t-114.5 60t-82.5 105.5t-31.5 155.5q0 51 12 103.5t34 101.5t52.5 92t68 74.5t80 50t89.5 18.5q77 0 138.5 -43.5t118.5 -133.5q59 -92 87 -217.5
t28 -267.5q0 -128 -29.5 -241.5t-92 -198.5t-159 -134.5t-230.5 -49.5q-42 0 -83 4.5t-83 14t-86 24.5t-92 35v247zM649 241q-6 37 -22 84t-39 89t-51.5 71t-61.5 29q-28 0 -52.5 -18t-42.5 -44.5t-28.5 -57.5t-10.5 -56q0 -33 14.5 -56t39 -37.5t56.5 -21.5t67 -7
q33 0 67.5 5.5t63.5 19.5zM614 1312q-20 5 -39 7.5t-32 2.5q-39 0 -65.5 -16t-26.5 -55q0 -40 30 -59.5t87 -19.5h92v-111h-369v105h82l1 4q-42 52 -42 105q0 35 14.5 64.5t41.5 51t65 33.5t84 12q31 0 77 -8v-116z" />
    <glyph glyph-name="uni0625" unicode="&#x625;" horiz-adv-x="513" arabic-form="isolated" 
d="M142 0v1516h199v-1516h-199zM376 -269q-20 5 -39 7.5t-32 2.5q-39 0 -65.5 -16.5t-26.5 -54.5q0 -40 30 -60t87 -20h92v-110h-369v104h82l1 5q-42 52 -42 104q0 35 14.5 65t41.5 51.5t65 33.5t84 12q33 0 77 -9v-115z" />
    <glyph glyph-name="uni0626" unicode="&#x626;" horiz-adv-x="1539" arabic-form="isolated" 
d="M414 754q-18 -66 -31.5 -120.5t-22.5 -101t-13.5 -87t-4.5 -79.5q0 -57 12 -110.5t49 -95t105 -67t179 -25.5q96 0 183.5 18.5t154.5 48t107 67t40 75.5q0 21 -13 38t-35.5 31.5t-52 29t-61.5 31.5q-44 23 -80.5 50.5t-63 61.5t-41.5 76.5t-15 96.5q0 91 43.5 163
t124 125.5t195 89t257.5 55.5v-241q-102 -14 -182 -29t-135 -35t-83.5 -45.5t-28.5 -59.5q0 -21 11 -37t32 -31t51 -30t67 -33q50 -25 88.5 -50.5t64.5 -56t39.5 -67.5t13.5 -85q0 -59 -21.5 -119.5t-63 -116.5t-102 -105t-138 -85t-171 -57t-201.5 -21q-148 0 -249.5 39
t-164.5 108.5t-90.5 165t-27.5 209.5q0 100 21 201t57 210h197zM443 1224q-20 5 -39 7.5t-32 2.5q-39 0 -65.5 -16t-26.5 -55q0 -40 30 -59.5t87 -19.5h92v-111h-369v105h82l1 4q-42 52 -42 105q0 35 14.5 64.5t41.5 51t65 33.5t84 12q31 0 77 -8v-116z" />
    <glyph glyph-name="uni0627" unicode="&#x627;" horiz-adv-x="513" arabic-form="isolated" 
d="M142 0v1516h199v-1516h-199z" />
    <glyph glyph-name="uni0628" unicode="&#x628;" horiz-adv-x="1881" arabic-form="isolated" 
d="M374 650q-8 -33 -13.5 -61t-10 -53.5t-6.5 -50t-2 -50.5q0 -24 2.5 -45.5t9.5 -41t19.5 -37t32.5 -32.5q30 -23 75 -36t114 -19.5t166 -8.5t231 -2q149 0 249 4t160 20.5t85 51t25 95.5v453h199v-460q0 -95 -27 -162.5t-77 -112.5t-119.5 -71.5t-154 -40t-182.5 -17
t-203 -3.5q-120 0 -223.5 2t-189.5 12t-154 32t-117 61q-35 28 -58.5 64t-38 76.5t-21 84.5t-6.5 89q0 68 10 132t26 127h199zM1053 -367h-223v203h223v-203z" />
    <glyph glyph-name="uni0629" unicode="&#x629;" horiz-adv-x="1026" arabic-form="isolated" 
d="M411 1068q123 -84 211.5 -173.5t145.5 -181.5t84 -185.5t27 -184.5q0 -83 -26.5 -150.5t-75 -115.5t-118 -74.5t-156.5 -26.5q-85 0 -151 23t-111.5 66t-69 104t-23.5 138q0 85 21 162.5t54.5 143t76 118.5t85.5 90q-24 20 -49.5 40.5t-54.5 40.5zM342 342
q0 -35 13.5 -58t36 -37t52.5 -19.5t63 -5.5q91 0 134 32t43 90q0 78 -39 164.5t-124 182.5q-37 -29 -69.5 -68t-57 -84.5t-38.5 -95.5t-14 -101zM456 1271h-222v203h222v-203zM793 1271h-222v203h222v-203z" />
    <glyph glyph-name="uni062A" unicode="&#x62a;" horiz-adv-x="1881" arabic-form="isolated" 
d="M374 650q-8 -33 -13.5 -61t-10 -53.5t-6.5 -50t-2 -50.5q0 -24 2.5 -45.5t9.5 -41t19.5 -37t32.5 -32.5q30 -23 75 -36t114 -19.5t166 -8.5t231 -2q149 0 249 4t160 20.5t85 51t25 95.5v453h199v-460q0 -95 -27 -162.5t-77 -112.5t-119.5 -71.5t-154 -40t-182.5 -17
t-203 -3.5q-120 0 -223.5 2t-189.5 12t-154 32t-117 61q-35 28 -58.5 64t-38 76.5t-21 84.5t-6.5 89q0 68 10 132t26 127h199zM884 1060h-222v203h222v-203zM1221 1060h-222v203h222v-203z" />
    <glyph glyph-name="uni062B" unicode="&#x62b;" horiz-adv-x="1881" arabic-form="isolated" 
d="M374 650q-8 -33 -13.5 -61t-10 -53.5t-6.5 -50t-2 -50.5q0 -24 2.5 -45.5t9.5 -41t19.5 -37t32.5 -32.5q30 -23 75 -36t114 -19.5t166 -8.5t231 -2q149 0 249 4t160 20.5t85 51t25 95.5v453h199v-460q0 -95 -27 -162.5t-77 -112.5t-119.5 -71.5t-154 -40t-182.5 -17
t-203 -3.5q-120 0 -223.5 2t-189.5 12t-154 32t-117 61q-35 28 -58.5 64t-38 76.5t-21 84.5t-6.5 89q0 68 10 132t26 127h199zM883 1060h-222v203h222v-203zM1221 1060h-222v203h222v-203zM1053 1340h-223v203h223v-203z" />
    <glyph glyph-name="uni062C" unicode="&#x62c;" horiz-adv-x="1197" arabic-form="isolated" 
d="M171 896q63 20 125 30.5t134 10.5q74 0 130.5 -12t105 -30.5t92.5 -39.5t94.5 -39.5t111 -31.5t140.5 -14l-46 -262q-219 -59 -360.5 -122.5t-224 -129.5t-114.5 -132.5t-32 -131.5q0 -51 18.5 -101t63 -90t118.5 -65t186 -25q94 0 192 20t212 61v-234
q-61 -21 -114.5 -36t-103 -24.5t-97.5 -14t-97 -4.5q-147 0 -256 36.5t-180 101t-106 154t-35 195.5q0 59 11.5 120.5t39 122t72.5 119t111.5 111.5t157 99.5t208.5 84.5v9q-35 18 -65 31.5t-62 22.5t-69 13t-85 4q-74 0 -145 -9.5t-131 -26.5v229v0zM884 -35h-223v203h223
v-203z" />
    <glyph glyph-name="uni062D" unicode="&#x62d;" horiz-adv-x="1197" arabic-form="isolated" 
d="M171 896q63 20 125 30.5t134 10.5q74 0 130.5 -12t105 -30.5t92.5 -39.5t94.5 -39.5t111 -31.5t140.5 -14l-46 -262q-219 -59 -360.5 -122.5t-224 -129.5t-114.5 -132.5t-32 -131.5q0 -51 18.5 -101t63 -90t118.5 -65t186 -25q94 0 192 20t212 61v-234
q-61 -21 -114.5 -36t-103 -24.5t-97.5 -14t-97 -4.5q-147 0 -256 36.5t-180 101t-106 154t-35 195.5q0 59 11.5 120.5t39 122t72.5 119t111.5 111.5t157 99.5t208.5 84.5v9q-35 18 -65 31.5t-62 22.5t-69 13t-85 4q-74 0 -145 -9.5t-131 -26.5v229v0z" />
    <glyph glyph-name="uni062E" unicode="&#x62e;" horiz-adv-x="1197" arabic-form="isolated" 
d="M171 896q63 20 125 30.5t134 10.5q74 0 130.5 -12t105 -30.5t92.5 -39.5t94.5 -39.5t111 -31.5t140.5 -14l-46 -262q-219 -59 -360.5 -122.5t-224 -129.5t-114.5 -132.5t-32 -131.5q0 -51 18.5 -101t63 -90t118.5 -65t186 -25q94 0 192 20t212 61v-234
q-61 -21 -114.5 -36t-103 -24.5t-97.5 -14t-97 -4.5q-147 0 -256 36.5t-180 101t-106 154t-35 195.5q0 59 11.5 120.5t39 122t72.5 119t111.5 111.5t157 99.5t208.5 84.5v9q-35 18 -65 31.5t-62 22.5t-69 13t-85 4q-74 0 -145 -9.5t-131 -26.5v229v0zM742 1150h-223v203h223
v-203z" />
    <glyph glyph-name="uni062F" unicode="&#x62f;" horiz-adv-x="1026" arabic-form="isolated" 
d="M519 1024q161 -180 248.5 -349t87.5 -330q0 -110 -36 -182t-98 -114t-145.5 -59t-178.5 -17q-57 0 -134 6.5t-162 20.5l-48 248q108 -14 197 -21.5t158 -7.5q116 0 172.5 31t56.5 108q0 71 -28.5 146.5t-78.5 157.5t-118 171.5t-148 190.5h255z" />
    <glyph glyph-name="uni0630" unicode="&#x630;" horiz-adv-x="1026" arabic-form="isolated" 
d="M519 1024q161 -180 248.5 -349t87.5 -330q0 -110 -36 -182t-98 -114t-145.5 -59t-178.5 -17q-57 0 -134 6.5t-162 20.5l-48 248q108 -14 197 -21.5t158 -7.5q116 0 172.5 31t56.5 108q0 71 -28.5 146.5t-78.5 157.5t-118 171.5t-148 190.5h255zM479 1261h-223v203h223
v-203z" />
    <glyph glyph-name="uni0631" unicode="&#x631;" horiz-adv-x="855" arabic-form="isolated" 
d="M0 -234q68 -20 115.5 -29t88.5 -9q82 0 135.5 29t84.5 78.5t43 115t12 139.5q0 69 -9.5 137t-27.5 138.5t-43.5 147t-56.5 163.5h218q29 -74 52 -151t39 -154t24.5 -151.5t8.5 -142.5q0 -154 -38 -266.5t-102.5 -186t-151 -109.5t-182.5 -36q-49 0 -98.5 9.5t-111.5 32.5
v245z" />
    <glyph glyph-name="uni0632" unicode="&#x632;" horiz-adv-x="855" arabic-form="isolated" 
d="M0 -234q68 -20 115.5 -29t88.5 -9q82 0 135.5 29t84.5 78.5t43 115t12 139.5q0 69 -9.5 137t-27.5 138.5t-43.5 147t-56.5 163.5h218q29 -74 52 -151t39 -154t24.5 -151.5t8.5 -142.5q0 -154 -38 -266.5t-102.5 -186t-151 -109.5t-182.5 -36q-49 0 -98.5 9.5t-111.5 32.5
v245zM522 919h-223v203h223v-203z" />
    <glyph glyph-name="uni0633" unicode="&#x633;" horiz-adv-x="2394" arabic-form="isolated" 
d="M373 329q-9 -56 -15 -99.5t-9.5 -79t-5 -64.5t-1.5 -55q0 -80 13.5 -137.5t47.5 -94.5t92 -55t147 -18q102 0 171 24t111.5 74.5t60.5 130t18 190.5q0 43 -2.5 87t-8 97.5t-13.5 118.5t-19 150h199q10 -87 18.5 -154t13.5 -124q3 -29 14 -48t31.5 -30t50.5 -15t71 -4
q30 0 57.5 4.5t48.5 20t34 44.5t13 78v279h199v-210q0 -56 3.5 -96.5t19.5 -67t48.5 -39.5t90.5 -13q33 0 61 4.5t48 19.5t31.5 44t11.5 79v467h199v-480q0 -116 -29.5 -189.5t-78.5 -115.5t-112.5 -58t-131.5 -16q-40 0 -79 5.5t-73 19t-62 36.5t-47 59h-6
q-20 -30 -47 -52.5t-58.5 -37.5t-65.5 -22.5t-66 -7.5q-52 0 -95 13t-75 45q-2 0 -3.5 -0.5t-3.5 -0.5q-8 -137 -44 -241t-103.5 -174t-168 -105.5t-237.5 -35.5t-231 35t-152.5 102.5t-84.5 166t-26 225.5q0 35 2 70.5t6 74t10.5 82t16.5 94.5h195z" />
    <glyph glyph-name="uni0634" unicode="&#x634;" horiz-adv-x="2394" arabic-form="isolated" 
d="M373 329q-9 -56 -15 -99.5t-9.5 -79t-5 -64.5t-1.5 -55q0 -80 13.5 -137.5t47.5 -94.5t92 -55t147 -18q102 0 171 24t111.5 74.5t60.5 130t18 190.5q0 43 -2.5 87t-8 97.5t-13.5 118.5t-19 150h199q10 -87 18.5 -154t13.5 -124q3 -29 14 -48t31.5 -30t50.5 -15t71 -4
q30 0 57.5 4.5t48.5 20t34 44.5t13 78v279h199v-210q0 -56 3.5 -96.5t19.5 -67t48.5 -39.5t90.5 -13q33 0 61 4.5t48 19.5t31.5 44t11.5 79v467h199v-480q0 -116 -29.5 -189.5t-78.5 -115.5t-112.5 -58t-131.5 -16q-40 0 -79 5.5t-73 19t-62 36.5t-47 59h-6
q-20 -30 -47 -52.5t-58.5 -37.5t-65.5 -22.5t-66 -7.5q-52 0 -95 13t-75 45q-2 0 -3.5 -0.5t-3.5 -0.5q-8 -137 -44 -241t-103.5 -174t-168 -105.5t-237.5 -35.5t-231 35t-152.5 102.5t-84.5 166t-26 225.5q0 35 2 70.5t6 74t10.5 82t16.5 94.5h195zM1538 889h-222v203h222
v-203zM1876 889h-222v203h222v-203zM1708 1169h-223v203h223v-203z" />
    <glyph glyph-name="uni0635" unicode="&#x635;" horiz-adv-x="2737" arabic-form="isolated" 
d="M373 329q-8 -56 -14 -100t-10 -79t-5.5 -64.5t-1.5 -57.5q0 -78 14 -135t48.5 -94t93 -55t147.5 -18q102 0 171 24t110 75.5t58.5 132.5t17.5 195q0 41 -2.5 87t-9 100t-17.5 117.5t-28 140.5h205q15 -84 24.5 -151t17.5 -118q3 -21 7.5 -37.5t16.5 -29.5t34 -22.5
t61 -14.5q26 69 65.5 147.5t92 155.5t117.5 148t142.5 125t167 86t190.5 32q120 0 210 -40t150 -110.5t89.5 -168t29.5 -211.5q0 -101 -23 -171t-65 -116.5t-100 -73t-128.5 -39.5t-150.5 -16t-166 -3q-172 0 -286.5 0.5t-188.5 3.5t-116.5 9t-69.5 17q-22 8 -40.5 22
t-33.5 31q-2 -1 -2.5 -1t-2.5 -1q-6 -141 -41.5 -248t-104 -179t-171 -108.5t-241.5 -36.5q-136 0 -230 35t-152 102t-83.5 165.5t-25.5 226.5q0 35 2 70.5t6 74.5t10.5 82t16.5 94h195zM1508 219q31 -2 86.5 -2.5t119.5 -1t129 -0.5h114q123 0 202 4t124.5 20.5t63.5 49
t18 89.5q0 75 -21.5 130.5t-60.5 91.5t-94 54t-123 18q-104 0 -191 -39t-157 -102.5t-122.5 -145t-87.5 -166.5z" />
    <glyph glyph-name="uni0636" unicode="&#x636;" horiz-adv-x="2737" arabic-form="isolated" 
d="M373 329q-8 -56 -14 -100t-10 -79t-5.5 -64.5t-1.5 -57.5q0 -78 14 -135t48.5 -94t93 -55t147.5 -18q102 0 171 24t110 75.5t58.5 132.5t17.5 195q0 41 -2.5 87t-9 100t-17.5 117.5t-28 140.5h205q15 -84 24.5 -151t17.5 -118q3 -21 7.5 -37.5t16.5 -29.5t34 -22.5
t61 -14.5q26 69 65.5 147.5t92 155.5t117.5 148t142.5 125t167 86t190.5 32q120 0 210 -40t150 -110.5t89.5 -168t29.5 -211.5q0 -101 -23 -171t-65 -116.5t-100 -73t-128.5 -39.5t-150.5 -16t-166 -3q-172 0 -286.5 0.5t-188.5 3.5t-116.5 9t-69.5 17q-22 8 -40.5 22
t-33.5 31q-2 -1 -2.5 -1t-2.5 -1q-6 -141 -41.5 -248t-104 -179t-171 -108.5t-241.5 -36.5q-136 0 -230 35t-152 102t-83.5 165.5t-25.5 226.5q0 35 2 70.5t6 74.5t10.5 82t16.5 94h195zM1508 219q31 -2 86.5 -2.5t119.5 -1t129 -0.5h114q123 0 202 4t124.5 20.5t63.5 49
t18 89.5q0 75 -21.5 130.5t-60.5 91.5t-94 54t-123 18q-104 0 -191 -39t-157 -102.5t-122.5 -145t-87.5 -166.5zM1840 1099h-223v203h223v-203z" />
    <glyph glyph-name="uni0637" unicode="&#x637;" horiz-adv-x="1710" arabic-form="isolated" 
d="M3 248q31 -6 68 -10t76 -7t79 -4.5t77 -2.5q2 7 4.5 14.5t5.5 15.5v1262h199v-904l5 -1q47 65 105.5 122.5t127 100t146.5 67.5t164 25q121 0 211 -40.5t149.5 -112t89 -170t29.5 -214.5q0 -101 -23 -171t-64.5 -116.5t-99.5 -73t-128.5 -39.5t-150.5 -16t-166 -3
q-179 0 -310.5 2t-231 6t-174.5 9.5t-141 12.5zM484 219q31 -2 86 -2.5t119 -1t128.5 -0.5h113.5q123 0 202 4t125 20.5t64 49t18 89.5q0 77 -21.5 133.5t-60.5 94t-94 55.5t-123 18q-104 0 -191 -39.5t-156.5 -104t-122 -147.5t-87.5 -169z" />
    <glyph glyph-name="uni0638" unicode="&#x638;" horiz-adv-x="1710" arabic-form="isolated" 
d="M3 248q31 -6 68 -10t76 -7t79 -4.5t77 -2.5q2 7 4.5 14.5t5.5 15.5v1262h199v-904l5 -1q47 65 105.5 122.5t127 100t146.5 67.5t164 25q121 0 211 -40.5t149.5 -112t89 -170t29.5 -214.5q0 -101 -23 -171t-64.5 -116.5t-99.5 -73t-128.5 -39.5t-150.5 -16t-166 -3
q-179 0 -310.5 2t-231 6t-174.5 9.5t-141 12.5zM484 219q31 -2 86 -2.5t119 -1t128.5 -0.5h113.5q123 0 202 4t125 20.5t64 49t18 89.5q0 77 -21.5 133.5t-60.5 94t-94 55.5t-123 18q-104 0 -191 -39.5t-156.5 -104t-122 -147.5t-87.5 -169zM1109 1100h-223v203h223v-203z
" />
    <glyph glyph-name="uni0639" unicode="&#x639;" horiz-adv-x="1026" arabic-form="isolated" 
d="M856 390q-169 -45 -277 -96t-170.5 -105t-86.5 -108t-24 -105q0 -47 18.5 -94t64.5 -85t122 -62t192 -24q88 0 183 15.5t198 48.5v-232q-107 -34 -199.5 -49t-185.5 -15q-153 0 -264.5 36t-184 100t-108 152t-35.5 192q0 127 50 229t150 185q-60 69 -94 152t-34 177
q0 96 37 175t101.5 135.5t152 88t189.5 31.5q60 0 125 -12v-240q-35 5 -75.5 9t-78.5 4q-48 0 -93 -9t-80.5 -32t-57 -62t-21.5 -99q0 -58 20.5 -115t63.5 -99q88 48 188 84t214 65v-236z" />
    <glyph glyph-name="uni063A" unicode="&#x63a;" horiz-adv-x="1026" arabic-form="isolated" 
d="M856 390q-169 -45 -277 -96t-170.5 -105t-86.5 -108t-24 -105q0 -47 18.5 -94t64.5 -85t122 -62t192 -24q88 0 183 15.5t198 48.5v-232q-107 -34 -199.5 -49t-185.5 -15q-153 0 -264.5 36t-184 100t-108 152t-35.5 192q0 127 50 229t150 185q-60 69 -94 152t-34 177
q0 96 37 175t101.5 135.5t152 88t189.5 31.5q60 0 125 -12v-240q-35 5 -75.5 9t-78.5 4q-48 0 -93 -9t-80.5 -32t-57 -62t-21.5 -99q0 -58 20.5 -115t63.5 -99q88 48 188 84t214 65v-236zM596 1311h-223v203h223v-203z" />
    <glyph glyph-name="uni063B.init" unicode="&#x63b;" horiz-adv-x="1026" 
d="M871 1623v-260l-623 -383q124 -61 228 -127.5t179 -142t116.5 -162t41.5 -186.5q0 -40 -7.5 -84t-28 -87t-56.5 -81.5t-94 -67.5t-140.5 -46.5t-195.5 -17.5h-291q-35 0 -52.5 33.5t-17.5 89.5q0 55 17.5 88.5t52.5 33.5h294q93 0 154 6t97.5 20.5t51.5 39.5t15 63
q0 60 -39 119.5t-116.5 122t-192 129t-264.5 139.5v206zM229 1523h-222v203h222v-203zM566 1523h-222v203h222v-203z" />
    <glyph glyph-name="uni063B.medi" unicode="&#x63b;" horiz-adv-x="1026" 
d="M871 1623v-260l-623 -383q127 -63 226 -126.5t169.5 -132.5t112.5 -145t54 -164q5 -29 13 -58.5t31 -58.5q10 -14 24 -26.5t34.5 -23t48.5 -16.5t65 -6v-245h-22q-38 0 -76 8.5t-72.5 26.5t-64.5 46.5t-52 69.5h-6q-25 -33 -63 -60.5t-92 -47.5t-125 -31.5t-162 -11.5
h-291q-35 0 -52.5 33.5t-17.5 89.5q0 55 17.5 88.5t52.5 33.5h294q93 0 154 6t97.5 20.5t51.5 39.5t15 63q0 60 -39 119.5t-116.5 122t-192 129t-264.5 139.5v206zM229 1523h-222v203h222v-203zM566 1523h-222v203h222v-203z" />
    <glyph glyph-name="uni063B.fina" unicode="&#x63b;" horiz-adv-x="1881" 
d="M1726 1623v-260l-623 -383q127 -62 226 -126t169.5 -133t112 -145.5t54.5 -163.5q6 -39 19.5 -73t39 -59.5t64 -40.5t93.5 -16v-245h-22q-38 0 -76 8.5t-72.5 26.5t-64.5 46.5t-52 69.5h-6q-35 -43 -79.5 -71.5t-104.5 -46.5q-46 -14 -101 -22t-121.5 -12.5t-145.5 -5.5
t-172 -1q-96 0 -184.5 2.5t-165.5 13t-141 32t-110 59.5q-35 28 -58.5 63.5t-38 76.5t-21 86t-6.5 91q0 65 10 130.5t26 125.5h199q-7 -33 -13 -61.5t-10 -54t-6.5 -49.5t-2.5 -50q0 -54 14.5 -93t49.5 -65q30 -22 76 -34.5t113 -19t157 -8t208 -1.5q128 0 226.5 3.5
t164.5 21.5q40 11 63.5 24.5t35 28.5t14.5 31t3 31q0 117 -155.5 240t-456.5 268v206zM1086 1523h-222v203h222v-203zM1423 1523h-222v203h222v-203z" />
    <glyph glyph-name="uni063C.init" unicode="&#x63c;" horiz-adv-x="1026" 
d="M871 1623v-260l-623 -383q124 -61 228 -127.5t179 -142t116.5 -162t41.5 -186.5q0 -40 -7.5 -84t-28 -87t-56.5 -81.5t-94 -67.5t-140.5 -46.5t-195.5 -17.5h-291q-35 0 -52.5 33.5t-17.5 89.5q0 55 17.5 88.5t52.5 33.5h294q93 0 154 6t97.5 20.5t51.5 39.5t15 63
q0 60 -39 119.5t-116.5 122t-192 129t-264.5 139.5v206zM369 -308h-222v203h222v-203zM707 -308h-222v203h222v-203zM538 -588h-223v203h223v-203z" />
    <glyph glyph-name="uni063C.medi" unicode="&#x63c;" horiz-adv-x="1026" 
d="M871 1623v-260l-623 -383q127 -63 226 -126.5t169.5 -132.5t112.5 -145t54 -164q5 -29 13 -58.5t31 -58.5q10 -14 24 -26.5t34.5 -23t48.5 -16.5t65 -6v-245h-22q-38 0 -76 8.5t-72.5 26.5t-64.5 46.5t-52 69.5h-6q-25 -33 -63 -60.5t-92 -47.5t-125 -31.5t-162 -11.5
h-291q-35 0 -52.5 33.5t-17.5 89.5q0 55 17.5 88.5t52.5 33.5h294q93 0 154 6t97.5 20.5t51.5 39.5t15 63q0 60 -39 119.5t-116.5 122t-192 129t-264.5 139.5v206zM369 -308h-222v203h222v-203zM707 -308h-222v203h222v-203zM538 -588h-223v203h223v-203z" />
    <glyph glyph-name="uni063C.fina" unicode="&#x63c;" horiz-adv-x="1881" 
d="M1726 1623v-260l-623 -383q127 -62 226 -126t169.5 -133t112 -145.5t54.5 -163.5q6 -39 19.5 -73t39 -59.5t64 -40.5t93.5 -16v-245h-22q-38 0 -76 8.5t-72.5 26.5t-64.5 46.5t-52 69.5h-6q-35 -43 -79.5 -71.5t-104.5 -46.5q-46 -14 -101 -22t-121.5 -12.5t-145.5 -5.5
t-172 -1q-96 0 -184.5 2.5t-165.5 13t-141 32t-110 59.5q-35 28 -58.5 63.5t-38 76.5t-21 86t-6.5 91q0 65 10 130.5t26 125.5h199q-7 -33 -13 -61.5t-10 -54t-6.5 -49.5t-2.5 -50q0 -54 14.5 -93t49.5 -65q30 -22 76 -34.5t113 -19t157 -8t208 -1.5q128 0 226.5 3.5
t164.5 21.5q40 11 63.5 24.5t35 28.5t14.5 31t3 31q0 117 -155.5 240t-456.5 268v206zM883 -308h-222v203h222v-203zM1221 -308h-222v203h222v-203zM1052 -588h-223v203h223v-203z" />
    <glyph glyph-name="uni063D.init" unicode="&#x63d;" horiz-adv-x="684" 
d="M513 837v-474q0 -120 -31 -195t-83 -117.5t-119.5 -57.5t-140.5 -15h-139q-35 0 -52.5 34t-17.5 89t17.5 88.5t52.5 33.5h149q42 0 73 4t51.5 19t30.5 44.5t10 79.5v467h199zM341 1422h138l242 -362h-165l-147 219l-144 -219h-161zM273 -367h-222v203h222v-203zM610 -367
h-222v203h222v-203z" />
    <glyph glyph-name="uni063D.medi" unicode="&#x63d;" horiz-adv-x="684" 
d="M513 439q0 -56 3 -96.5t19.5 -67t51 -39.5t97.5 -13v-245h-36q-91 0 -152.5 28.5t-90.5 88.5h-5q-26 -35 -58.5 -57.5t-68 -36t-71.5 -18.5t-67 -5h-135q-35 0 -52.5 33.5t-17.5 89.5q0 55 17.5 88.5t52.5 33.5h149q39 0 70 5t52 20.5t32 44.5t11 77v467h199v-398z
M341 1422h138l242 -362h-165l-147 219l-144 -219h-161zM273 -367h-222v203h222v-203zM610 -367h-222v203h222v-203z" />
    <glyph glyph-name="uni063D.fina" unicode="&#x63d;" horiz-adv-x="1710" 
d="M386 556q-20 -74 -32 -139t-12 -138q0 -65 15.5 -120.5t57.5 -96.5t115 -64.5t189 -23.5q73 0 132 5.5t101 18.5t65 33t23 50q0 33 -17 60.5t-37 56.5q-20 31 -31 64.5t-11 70.5q0 52 19.5 97.5t53.5 79t80.5 52.5t101.5 19q37 0 69 -8t59.5 -25.5t53 -46t49.5 -68.5
q32 -53 56.5 -92t54 -65.5t68.5 -39.5t101 -13v-245h-21q-80 0 -136 18.5t-99.5 55t-80 90.5t-77.5 124q-29 49 -52.5 67t-51.5 18q-25 0 -40 -16t-15 -42q0 -23 13.5 -44t33.5 -47q50 -65 50 -141q0 -90 -49 -152.5t-128 -102.5t-178 -58t-199 -18q-158 0 -261.5 43.5
t-165 115.5t-86.5 166.5t-25 196.5q0 78 12 154t32 150h200zM703 1150h138l242 -362h-165l-147 219l-144 -219h-161z" />
    <glyph glyph-name="uni063E.init" unicode="&#x63e;" horiz-adv-x="684" 
d="M513 837v-474q0 -120 -31 -195t-83 -117.5t-119.5 -57.5t-140.5 -15h-139q-35 0 -52.5 34t-17.5 89t17.5 88.5t52.5 33.5h149q42 0 73 4t51.5 19t30.5 44.5t10 79.5v467h199zM273 -367h-222v203h222v-203zM610 -367h-222v203h222v-203zM350 1060h-222v203h222v-203z
M687 1060h-222v203h222v-203z" />
    <glyph glyph-name="uni063E.medi" unicode="&#x63e;" horiz-adv-x="684" 
d="M513 439q0 -56 3 -96.5t19.5 -67t51 -39.5t97.5 -13v-245h-36q-91 0 -152.5 28.5t-90.5 88.5h-5q-26 -35 -58.5 -57.5t-68 -36t-71.5 -18.5t-67 -5h-135q-35 0 -52.5 33.5t-17.5 89.5q0 55 17.5 88.5t52.5 33.5h149q39 0 70 5t52 20.5t32 44.5t11 77v467h199v-398z
M273 -367h-222v203h222v-203zM610 -367h-222v203h222v-203zM350 1060h-222v203h222v-203zM687 1060h-222v203h222v-203z" />
    <glyph glyph-name="uni063E.fina" unicode="&#x63e;" horiz-adv-x="1710" 
d="M386 556q-20 -74 -32 -139t-12 -138q0 -65 15.5 -120.5t57.5 -96.5t115 -64.5t189 -23.5q73 0 132 5.5t101 18.5t65 33t23 50q0 33 -17 60.5t-37 56.5q-20 31 -31 64.5t-11 70.5q0 52 19.5 97.5t53.5 79t80.5 52.5t101.5 19q37 0 69 -8t59.5 -25.5t53 -46t49.5 -68.5
q32 -53 56.5 -92t54 -65.5t68.5 -39.5t101 -13v-245h-21q-80 0 -136 18.5t-99.5 55t-80 90.5t-77.5 124q-29 49 -52.5 67t-51.5 18q-25 0 -40 -16t-15 -42q0 -23 13.5 -44t33.5 -47q50 -65 50 -141q0 -90 -49 -152.5t-128 -102.5t-178 -58t-199 -18q-158 0 -261.5 43.5
t-165 115.5t-86.5 166.5t-25 196.5q0 78 12 154t32 150h200zM675 841h-222v203h222v-203zM1012 841h-222v203h222v-203z" />
    <glyph glyph-name="uni063F.init" unicode="&#x63f;" horiz-adv-x="684" 
d="M513 837v-474q0 -120 -31 -195t-83 -117.5t-119.5 -57.5t-140.5 -15h-139q-35 0 -52.5 34t-17.5 89t17.5 88.5t52.5 33.5h149q42 0 73 4t51.5 19t30.5 44.5t10 79.5v467h199zM273 -367h-222v203h222v-203zM610 -367h-222v203h222v-203zM349 1060h-222v203h222v-203z
M687 1060h-222v203h222v-203zM519 1340h-223v203h223v-203z" />
    <glyph glyph-name="uni063F.medi" unicode="&#x63f;" horiz-adv-x="684" 
d="M513 439q0 -56 3 -96.5t19.5 -67t51 -39.5t97.5 -13v-245h-36q-91 0 -152.5 28.5t-90.5 88.5h-5q-26 -35 -58.5 -57.5t-68 -36t-71.5 -18.5t-67 -5h-135q-35 0 -52.5 33.5t-17.5 89.5q0 55 17.5 88.5t52.5 33.5h149q39 0 70 5t52 20.5t32 44.5t11 77v467h199v-398z
M273 -367h-222v203h222v-203zM610 -367h-222v203h222v-203zM349 1060h-222v203h222v-203zM687 1060h-222v203h222v-203zM519 1340h-223v203h223v-203z" />
    <glyph glyph-name="uni063F.fina" unicode="&#x63f;" horiz-adv-x="1710" 
d="M386 556q-20 -74 -32 -139t-12 -138q0 -65 15.5 -120.5t57.5 -96.5t115 -64.5t189 -23.5q73 0 132 5.5t101 18.5t65 33t23 50q0 33 -17 60.5t-37 56.5q-20 31 -31 64.5t-11 70.5q0 52 19.5 97.5t53.5 79t80.5 52.5t101.5 19q37 0 69 -8t59.5 -25.5t53 -46t49.5 -68.5
q32 -53 56.5 -92t54 -65.5t68.5 -39.5t101 -13v-245h-21q-80 0 -136 18.5t-99.5 55t-80 90.5t-77.5 124q-29 49 -52.5 67t-51.5 18q-25 0 -40 -16t-15 -42q0 -23 13.5 -44t33.5 -47q50 -65 50 -141q0 -90 -49 -152.5t-128 -102.5t-178 -58t-199 -18q-158 0 -261.5 43.5
t-165 115.5t-86.5 166.5t-25 196.5q0 78 12 154t32 150h200zM674 841h-222v203h222v-203zM1012 841h-222v203h222v-203zM844 1121h-223v203h223v-203z" />
    <glyph glyph-name="uni0641" unicode="&#x641;" horiz-adv-x="2052" arabic-form="isolated" 
d="M374 650q-8 -33 -13.5 -61t-10 -53.5t-6.5 -50t-2 -50.5q0 -54 14.5 -93.5t49.5 -65.5t94 -39t149.5 -18.5t216 -5.5h294.5q36 0 63 0.5t49 1t39.5 1t32.5 1.5l3 8q-94 58 -137.5 132.5t-43.5 165.5q0 50 12.5 102t35.5 101t54.5 91.5t70 74.5t82 50.5t90.5 18.5
q51 0 98 -23t88 -64t75 -95.5t58 -117.5t37.5 -131.5t13.5 -135.5q0 -96 -27.5 -165t-78 -116.5t-122 -75.5t-159.5 -43t-190 -19.5t-214 -4.5h-116q-129 0 -237 1.5t-196 11.5t-155.5 30t-116.5 58q-38 29 -63 66t-40 78.5t-21 86t-6 89.5q0 68 10 132t26 127h199z
M1500 709q-27 0 -52 -18t-43.5 -45t-30 -59t-11.5 -60q0 -21 10 -47.5t39.5 -57.5t83.5 -67.5t142 -78.5q11 9 18.5 22t12.5 28t7.5 30t3.5 28q1 14 -0.5 29t-3.5 32q-6 40 -22.5 86.5t-40.5 86t-53 65.5t-60 26zM1594 1204h-223v203h223v-203z" />
    <glyph glyph-name="uni0642" unicode="&#x642;" horiz-adv-x="1539" arabic-form="isolated" 
d="M370 310q-8 -51 -13.5 -91t-8.5 -73t-4.5 -59.5t-1.5 -49.5q0 -78 17 -136.5t61 -98t120.5 -59.5t196.5 -20q90 0 155.5 11t112.5 30t76.5 46t47.5 59.5t26 68.5t12 75q-71 -28 -151 -28q-64 0 -127.5 19t-114.5 60t-82.5 105t-31.5 153q0 79 26 158t72 142t107 102.5
t132 39.5q77 0 140 -45t116 -132q59 -96 87 -218t28 -262q0 -166 -39.5 -285t-119 -195t-200.5 -112t-283 -36q-157 0 -268.5 32.5t-182 98.5t-103.5 165.5t-33 233.5q0 64 7.5 136t24.5 165h199zM985 513q-27 0 -51 -18t-41.5 -44.5t-27.5 -57.5t-10 -58q0 -31 14.5 -53.5
t38.5 -37t55.5 -21.5t66.5 -7q34 0 68.5 5.5t63.5 19.5q-6 37 -22 84t-39 89t-52.5 70.5t-63.5 28.5zM913 1013h-222v203h222v-203zM1250 1013h-222v203h222v-203z" />
    <glyph glyph-name="uni0643" unicode="&#x643;" horiz-adv-x="1710" arabic-form="isolated" 
d="M374 650q-7 -33 -13 -61.5t-10 -54t-6.5 -49.5t-2.5 -50q0 -24 2.5 -45.5t9.5 -41t19.5 -37t32.5 -32.5q26 -20 65 -33t97.5 -20.5t141 -10t195.5 -2.5q126 0 209.5 4t134 20.5t71 51t20.5 95.5v1132h199v-1139q0 -95 -23.5 -162.5t-67 -112.5t-104 -71.5t-133.5 -40
t-157.5 -17t-174.5 -3.5q-99 0 -190.5 2.5t-170.5 13t-144 32t-111 59.5q-35 28 -58.5 64t-38 76.5t-21 85t-6.5 88.5q0 68 10 132t26 127h199zM685 710q180 10 180 66q0 14 -19 23t-51 26q-35 19 -57.5 45.5t-22.5 72.5q0 40 25 73t67.5 57.5t99 41.5t119.5 26v-120
q-92 -12 -133 -30.5t-41 -44.5q0 -16 18.5 -26t50.5 -25q38 -18 59.5 -43t21.5 -68q0 -33 -19.5 -65.5t-58.5 -60t-98.5 -46t-140.5 -22.5v120z" />
    <glyph glyph-name="uni0644" unicode="&#x644;" horiz-adv-x="1368" arabic-form="isolated" 
d="M371 492q-8 -54 -13.5 -96.5t-9 -76.5t-5 -62t-1.5 -53q0 -80 13.5 -137.5t47.5 -94.5t91.5 -55t145.5 -18q101 0 169.5 24t110.5 75.5t60 132.5t18 196v1189h199v-1209q0 -156 -30.5 -278t-98.5 -206t-176.5 -127.5t-264.5 -43.5q-134 0 -226.5 35t-149.5 102.5
t-82.5 166.5t-25.5 228q0 33 1.5 67.5t5 71.5t10 79t15.5 90h196z" />
    <glyph glyph-name="uni0645" unicode="&#x645;" horiz-adv-x="1197" arabic-form="isolated" 
d="M693 779q55 0 103.5 -22t88.5 -59t71 -85.5t52.5 -101.5t33 -108t11.5 -104q0 -70 -21.5 -129t-61.5 -102t-97 -67t-127 -24q-49 0 -99 10t-98 22t-93 22t-83 10t-63 -11.5t-39 -32t-19.5 -50t-5.5 -65.5q0 -31 4 -74t12 -94.5t21.5 -109t32.5 -118.5h-210
q-29 123 -44.5 220.5t-15.5 173.5q0 78 18 142t51 112t79.5 79t104.5 44q24 112 56 194.5t68.5 140.5t75 94.5t74 57t67 28t53.5 7.5zM740 214q22 0 43 3.5t37 13.5t25.5 27t9.5 44t-13 67.5t-36.5 77.5t-56.5 63.5t-73 26.5q-36 0 -66 -20t-54.5 -56.5t-45 -88
t-37.5 -114.5q66 -12 132 -28t135 -16z" />
    <glyph glyph-name="uni0646" unicode="&#x646;" horiz-adv-x="1368" arabic-form="isolated" 
d="M1158 520q20 -112 29.5 -205t9.5 -181q0 -156 -30.5 -278t-98.5 -206t-177 -127.5t-266 -43.5q-134 0 -227.5 35t-151.5 102.5t-84 166.5t-26 228q0 68 8 143.5t27 174.5h195q-9 -56 -15 -99.5t-9.5 -79t-5 -64.5t-1.5 -55q0 -80 14 -137.5t48.5 -94.5t92.5 -55t146 -18
q102 0 170.5 24t110 75.5t59 132.5t17.5 196q0 33 -2 70t-7 81t-12.5 96.5t-18.5 118.5h205zM783 718h-223v203h223v-203z" />
    <glyph glyph-name="uni0647" unicode="&#x647;" horiz-adv-x="1026" arabic-form="isolated" 
d="M411 1068q123 -84 211.5 -173.5t145.5 -181.5t84 -185.5t27 -184.5q0 -83 -26.5 -150.5t-75 -115.5t-118 -74.5t-156.5 -26.5q-85 0 -151 23t-111.5 66t-69 104t-23.5 138q0 85 21 162.5t54.5 143t76 118.5t85.5 90q-24 20 -49.5 40.5t-54.5 40.5zM342 342
q0 -35 13.5 -58t36 -37t52.5 -19.5t63 -5.5q91 0 134 32t43 90q0 78 -39 164.5t-124 182.5q-37 -29 -69.5 -68t-57 -84.5t-38.5 -95.5t-14 -101z" />
    <glyph glyph-name="uni0648" unicode="&#x648;" horiz-adv-x="1026" arabic-form="isolated" 
d="M0 -196q106 -42 187.5 -59t156.5 -17q87 0 144.5 24.5t92.5 64t51 91t21 105.5q-72 -28 -150 -28q-64 0 -127.5 19t-114.5 60t-82.5 105.5t-31.5 155.5q0 51 12 103.5t34 101.5t52.5 92t68 74.5t80 50t89.5 18.5q77 0 138.5 -43.5t118.5 -133.5q59 -92 87 -217.5
t28 -267.5q0 -128 -29.5 -241.5t-92 -198.5t-159 -134.5t-230.5 -49.5q-42 0 -83 4.5t-83 14t-86 24.5t-92 35v247zM649 241q-6 37 -22 84t-39 89t-51.5 71t-61.5 29q-28 0 -52.5 -18t-42.5 -44.5t-28.5 -57.5t-10.5 -56q0 -33 14.5 -56t39 -37.5t56.5 -21.5t67 -7
q33 0 67.5 5.5t63.5 19.5z" />
    <glyph glyph-name="uni0649" unicode="&#x649;" horiz-adv-x="1539" arabic-form="isolated" 
d="M414 754q-18 -66 -31.5 -120.5t-22.5 -101t-13.5 -87t-4.5 -79.5q0 -57 12 -110.5t49 -95t105 -67t179 -25.5q96 0 183.5 18.5t154.5 48t107 67t40 75.5q0 21 -13 38t-35.5 31.5t-52 29t-61.5 31.5q-44 23 -80.5 50.5t-63 61.5t-41.5 76.5t-15 96.5q0 91 43.5 163
t124 125.5t195 89t257.5 55.5v-241q-102 -14 -182 -29t-135 -35t-83.5 -45.5t-28.5 -59.5q0 -21 11 -37t32 -31t51 -30t67 -33q50 -25 88.5 -50.5t64.5 -56t39.5 -67.5t13.5 -85q0 -59 -21.5 -119.5t-63 -116.5t-102 -105t-138 -85t-171 -57t-201.5 -21q-148 0 -249.5 39
t-164.5 108.5t-90.5 165t-27.5 209.5q0 100 21 201t57 210h197z" />
    <glyph glyph-name="uni064A" unicode="&#x64a;" horiz-adv-x="1539" arabic-form="isolated" 
d="M414 754q-18 -66 -31.5 -120.5t-22.5 -101t-13.5 -87t-4.5 -79.5q0 -57 12 -110.5t49 -95t105 -67t179 -25.5q96 0 183.5 18.5t154.5 48t107 67t40 75.5q0 21 -13 38t-35.5 31.5t-52 29t-61.5 31.5q-44 23 -80.5 50.5t-63 61.5t-41.5 76.5t-15 96.5q0 91 43.5 163
t124 125.5t195 89t257.5 55.5v-241q-102 -14 -182 -29t-135 -35t-83.5 -45.5t-28.5 -59.5q0 -21 11 -37t32 -31t51 -30t67 -33q50 -25 88.5 -50.5t64.5 -56t39.5 -67.5t13.5 -85q0 -59 -21.5 -119.5t-63 -116.5t-102 -105t-138 -85t-171 -57t-201.5 -21q-148 0 -249.5 39
t-164.5 108.5t-90.5 165t-27.5 209.5q0 100 21 201t57 210h197zM712 -538h-222v203h222v-203zM1049 -538h-222v203h222v-203z" />
    <glyph glyph-name="uni066E.init" unicode="&#x66e;" horiz-adv-x="684" 
d="M513 837v-474q0 -120 -31 -195t-83 -117.5t-119.5 -57.5t-140.5 -15h-139q-35 0 -52.5 34t-17.5 89t17.5 88.5t52.5 33.5h149q42 0 73 4t51.5 19t30.5 44.5t10 79.5v467h199z" />
    <glyph glyph-name="uni066E.medi" unicode="&#x66e;" horiz-adv-x="684" 
d="M513 439q0 -56 3 -96.5t19.5 -67t51 -39.5t97.5 -13v-245h-36q-91 0 -152.5 28.5t-90.5 88.5h-5q-26 -35 -58.5 -57.5t-68 -36t-71.5 -18.5t-67 -5h-135q-35 0 -52.5 33.5t-17.5 89.5q0 55 17.5 88.5t52.5 33.5h149q39 0 70 5t52 20.5t32 44.5t11 77v467h199v-398z" />
    <glyph glyph-name="uni066E.fina" unicode="&#x66e;" horiz-adv-x="1881" 
d="M374 650q-7 -33 -13 -61t-10 -53.5t-6.5 -50t-2.5 -50.5q0 -24 2.5 -45.5t9.5 -41t19.5 -37t32.5 -32.5q30 -23 75 -36t114 -19.5t166 -8.5t231 -2q149 0 249 4t160 20.5t85 51t25 95.5v453h199v-398q0 -56 3 -96.5t19.5 -67t51 -39.5t97.5 -13v-245h-40
q-88 0 -144.5 29.5t-86.5 89.5h-6q-48 -45 -115 -70.5t-152 -38t-186.5 -15.5t-218.5 -3q-109 0 -209 2t-186 12t-156 32t-118 61q-35 28 -58.5 64t-38 77t-21 85t-6.5 88q0 68 10 132t26 127h199z" />
    <glyph glyph-name="uni066F.init" unicode="&#x66f;" horiz-adv-x="1026" 
d="M474 709q-27 0 -51 -18t-42 -45.5t-28.5 -59.5t-10.5 -59q0 -21 9.5 -47t38 -57.5t81.5 -68t141 -78.5q21 22 31.5 50.5t10.5 61.5q0 14 -1 28t-4 37q-5 37 -21.5 82t-40 83.5t-53 64.5t-60.5 26zM321 225q-94 58 -135 132.5t-41 165.5q0 50 12 102t34.5 101t53.5 91.5
t69 74.5t81 50.5t90 18.5q50 0 97.5 -23t88.5 -63.5t75 -95t58 -117.5t37.5 -131.5t13.5 -136.5q0 -98 -29.5 -167.5t-79.5 -115.5t-116.5 -72.5t-141.5 -40t-153.5 -17t-152.5 -3.5h-182q-35 0 -52.5 33.5t-17.5 89.5q0 55 17.5 88.5t52.5 33.5h129q20 0 47 -1l54 -2
t50.5 -2t37.5 -1z" />
    <glyph glyph-name="uni066F.medi" unicode="&#x66f;" horiz-adv-x="1026" 
d="M475 709q-27 0 -51 -18t-42.5 -45.5t-29 -59.5t-10.5 -59q0 -21 9.5 -47.5t38 -58t82 -68t141.5 -78.5q11 9 18.5 22t12.5 28t7.5 30.5t2.5 28.5q1 14 -0.5 29t-3.5 32q-6 40 -22.5 86.5t-40 86t-52.5 65.5t-60 26zM322 225q-94 58 -135.5 132.5t-41.5 165.5
q0 50 12.5 102t34.5 101t53.5 91.5t69 74.5t81 50.5t90.5 18.5q51 0 98 -23t88 -63.5t74.5 -95.5t58 -118t37.5 -131t13 -136q0 -48 -8 -88.5t-23 -74.5q22 -3 43.5 -4.5t45 -2t51 -1t62.5 -0.5v-245h-32q-44 0 -92 3.5t-97 10.5t-96 18t-88 27q-54 -22 -114 -34
t-119.5 -17.5t-116 -6.5t-104.5 -1h-167q-35 0 -52.5 33.5t-17.5 89.5q0 55 17.5 88.5t52.5 33.5h130q20 0 47 -1l54 -2t50.5 -2t37.5 -1z" />
    <glyph glyph-name="uni066F.fina" unicode="&#x66f;" horiz-adv-x="1539" 
d="M1068 -19q-195 0 -301.5 89t-106.5 255q0 51 12.5 103.5t34.5 101.5t53.5 91.5t69 74t80.5 50t89 18.5q77 0 139 -43.5t119 -134.5q45 -72 72 -164t37 -199h173v-245h-173q-15 -132 -61.5 -226t-126 -155t-191.5 -89.5t-257 -28.5q-157 0 -269 32.5t-183.5 98.5
t-105 165.5t-33.5 233.5q0 64 7.5 136t24.5 165h199q-8 -51 -13.5 -91t-8.5 -73t-4.5 -59.5t-1.5 -49.5q0 -78 17.5 -136.5t62.5 -98t122 -59.5t197 -20q126 0 205.5 21t126.5 56t67.5 82t27.5 99h-100zM1146 316q-12 37 -29 72t-36.5 63t-42.5 45t-47 17q-27 0 -51.5 -17.5
t-43 -43.5t-30 -56t-11.5 -55q0 -68 52 -95t155 -27h105q-4 23 -8.5 48.5t-12.5 48.5z" />
    <glyph glyph-name="uni0671" unicode="&#x671;" horiz-adv-x="513" arabic-form="isolated" 
d="M142 0v1516h199v-1516h-199zM-134 1740q27 18 50 31.5t44.5 22.5t43 13t45.5 4h11.5t14.5 -2q36 112 97.5 164.5t141.5 52.5q42 0 74.5 -14t55 -37t34 -53.5t11.5 -63.5q0 -41 -17.5 -78.5t-47.5 -65.5t-69.5 -44.5t-83.5 -16.5q-33 0 -64.5 8t-60.5 18t-55 18t-48 8
q-20 0 -47.5 -11t-71.5 -44zM266 1759q24 0 43 8.5t31.5 22.5t19.5 31t7 35q0 29 -17.5 46.5t-45.5 17.5q-36 0 -70.5 -32t-63.5 -107q26 -10 51 -16t45 -6z" />
    <glyph glyph-name="uni0672.fina" unicode="&#x672;" horiz-adv-x="513" 
d="M342 1516v-1077q0 -59 4 -100t21.5 -66.5t51.5 -37.5t94 -12v-245h-39q-102 0 -166.5 32.5t-101 87.5t-50 128t-13.5 154v1136h199zM376 1905q-20 5 -39 7.5t-32 2.5q-39 0 -65.5 -16t-26.5 -54q0 -42 30 -61.5t87 -19.5h92v-110h-219q-51 0 -83 7t-53.5 16t-36.5 16
t-32 7q-19 0 -38 -10t-45 -33l-3 1v97q29 24 51.5 33.5t44.5 9.5q16 0 29.5 -4.5t27.5 -10.5t30.5 -13t39.5 -12l1 5q-42 52 -42 104q0 35 14.5 65t41.5 51.5t65 33.5t84 12q33 0 77 -9v-115z" />
    <glyph glyph-name="uni0673.fina" unicode="&#x673;" horiz-adv-x="513" 
d="M342 1516v-1077q0 -59 4 -100t21.5 -66.5t51.5 -37.5t94 -12v-245h-39q-102 0 -166.5 32.5t-101 87.5t-50 128t-13.5 154v1136h199zM376 -269q-20 5 -39 7.5t-32 2.5q-39 0 -65.5 -16t-26.5 -54q0 -42 30 -61.5t87 -19.5h92v-110h-219q-51 0 -83 7t-53.5 16t-36.5 16
t-32 7q-19 0 -38 -10t-45 -33l-3 1v97q29 24 51.5 33.5t44.5 9.5q16 0 29.5 -4.5t27.5 -10.5t30.5 -13t39.5 -12l1 5q-42 52 -42 104q0 35 14.5 65t41.5 51.5t65 33.5t84 12q33 0 77 -9v-115z" />
    <glyph glyph-name="uni0675.fina" unicode="&#x675;" horiz-adv-x="855" 
d="M342 1516v-1077q0 -59 4 -100t21.5 -66.5t51.5 -37.5t94 -12v-245h-39q-102 0 -166.5 32.5t-101 87.5t-50 128t-13.5 154v1136h199zM513 -22q-35 0 -52.5 33.5t-17.5 89.5q0 55 17.5 88.5t52.5 33.5h342v-245h-342zM748 1389q-20 5 -39 7.5t-32 2.5q-39 0 -65.5 -16
t-26.5 -55q0 -40 30 -59.5t87 -19.5h92v-111h-369v105h82l1 4q-42 52 -42 105q0 35 14.5 64.5t41.5 51t65 33.5t84 12q31 0 77 -8v-116z" />
    <glyph glyph-name="uni0676.fina" unicode="&#x676;" horiz-adv-x="1026" 
d="M0 -196q55 -21 102.5 -35.5t90 -23.5t81.5 -13t77 -4q69 0 118 16t82 43t52.5 61.5t29.5 70.5q3 10 6.5 27t5.5 35h-97q-195 0 -300 89t-105 255q0 77 26.5 155.5t72.5 141.5t107 103t130 40q77 0 139 -43.5t119 -135.5q45 -72 72 -164t37 -199h180v-245h-182
q-12 -107 -47.5 -198t-96.5 -158t-147.5 -105t-200.5 -38q-43 0 -84.5 4t-84 13.5t-88 24.5t-95.5 36v247zM626 316q-12 37 -29 72.5t-36.5 63.5t-42.5 45t-47 17q-27 0 -51 -18t-42.5 -44t-29.5 -56t-11 -55q0 -68 50.5 -95t154.5 -27h105q-4 23 -8.5 48.5t-12.5 48.5z
M909 1312q-20 5 -39 7.5t-32 2.5q-39 0 -65.5 -16t-26.5 -55q0 -40 30 -59.5t87 -19.5h92v-111h-369v105h82l1 4q-42 52 -42 105q0 35 14.5 64.5t41.5 51t65 33.5t84 12q31 0 77 -8v-116z" />
    <glyph glyph-name="uni0677" unicode="&#x677;" horiz-adv-x="1026" arabic-form="isolated" 
d="M0 -196q106 -42 187.5 -59t156.5 -17q87 0 144.5 24.5t92.5 64t51 91t21 105.5q-72 -28 -150 -28q-64 0 -127.5 19t-114.5 60t-82.5 105.5t-31.5 155.5q0 51 12 103.5t34 101.5t52.5 92t68 74.5t80 50t89.5 18.5q77 0 138.5 -43.5t118.5 -133.5q59 -92 87 -217.5
t28 -267.5q0 -128 -29.5 -241.5t-92 -198.5t-159 -134.5t-230.5 -49.5q-42 0 -83 4.5t-83 14t-86 24.5t-92 35v247zM649 241q-6 37 -22 84t-39 89t-51.5 71t-61.5 29q-28 0 -52.5 -18t-42.5 -44.5t-28.5 -57.5t-10.5 -56q0 -33 14.5 -56t39 -37.5t56.5 -21.5t67 -7
q33 0 67.5 5.5t63.5 19.5zM909 1312q-20 5 -39 7.5t-32 2.5q-39 0 -65.5 -16t-26.5 -55q0 -40 30 -59.5t87 -19.5h92v-111h-369v105h82l1 4q-42 52 -42 105q0 35 14.5 64.5t41.5 51t65 33.5t84 12q31 0 77 -8v-116zM350 1018q-29 22 -51 40t-37 32q-10 -2 -21.5 -3t-22.5 -2
t-20 -1h-13q-64 0 -117 7.5t-112 23.5l21 98q48 -13 88.5 -21t84.5 -10q8 0 16.5 -0.5t17.5 -0.5q-1 1 -1 1.5t-1 1.5q-45 63 -45 125q0 40 16 70.5t42.5 51.5t60.5 32t69 11q33 0 65 -10t57 -31t40 -53t15 -75q0 -64 -33 -108t-92 -71q5 -7 12 -13t26 -20zM388 1304
q0 36 -20 52.5t-46 16.5t-48 -16t-22 -50q0 -26 14 -53t37 -53q38 14 61.5 39.5t23.5 63.5z" />
    <glyph glyph-name="uni0678.init" unicode="&#x678;" horiz-adv-x="1026" 
d="M513 837v-474q0 -120 -31 -195t-83 -117.5t-119.5 -57.5t-140.5 -15h-139q-35 0 -52.5 34t-17.5 89t17.5 88.5t52.5 33.5h149q42 0 73 4t51.5 19t30.5 44.5t10 79.5v467h199zM909 1308q-20 5 -39 7.5t-32 2.5q-39 0 -65.5 -16t-26.5 -55q0 -40 30 -59.5t87 -19.5h92v-111
h-369v105h82l1 4q-42 52 -42 105q0 35 14.5 64.5t41.5 51t65 33.5t84 12q31 0 77 -8v-116z" />
    <glyph glyph-name="uni0678.medi" unicode="&#x678;" horiz-adv-x="1026" 
d="M513 439q0 -56 3 -96.5t19.5 -67t51 -39.5t97.5 -13v-245h-36q-91 0 -152.5 28.5t-90.5 88.5h-5q-26 -35 -58.5 -57.5t-68 -36t-71.5 -18.5t-67 -5h-135q-35 0 -52.5 33.5t-17.5 89.5q0 55 17.5 88.5t52.5 33.5h149q39 0 70 5t52 20.5t32 44.5t11 77v467h199v-398z
M909 1308q-20 5 -39 7.5t-32 2.5q-39 0 -65.5 -16t-26.5 -55q0 -40 30 -59.5t87 -19.5h92v-111h-369v105h82l1 4q-42 52 -42 105q0 35 14.5 64.5t41.5 51t65 33.5t84 12q31 0 77 -8v-116zM684 -22q-35 0 -52.5 33.5t-17.5 89.5q0 55 17.5 88.5t52.5 33.5h342v-245h-342z" />
    <glyph glyph-name="uni0678.fina" unicode="&#x678;" horiz-adv-x="1710" 
d="M386 556q-20 -74 -32 -139t-12 -138q0 -65 15.5 -120.5t57.5 -96.5t115 -64.5t189 -23.5q73 0 132 5.5t101 18.5t65 33t23 50q0 33 -17 60.5t-37 56.5q-20 31 -31 64.5t-11 70.5q0 52 19.5 97.5t53.5 79t80.5 52.5t101.5 19q37 0 69 -8t59.5 -25.5t53 -46t49.5 -68.5
q32 -53 56.5 -92t54 -65.5t68.5 -39.5t101 -13v-245h-21q-80 0 -136 18.5t-99.5 55t-80 90.5t-77.5 124q-29 49 -52.5 67t-51.5 18q-25 0 -40 -16t-15 -42q0 -23 13.5 -44t33.5 -47q50 -65 50 -141q0 -90 -49 -152.5t-128 -102.5t-178 -58t-199 -18q-158 0 -261.5 43.5
t-165 115.5t-86.5 166.5t-25 196.5q0 78 12 154t32 150h200zM1744 1308q-20 5 -39 7.5t-32 2.5q-39 0 -65.5 -16t-26.5 -55q0 -40 30 -59.5t87 -19.5h92v-111h-369v105h82l1 4q-42 52 -42 105q0 35 14.5 64.5t41.5 51t65 33.5t84 12q31 0 77 -8v-116z" />
    <glyph glyph-name="uni0679" unicode="&#x679;" horiz-adv-x="1881" arabic-form="isolated" 
d="M374 650q-8 -33 -13.5 -61t-10 -53.5t-6.5 -50t-2 -50.5q0 -24 2.5 -45.5t9.5 -41t19.5 -37t32.5 -32.5q30 -23 75 -36t114 -19.5t166 -8.5t231 -2q149 0 249 4t160 20.5t85 51t25 95.5v453h199v-460q0 -95 -27 -162.5t-77 -112.5t-119.5 -71.5t-154 -40t-182.5 -17
t-203 -3.5q-120 0 -223.5 2t-189.5 12t-154 32t-117 61q-35 28 -58.5 64t-38 76.5t-21 84.5t-6.5 89q0 68 10 132t26 127h199zM613 1026q31 -4 62 -5.5t65 -1.5v494h116v-322l3 -1q38 52 84.5 85t111.5 33q51 0 87.5 -19.5t60.5 -52t35 -74.5t11 -87q0 -66 -20.5 -102
t-56 -53t-83.5 -20t-104 -3q-71 0 -125.5 1t-96.5 2.5t-74.5 4t-59.5 5.5zM973 1016q48 0 79.5 1t51 7t27.5 18t8 35q0 56 -28 84.5t-67 28.5q-30 0 -57.5 -15t-51.5 -39.5t-43.5 -55.5t-34.5 -64h116z" />
    <glyph glyph-name="uni067A" unicode="&#x67a;" horiz-adv-x="1881" arabic-form="isolated" 
d="M374 650q-8 -33 -13.5 -61t-10 -53.5t-6.5 -50t-2 -50.5q0 -24 2.5 -45.5t9.5 -41t19.5 -37t32.5 -32.5q30 -23 75 -36t114 -19.5t166 -8.5t231 -2q149 0 249 4t160 20.5t85 51t25 95.5v453h199v-460q0 -95 -27 -162.5t-77 -112.5t-119.5 -71.5t-154 -40t-182.5 -17
t-203 -3.5q-120 0 -223.5 2t-189.5 12t-154 32t-117 61q-35 28 -58.5 64t-38 76.5t-21 84.5t-6.5 89q0 68 10 132t26 127h199zM1053 1060h-223v203h223v-203zM1053 1340h-223v203h223v-203z" />
    <glyph glyph-name="uni067B" unicode="&#x67b;" horiz-adv-x="1881" arabic-form="isolated" 
d="M374 650q-8 -33 -13.5 -61t-10 -53.5t-6.5 -50t-2 -50.5q0 -24 2.5 -45.5t9.5 -41t19.5 -37t32.5 -32.5q30 -23 75 -36t114 -19.5t166 -8.5t231 -2q149 0 249 4t160 20.5t85 51t25 95.5v453h199v-460q0 -95 -27 -162.5t-77 -112.5t-119.5 -71.5t-154 -40t-182.5 -17
t-203 -3.5q-120 0 -223.5 2t-189.5 12t-154 32t-117 61q-35 28 -58.5 64t-38 76.5t-21 84.5t-6.5 89q0 68 10 132t26 127h199zM1053 -588h-223v203h223v-203zM1053 -308h-223v203h223v-203z" />
    <glyph glyph-name="uni067C.init" unicode="&#x67c;" horiz-adv-x="684" 
d="M513 837v-474q0 -120 -31 -195t-83 -117.5t-119.5 -57.5t-140.5 -15h-139q-35 0 -52.5 34t-17.5 89t17.5 88.5t52.5 33.5h149q42 0 73 4t51.5 19t30.5 44.5t10 79.5v467h199zM285 67q35 0 65.5 -13t53.5 -35.5t36 -54t13 -67.5q0 -35 -13 -65t-36 -53t-53.5 -36
t-65.5 -13q-37 0 -68.5 13t-54.5 36t-36 53t-13 65q0 36 13 67.5t35.5 54t54 35.5t69.5 13zM285 -187q33 0 55 24.5t22 59.5q0 38 -22 62.5t-55 24.5q-36 0 -58.5 -24.5t-22.5 -62.5q0 -35 22.5 -59.5t58.5 -24.5z" />
    <glyph glyph-name="uni067C.medi" unicode="&#x67c;" horiz-adv-x="684" 
d="M513 439q0 -56 3 -96.5t19.5 -67t51 -39.5t97.5 -13v-245h-36q-91 0 -152.5 28.5t-90.5 88.5h-5q-26 -35 -58.5 -57.5t-68 -36t-71.5 -18.5t-67 -5h-135q-35 0 -52.5 33.5t-17.5 89.5q0 55 17.5 88.5t52.5 33.5h149q39 0 70 5t52 20.5t32 44.5t11 77v467h199v-398z
M256 67q35 0 65.5 -13t53.5 -35.5t36 -54t13 -67.5q0 -35 -13 -65t-36 -53t-53.5 -36t-65.5 -13q-37 0 -68.5 13t-54.5 36t-36 53t-13 65q0 36 13 67.5t35.5 54t54 35.5t69.5 13zM256 -187q33 0 55 24.5t22 59.5q0 38 -22 62.5t-55 24.5q-36 0 -58.5 -24.5t-22.5 -62.5
q0 -35 22.5 -59.5t58.5 -24.5z" />
    <glyph glyph-name="uni067C.fina" unicode="&#x67c;" horiz-adv-x="1881" 
d="M374 650q-7 -33 -13 -61t-10 -53.5t-6.5 -50t-2.5 -50.5q0 -24 2.5 -45.5t9.5 -41t19.5 -37t32.5 -32.5q30 -23 75 -36t114 -19.5t166 -8.5t231 -2q149 0 249 4t160 20.5t85 51t25 95.5v453h199v-398q0 -56 3 -96.5t19.5 -67t51 -39.5t97.5 -13v-245h-40
q-88 0 -144.5 29.5t-86.5 89.5h-6q-48 -45 -115 -70.5t-152 -38t-186.5 -15.5t-218.5 -3q-109 0 -209 2t-186 12t-156 32t-118 61q-35 28 -58.5 64t-38 77t-21 85t-6.5 88q0 68 10 132t26 127h199zM944 43q35 0 65.5 -13t53.5 -35.5t36 -54t13 -67.5q0 -35 -13 -65t-36 -53
t-53.5 -36t-65.5 -13q-37 0 -68.5 13t-54.5 36t-36 53t-13 65q0 36 13 67.5t35.5 54t54 35.5t69.5 13zM944 -211q33 0 55 24.5t22 59.5q0 38 -22 62.5t-55 24.5q-36 0 -58.5 -24.5t-22.5 -62.5q0 -35 22.5 -59.5t58.5 -24.5z" />
    <glyph glyph-name="uni067D.init" unicode="&#x67d;" horiz-adv-x="684" 
d="M513 837v-474q0 -120 -31 -195t-83 -117.5t-119.5 -57.5t-140.5 -15h-139q-35 0 -52.5 34t-17.5 89t17.5 88.5t52.5 33.5h149q42 0 73 4t51.5 19t30.5 44.5t10 79.5v467h199zM349 1340h-222v203h222v-203zM687 1340h-222v203h222v-203zM518 1060h-223v203h223v-203z" />
    <glyph glyph-name="uni067D.medi" unicode="&#x67d;" horiz-adv-x="684" 
d="M513 439q0 -56 3 -96.5t19.5 -67t51 -39.5t97.5 -13v-245h-36q-91 0 -152.5 28.5t-90.5 88.5h-5q-26 -35 -58.5 -57.5t-68 -36t-71.5 -18.5t-67 -5h-135q-35 0 -52.5 33.5t-17.5 89.5q0 55 17.5 88.5t52.5 33.5h149q39 0 70 5t52 20.5t32 44.5t11 77v467h199v-398z
M349 1340h-222v203h222v-203zM687 1340h-222v203h222v-203zM518 1060h-223v203h223v-203z" />
    <glyph glyph-name="uni067D.fina" unicode="&#x67d;" horiz-adv-x="1881" 
d="M374 650q-7 -33 -13 -61t-10 -53.5t-6.5 -50t-2.5 -50.5q0 -24 2.5 -45.5t9.5 -41t19.5 -37t32.5 -32.5q30 -23 75 -36t114 -19.5t166 -8.5t231 -2q149 0 249 4t160 20.5t85 51t25 95.5v453h199v-398q0 -56 3 -96.5t19.5 -67t51 -39.5t97.5 -13v-245h-40
q-88 0 -144.5 29.5t-86.5 89.5h-6q-48 -45 -115 -70.5t-152 -38t-186.5 -15.5t-218.5 -3q-109 0 -209 2t-186 12t-156 32t-118 61q-35 28 -58.5 64t-38 77t-21 85t-6.5 88q0 68 10 132t26 127h199zM883 1340h-222v203h222v-203zM1221 1340h-222v203h222v-203zM1052 1060
h-223v203h223v-203z" />
    <glyph glyph-name="uni067E" unicode="&#x67e;" horiz-adv-x="1881" arabic-form="isolated" 
d="M374 650q-8 -33 -13.5 -61t-10 -53.5t-6.5 -50t-2 -50.5q0 -24 2.5 -45.5t9.5 -41t19.5 -37t32.5 -32.5q30 -23 75 -36t114 -19.5t166 -8.5t231 -2q149 0 249 4t160 20.5t85 51t25 95.5v453h199v-460q0 -95 -27 -162.5t-77 -112.5t-119.5 -71.5t-154 -40t-182.5 -17
t-203 -3.5q-120 0 -223.5 2t-189.5 12t-154 32t-117 61q-35 28 -58.5 64t-38 76.5t-21 84.5t-6.5 89q0 68 10 132t26 127h199zM883 -308h-222v203h222v-203zM1221 -308h-222v203h222v-203zM1052 -588h-223v203h223v-203z" />
    <glyph glyph-name="uni067F" unicode="&#x67f;" horiz-adv-x="1881" arabic-form="isolated" 
d="M374 650q-8 -33 -13.5 -61t-10 -53.5t-6.5 -50t-2 -50.5q0 -24 2.5 -45.5t9.5 -41t19.5 -37t32.5 -32.5q30 -23 75 -36t114 -19.5t166 -8.5t231 -2q149 0 249 4t160 20.5t85 51t25 95.5v453h199v-460q0 -95 -27 -162.5t-77 -112.5t-119.5 -71.5t-154 -40t-182.5 -17
t-203 -3.5q-120 0 -223.5 2t-189.5 12t-154 32t-117 61q-35 28 -58.5 64t-38 76.5t-21 84.5t-6.5 89q0 68 10 132t26 127h199zM883 1060h-222v203h222v-203zM1221 1060h-222v203h222v-203zM883 1340h-222v203h222v-203zM1221 1340h-222v203h222v-203z" />
    <glyph glyph-name="uni0680" unicode="&#x680;" horiz-adv-x="1881" arabic-form="isolated" 
d="M374 650q-8 -33 -13.5 -61t-10 -53.5t-6.5 -50t-2 -50.5q0 -24 2.5 -45.5t9.5 -41t19.5 -37t32.5 -32.5q30 -23 75 -36t114 -19.5t166 -8.5t231 -2q149 0 249 4t160 20.5t85 51t25 95.5v453h199v-460q0 -95 -27 -162.5t-77 -112.5t-119.5 -71.5t-154 -40t-182.5 -17
t-203 -3.5q-120 0 -223.5 2t-189.5 12t-154 32t-117 61q-35 28 -58.5 64t-38 76.5t-21 84.5t-6.5 89q0 68 10 132t26 127h199zM883 -588h-222v203h222v-203zM1221 -588h-222v203h222v-203zM883 -308h-222v203h222v-203zM1221 -308h-222v203h222v-203z" />
    <glyph glyph-name="uni0681.init" unicode="&#x681;" horiz-adv-x="1197" 
d="M171 819q68 20 132.5 31t140.5 11q72 0 128.5 -12t106 -31t95 -43.5t94.5 -48.5q31 -16 62.5 -27t66.5 -19t75 -12.5t90 -7.5l-45 -268q-48 -11 -107 -46.5t-131 -81.5t-158.5 -96.5t-189.5 -92.5t-224 -69.5t-262 -27.5h-45q-35 0 -52.5 33.5t-17.5 89.5q0 55 17.5 88.5
t52.5 33.5h54q118 0 224 24.5t202.5 64.5t184 90.5t170.5 103.5v7q-47 27 -90.5 48t-90 35t-100 21.5t-121.5 7.5q-74 0 -136.5 -8.5t-125.5 -25.5v228zM748 1293q-20 5 -39 7.5t-32 2.5q-39 0 -65.5 -16t-26.5 -55q0 -40 30 -59.5t87 -19.5h92v-111h-369v105h82l1 4
q-42 52 -42 105q0 35 14.5 64.5t41.5 51t65 33.5t84 12q31 0 77 -8v-116z" />
    <glyph glyph-name="uni0681.medi" unicode="&#x681;" horiz-adv-x="1197" 
d="M171 819q68 20 132.5 31t140.5 11q70 0 126.5 -11.5t105.5 -30.5t95 -43t96 -49q33 -17 65 -28.5t67 -19t74.5 -12t88.5 -7.5l-45 -268q-37 -9 -81 -33t-95 -56q3 -24 11 -39.5t25 -24.5t44.5 -12.5t69.5 -3.5h106v-245h-53q-91 0 -151 18t-97.5 50.5t-56 77.5t-26.5 98
q-70 -43 -151.5 -86t-177 -78t-205 -57.5t-234.5 -22.5h-45q-35 0 -52.5 33.5t-17.5 89.5q0 55 17.5 88.5t52.5 33.5h54q118 0 224 24.5t202.5 64.5t184 90.5t170.5 103.5v7q-47 27 -90.5 48t-90 35t-100 21.5t-121.5 7.5q-74 0 -136.5 -8.5t-125.5 -25.5v228v0zM748 1293
q-20 5 -39 7.5t-32 2.5q-39 0 -65.5 -16t-26.5 -55q0 -40 30 -59.5t87 -19.5h92v-111h-369v105h82l1 4q-42 52 -42 105q0 35 14.5 64.5t41.5 51t65 33.5t84 12q31 0 77 -8v-116z" />
    <glyph glyph-name="uni0681.fina" unicode="&#x681;" horiz-adv-x="1197" 
d="M171 896q63 20 125 30.5t134 10.5q74 0 130.5 -12t105 -30.5t92.5 -39.5t94.5 -39.5t111 -31.5t140.5 -14l-46 -262q-28 -8 -55.5 -16t-54.5 -16q9 -82 27.5 -132t48.5 -77t73 -35.5t100 -8.5v-245h-29q-87 0 -153 24.5t-112.5 78t-74.5 138t-39 203.5
q-136 -51 -225 -104.5t-141.5 -108t-74 -109t-21.5 -108.5q0 -51 18.5 -101t63 -90t118.5 -65t186 -25q94 0 192 20t212 61v-234q-61 -21 -114.5 -36t-103 -24.5t-97.5 -14t-97 -4.5q-147 0 -256 36.5t-180 101t-106 154t-35 195.5q0 59 11.5 120.5t39 122t72.5 119
t111.5 111.5t157 99.5t208.5 84.5v9q-35 18 -65 31.5t-62 22.5t-69 13t-85 4q-74 0 -145 -9.5t-131 -26.5v229v0zM768 1399q-20 5 -39 7.5t-32 2.5q-39 0 -65.5 -16t-26.5 -55q0 -40 30 -59.5t87 -19.5h92v-111h-369v105h82l1 4q-42 52 -42 105q0 35 14.5 64.5t41.5 51
t65 33.5t84 12q31 0 77 -8v-116z" />
    <glyph glyph-name="uni0682.init" unicode="&#x682;" horiz-adv-x="1197" 
d="M171 819q68 20 132.5 31t140.5 11q72 0 128.5 -12t106 -31t95 -43.5t94.5 -48.5q31 -16 62.5 -27t66.5 -19t75 -12.5t90 -7.5l-45 -268q-48 -11 -107 -46.5t-131 -81.5t-158.5 -96.5t-189.5 -92.5t-224 -69.5t-262 -27.5h-45q-35 0 -52.5 33.5t-17.5 89.5q0 55 17.5 88.5
t52.5 33.5h54q118 0 224 24.5t202.5 64.5t184 90.5t170.5 103.5v7q-47 27 -90.5 48t-90 35t-100 21.5t-121.5 7.5q-74 0 -136.5 -8.5t-125.5 -25.5v228zM710 1039h-223v203h223v-203zM710 1319h-223v203h223v-203z" />
    <glyph glyph-name="uni0682.medi" unicode="&#x682;" horiz-adv-x="1197" 
d="M171 819q68 20 132.5 31t140.5 11q70 0 126.5 -11.5t105.5 -30.5t95 -43t96 -49q33 -17 65 -28.5t67 -19t74.5 -12t88.5 -7.5l-45 -268q-37 -9 -81 -33t-95 -56q3 -24 11 -39.5t25 -24.5t44.5 -12.5t69.5 -3.5h106v-245h-53q-91 0 -151 18t-97.5 50.5t-56 77.5t-26.5 98
q-70 -43 -151.5 -86t-177 -78t-205 -57.5t-234.5 -22.5h-45q-35 0 -52.5 33.5t-17.5 89.5q0 55 17.5 88.5t52.5 33.5h54q118 0 224 24.5t202.5 64.5t184 90.5t170.5 103.5v7q-47 27 -90.5 48t-90 35t-100 21.5t-121.5 7.5q-74 0 -136.5 -8.5t-125.5 -25.5v228v0zM710 1039
h-223v203h223v-203zM710 1319h-223v203h223v-203z" />
    <glyph glyph-name="uni0682.fina" unicode="&#x682;" horiz-adv-x="1197" 
d="M171 896q63 20 125 30.5t134 10.5q74 0 130.5 -12t105 -30.5t92.5 -39.5t94.5 -39.5t111 -31.5t140.5 -14l-46 -262q-28 -8 -55.5 -16t-54.5 -16q9 -82 27.5 -132t48.5 -77t73 -35.5t100 -8.5v-245h-29q-87 0 -153 24.5t-112.5 78t-74.5 138t-39 203.5
q-136 -51 -225 -104.5t-141.5 -108t-74 -109t-21.5 -108.5q0 -51 18.5 -101t63 -90t118.5 -65t186 -25q94 0 192 20t212 61v-234q-61 -21 -114.5 -36t-103 -24.5t-97.5 -14t-97 -4.5q-147 0 -256 36.5t-180 101t-106 154t-35 195.5q0 59 11.5 120.5t39 122t72.5 119
t111.5 111.5t157 99.5t208.5 84.5v9q-35 18 -65 31.5t-62 22.5t-69 13t-85 4q-74 0 -145 -9.5t-131 -26.5v229v0zM742 1150h-223v203h223v-203zM742 1430h-223v203h223v-203z" />
    <glyph glyph-name="uni0683" unicode="&#x683;" horiz-adv-x="1197" arabic-form="isolated" 
d="M171 896q63 20 125 30.5t134 10.5q74 0 130.5 -12t105 -30.5t92.5 -39.5t94.5 -39.5t111 -31.5t140.5 -14l-46 -262q-219 -59 -360.5 -122.5t-224 -129.5t-114.5 -132.5t-32 -131.5q0 -51 18.5 -101t63 -90t118.5 -65t186 -25q94 0 192 20t212 61v-234
q-61 -21 -114.5 -36t-103 -24.5t-97.5 -14t-97 -4.5q-147 0 -256 36.5t-180 101t-106 154t-35 195.5q0 59 11.5 120.5t39 122t72.5 119t111.5 111.5t157 99.5t208.5 84.5v9q-35 18 -65 31.5t-62 22.5t-69 13t-85 4q-74 0 -145 -9.5t-131 -26.5v229v0zM714 -34h-222v203h222
v-203zM1051 -34h-222v203h222v-203z" />
    <glyph glyph-name="uni0684" unicode="&#x684;" horiz-adv-x="1197" arabic-form="isolated" 
d="M833 78h-181v179h181v-179zM833 -169h-181v179h181v-179zM171 896q63 20 125 30.5t134 10.5q74 0 130.5 -12t105 -30.5t92.5 -39.5t94.5 -39.5t111 -31.5t140.5 -14l-46 -262q-219 -59 -360.5 -122.5t-224 -129.5t-114.5 -132.5t-32 -131.5q0 -51 18.5 -101t63 -90
t118.5 -65t186 -25q94 0 192 20t212 61v-234q-61 -21 -114.5 -36t-103 -24.5t-97.5 -14t-97 -4.5q-147 0 -256 36.5t-180 101t-106 154t-35 195.5q0 59 11.5 120.5t39 122t72.5 119t111.5 111.5t157 99.5t208.5 84.5v9q-35 18 -65 31.5t-62 22.5t-69 13t-85 4
q-74 0 -145 -9.5t-131 -26.5v229z" />
    <glyph glyph-name="uni0685.init" unicode="&#x685;" horiz-adv-x="1197" 
d="M171 819q68 20 132.5 31t140.5 11q72 0 128.5 -12t106 -31t95 -43.5t94.5 -48.5q31 -16 62.5 -27t66.5 -19t75 -12.5t90 -7.5l-45 -268q-48 -11 -107 -46.5t-131 -81.5t-158.5 -96.5t-189.5 -92.5t-224 -69.5t-262 -27.5h-45q-35 0 -52.5 33.5t-17.5 89.5q0 55 17.5 88.5
t52.5 33.5h54q118 0 224 24.5t202.5 64.5t184 90.5t170.5 103.5v7q-47 27 -90.5 48t-90 35t-100 21.5t-121.5 7.5q-74 0 -136.5 -8.5t-125.5 -25.5v228zM540 1039h-222v203h222v-203zM878 1039h-222v203h222v-203zM710 1319h-223v203h223v-203z" />
    <glyph glyph-name="uni0685.medi" unicode="&#x685;" horiz-adv-x="1197" 
d="M171 819q68 20 132.5 31t140.5 11q70 0 126.5 -11.5t105.5 -30.5t95 -43t96 -49q33 -17 65 -28.5t67 -19t74.5 -12t88.5 -7.5l-45 -268q-37 -9 -81 -33t-95 -56q3 -24 11 -39.5t25 -24.5t44.5 -12.5t69.5 -3.5h106v-245h-53q-91 0 -151 18t-97.5 50.5t-56 77.5t-26.5 98
q-70 -43 -151.5 -86t-177 -78t-205 -57.5t-234.5 -22.5h-45q-35 0 -52.5 33.5t-17.5 89.5q0 55 17.5 88.5t52.5 33.5h54q118 0 224 24.5t202.5 64.5t184 90.5t170.5 103.5v7q-47 27 -90.5 48t-90 35t-100 21.5t-121.5 7.5q-74 0 -136.5 -8.5t-125.5 -25.5v228v0zM540 1039
h-222v203h222v-203zM878 1039h-222v203h222v-203zM710 1319h-223v203h223v-203z" />
    <glyph glyph-name="uni0685.fina" unicode="&#x685;" horiz-adv-x="1197" 
d="M171 896q63 20 125 30.5t134 10.5q74 0 130.5 -12t105 -30.5t92.5 -39.5t94.5 -39.5t111 -31.5t140.5 -14l-46 -262q-28 -8 -55.5 -16t-54.5 -16q9 -82 27.5 -132t48.5 -77t73 -35.5t100 -8.5v-245h-29q-87 0 -153 24.5t-112.5 78t-74.5 138t-39 203.5
q-136 -51 -225 -104.5t-141.5 -108t-74 -109t-21.5 -108.5q0 -51 18.5 -101t63 -90t118.5 -65t186 -25q94 0 192 20t212 61v-234q-61 -21 -114.5 -36t-103 -24.5t-97.5 -14t-97 -4.5q-147 0 -256 36.5t-180 101t-106 154t-35 195.5q0 59 11.5 120.5t39 122t72.5 119
t111.5 111.5t157 99.5t208.5 84.5v9q-35 18 -65 31.5t-62 22.5t-69 13t-85 4q-74 0 -145 -9.5t-131 -26.5v229v0zM570 1150h-222v203h222v-203zM908 1150h-222v203h222v-203zM740 1430h-223v203h223v-203z" />
    <glyph glyph-name="uni0686" unicode="&#x686;" horiz-adv-x="1197" arabic-form="isolated" 
d="M696 54h-181v179h181v-179zM995 54h-181v179h181v-179zM845 -208h-181v179h181v-179zM1059 515q-219 -59 -362 -122.5t-227 -129.5t-117.5 -134t-33.5 -137q0 -54 19.5 -105.5t65.5 -92t121.5 -65.5t187.5 -25q94 0 192 19.5t212 60.5v-226q-61 -21 -114.5 -36
t-103 -24.5t-97.5 -14t-97 -4.5q-147 0 -256 36.5t-180 101t-106 154t-35 195.5q0 59 11.5 120.5t39 122t72.5 119t111.5 111.5t157 99.5t208.5 84.5v9q-35 18 -65 31.5t-62 22.5t-69 13t-85 4q-74 0 -145 -9.5t-131 -26.5v229q63 20 125 30.5t134 10.5q74 0 130.5 -12
t105 -30.5t92.5 -39.5t94.5 -39.5t111 -31.5t140.5 -14z" />
    <glyph glyph-name="uni0687" unicode="&#x687;" horiz-adv-x="1197" arabic-form="isolated" 
d="M701 67h-181v179h181v-179zM990 67h-181v179h181v-179zM1059 515q-219 -59 -362 -122.5t-227 -129.5t-117.5 -134t-33.5 -137q0 -54 19.5 -105.5t65.5 -92t121.5 -65.5t187.5 -25q94 0 192 19.5t212 60.5v-226q-61 -21 -114.5 -36t-103 -24.5t-97.5 -14t-97 -4.5
q-147 0 -256 36.5t-180 101t-106 154t-35 195.5q0 59 11.5 120.5t39 122t72.5 119t111.5 111.5t157 99.5t208.5 84.5v9q-35 18 -65 31.5t-62 22.5t-69 13t-85 4q-74 0 -145 -9.5t-131 -26.5v229q63 20 125 30.5t134 10.5q74 0 130.5 -12t105 -30.5t92.5 -39.5t94.5 -39.5
t111 -31.5t140.5 -14zM701 -198h-181v179h181v-179zM990 -198h-181v179h181v-179z" />
    <glyph glyph-name="uni0688" unicode="&#x688;" horiz-adv-x="1026" arabic-form="isolated" 
d="M519 1024q161 -180 248.5 -349t87.5 -330q0 -110 -36 -182t-98 -114t-145.5 -59t-178.5 -17q-57 0 -134 6.5t-162 20.5l-48 248q108 -14 197 -21.5t158 -7.5q116 0 172.5 31t56.5 108q0 71 -28.5 146.5t-78.5 157.5t-118 171.5t-148 190.5h255zM39 1390q31 -4 62 -5.5
t65 -1.5v494h116v-322l3 -1q38 52 84.5 85t111.5 33q51 0 87.5 -19.5t60.5 -52t35 -74.5t11 -87q0 -66 -20.5 -102t-56 -53t-83.5 -20t-104 -3q-71 0 -125.5 1t-96.5 2.5t-74.5 4t-59.5 5.5zM399 1380q48 0 79.5 1t51 7t27.5 18t8 35q0 56 -28 84.5t-67 28.5
q-30 0 -57.5 -15t-51.5 -39.5t-43.5 -55.5t-34.5 -64h116z" />
    <glyph glyph-name="uni0689.fina" unicode="&#x689;" horiz-adv-x="1026" 
d="M50 248q109 -14 195.5 -21.5t155.5 -7.5q70 0 113.5 9.5t67.5 27.5t32.5 45.5t8.5 63.5q0 46 -15 119t-39.5 161t-57.5 186t-69 193h231q57 -168 95 -310t67 -270q9 -37 19.5 -76t30.5 -71.5t53.5 -53t87.5 -20.5v-245h-28q-32 0 -62 7t-57 23t-50.5 43t-41.5 66h-5
q-30 -42 -72.5 -69.5t-93 -44t-107 -23.5t-115.5 -7q-57 0 -134 6.5t-162 20.5zM430 50q35 0 65.5 -13t53.5 -35.5t36 -54t13 -67.5q0 -35 -13 -65t-36 -53t-53.5 -36t-65.5 -13q-37 0 -68.5 13t-54.5 36t-36 53t-13 65q0 36 13 67.5t35.5 54t54 35.5t69.5 13zM430 -204
q33 0 55 24.5t22 59.5q0 38 -22 62.5t-55 24.5q-36 0 -58.5 -24.5t-22.5 -62.5q0 -35 22.5 -59.5t58.5 -24.5z" />
    <glyph glyph-name="uni068A.fina" unicode="&#x68a;" horiz-adv-x="1026" 
d="M50 248q109 -14 195.5 -21.5t155.5 -7.5q70 0 113.5 9.5t67.5 27.5t32.5 45.5t8.5 63.5q0 46 -15 119t-39.5 161t-57.5 186t-69 193h231q57 -168 95 -310t67 -270q9 -37 19.5 -76t30.5 -71.5t53.5 -53t87.5 -20.5v-245h-28q-32 0 -62 7t-57 23t-50.5 43t-41.5 66h-5
q-30 -42 -72.5 -69.5t-93 -44t-107 -23.5t-115.5 -7q-57 0 -134 6.5t-162 20.5zM539 -357h-223v203h223v-203z" />
    <glyph glyph-name="uni068B.fina" unicode="&#x68b;" horiz-adv-x="1026" 
d="M50 248q109 -14 195.5 -21.5t155.5 -7.5q70 0 113.5 9.5t67.5 27.5t32.5 45.5t8.5 63.5q0 46 -15 119t-39.5 161t-57.5 186t-69 193h231q57 -168 95 -310t67 -270q9 -37 19.5 -76t30.5 -71.5t53.5 -53t87.5 -20.5v-245h-28q-32 0 -62 7t-57 23t-50.5 43t-41.5 66h-5
q-30 -42 -72.5 -69.5t-93 -44t-107 -23.5t-115.5 -7q-57 0 -134 6.5t-162 20.5zM539 -367h-223v203h223v-203zM593 1261h-223v203h223v-203z" />
    <glyph glyph-name="uni068C" unicode="&#x68c;" horiz-adv-x="1026" arabic-form="isolated" 
d="M519 1024q161 -180 248.5 -349t87.5 -330q0 -110 -36 -182t-98 -114t-145.5 -59t-178.5 -17q-57 0 -134 6.5t-162 20.5l-48 248q108 -14 197 -21.5t158 -7.5q116 0 172.5 31t56.5 108q0 71 -28.5 146.5t-78.5 157.5t-118 171.5t-148 190.5h255zM310 1261h-222v203h222
v-203zM647 1261h-222v203h222v-203z" />
    <glyph glyph-name="uni068D" unicode="&#x68d;" horiz-adv-x="1026" arabic-form="isolated" 
d="M519 1024q161 -180 248.5 -349t87.5 -330q0 -110 -36 -182t-98 -114t-145.5 -59t-178.5 -17q-57 0 -134 6.5t-162 20.5l-48 248q108 -14 197 -21.5t158 -7.5q116 0 172.5 31t56.5 108q0 71 -28.5 146.5t-78.5 157.5t-118 171.5t-148 190.5h255zM370 -357h-222v203h222
v-203zM707 -357h-222v203h222v-203z" />
    <glyph glyph-name="uni068E" unicode="&#x68e;" horiz-adv-x="1026" arabic-form="isolated" 
d="M519 1024q161 -180 248.5 -349t87.5 -330q0 -110 -36 -182t-98 -114t-145.5 -59t-178.5 -17q-57 0 -134 6.5t-162 20.5l-48 248q108 -14 197 -21.5t158 -7.5q116 0 172.5 31t56.5 108q0 71 -28.5 146.5t-78.5 157.5t-118 171.5t-148 190.5h255zM309 1261h-222v203h222
v-203zM647 1261h-222v203h222v-203zM479 1541h-223v203h223v-203z" />
    <glyph glyph-name="uni068F.fina" unicode="&#x68f;" horiz-adv-x="1026" 
d="M50 248q109 -14 195.5 -21.5t155.5 -7.5q70 0 113.5 9.5t67.5 27.5t32.5 45.5t8.5 63.5q0 46 -15 119t-39.5 161t-57.5 186t-69 193h231q57 -168 95 -310t67 -270q9 -37 19.5 -76t30.5 -71.5t53.5 -53t87.5 -20.5v-245h-28q-32 0 -62 7t-57 23t-50.5 43t-41.5 66h-5
q-30 -42 -72.5 -69.5t-93 -44t-107 -23.5t-115.5 -7q-57 0 -134 6.5t-162 20.5zM423 1541h-222v203h222v-203zM761 1541h-222v203h222v-203zM592 1261h-223v203h223v-203z" />
    <glyph glyph-name="uni0690.fina" unicode="&#x690;" horiz-adv-x="1026" 
d="M50 248q109 -14 195.5 -21.5t155.5 -7.5q70 0 113.5 9.5t67.5 27.5t32.5 45.5t8.5 63.5q0 46 -15 119t-39.5 161t-57.5 186t-69 193h231q57 -168 95 -310t67 -270q9 -37 19.5 -76t30.5 -71.5t53.5 -53t87.5 -20.5v-245h-28q-32 0 -62 7t-57 23t-50.5 43t-41.5 66h-5
q-30 -42 -72.5 -69.5t-93 -44t-107 -23.5t-115.5 -7q-57 0 -134 6.5t-162 20.5zM423 1261h-222v203h222v-203zM761 1261h-222v203h222v-203zM423 1541h-222v203h222v-203zM761 1541h-222v203h222v-203z" />
    <glyph glyph-name="uni0691" unicode="&#x691;" horiz-adv-x="855" arabic-form="isolated" 
d="M0 -234q68 -20 115.5 -29t88.5 -9q82 0 135.5 29t84.5 78.5t43 115t12 139.5q0 69 -9.5 137t-27.5 138.5t-43.5 147t-56.5 163.5h218q29 -74 52 -151t39 -154t24.5 -151.5t8.5 -142.5q0 -154 -38 -266.5t-102.5 -186t-151 -109.5t-182.5 -36q-49 0 -98.5 9.5t-111.5 32.5
v245zM82 1056q31 -4 62 -5.5t65 -1.5v494h116v-322l3 -1q38 52 84.5 85t111.5 33q51 0 87.5 -19.5t60.5 -52t35 -74.5t11 -87q0 -66 -20.5 -102t-56 -53t-83.5 -20t-104 -3q-71 0 -125.5 1t-96.5 2.5t-74.5 4t-59.5 5.5zM442 1046q48 0 79.5 1t51 7t27.5 18t8 35
q0 56 -28 84.5t-67 28.5q-30 0 -57.5 -15t-51.5 -39.5t-43.5 -55.5t-34.5 -64h116z" />
    <glyph glyph-name="uni0692.fina" unicode="&#x692;" horiz-adv-x="855" 
d="M855 -22h-25q-59 0 -91 15.5t-55 44.5q-2 0 -2.5 -0.5t-2.5 -0.5q-6 -144 -45 -249t-102 -173.5t-146 -102t-176 -33.5q-49 0 -98.5 9.5t-111.5 32.5v245q68 -20 115.5 -29t88.5 -9q82 0 134.5 29t83 78.5t42 115t11.5 139.5q0 69 -9 137t-26.5 138.5t-42 147
t-55.5 163.5h218q34 -85 57.5 -172t39.5 -175q4 -24 15 -43.5t33 -33.5t58 -21.5t92 -7.5v-245zM564 1281h160l-236 -362h-138l-243 362h166l147 -218z" />
    <glyph glyph-name="uni0693.fina" unicode="&#x693;" horiz-adv-x="855" 
d="M855 -22h-25q-59 0 -91 15.5t-55 44.5q-2 0 -2.5 -0.5t-2.5 -0.5q-6 -144 -45 -249t-102 -173.5t-146 -102t-176 -33.5q-49 0 -98.5 9.5t-111.5 32.5v245q68 -20 115.5 -29t88.5 -9q82 0 134.5 29t83 78.5t42 115t11.5 139.5q0 69 -9 137t-26.5 138.5t-42 147
t-55.5 163.5h218q34 -85 57.5 -172t39.5 -175q4 -24 15 -43.5t33 -33.5t58 -21.5t92 -7.5v-245zM659 -189q35 0 65.5 -13t53.5 -35.5t36 -54t13 -67.5q0 -35 -13 -65t-36 -53t-53.5 -36t-65.5 -13q-37 0 -68.5 13t-54.5 36t-36 53t-13 65q0 36 13 67.5t35.5 54t54 35.5
t69.5 13zM659 -443q33 0 55 24.5t22 59.5q0 38 -22 62.5t-55 24.5q-36 0 -58.5 -24.5t-22.5 -62.5q0 -35 22.5 -59.5t58.5 -24.5z" />
    <glyph glyph-name="uni0694.fina" unicode="&#x694;" horiz-adv-x="855" 
d="M855 -22h-25q-59 0 -91 15.5t-55 44.5q-2 0 -2.5 -0.5t-2.5 -0.5q-6 -144 -45 -249t-102 -173.5t-146 -102t-176 -33.5q-49 0 -98.5 9.5t-111.5 32.5v245q68 -20 115.5 -29t88.5 -9q82 0 134.5 29t83 78.5t42 115t11.5 139.5q0 69 -9 137t-26.5 138.5t-42 147
t-55.5 163.5h218q34 -85 57.5 -172t39.5 -175q4 -24 15 -43.5t33 -33.5t58 -21.5t92 -7.5v-245zM866 -538h-223v203h223v-203z" />
    <glyph glyph-name="uni0695.fina" unicode="&#x695;" horiz-adv-x="855" 
d="M855 -22h-25q-59 0 -91 15.5t-55 44.5q-2 0 -2.5 -0.5t-2.5 -0.5q-6 -144 -45 -249t-102 -173.5t-146 -102t-176 -33.5q-49 0 -98.5 9.5t-111.5 32.5v245q68 -20 115.5 -29t88.5 -9q82 0 134.5 29t83 78.5t42 115t11.5 139.5q0 69 -9 137t-26.5 138.5t-42 147
t-55.5 163.5h218q34 -85 57.5 -172t39.5 -175q4 -24 15 -43.5t33 -33.5t58 -21.5t92 -7.5v-245zM928 -199h160l-236 -362h-138l-243 362h166l147 -218z" />
    <glyph glyph-name="uni0696.fina" unicode="&#x696;" horiz-adv-x="855" 
d="M855 -22h-25q-59 0 -91 15.5t-55 44.5q-2 0 -2.5 -0.5t-2.5 -0.5q-6 -144 -45 -249t-102 -173.5t-146 -102t-176 -33.5q-49 0 -98.5 9.5t-111.5 32.5v245q68 -20 115.5 -29t88.5 -9q82 0 134.5 29t83 78.5t42 115t11.5 139.5q0 69 -9 137t-26.5 138.5t-42 147
t-55.5 163.5h218q34 -85 57.5 -172t39.5 -175q4 -24 15 -43.5t33 -33.5t58 -21.5t92 -7.5v-245zM866 -538h-223v203h223v-203zM522 919h-223v203h223v-203z" />
    <glyph glyph-name="uni0697.fina" unicode="&#x697;" horiz-adv-x="855" 
d="M855 -22h-25q-59 0 -91 15.5t-55 44.5q-2 0 -2.5 -0.5t-2.5 -0.5q-6 -144 -45 -249t-102 -173.5t-146 -102t-176 -33.5q-49 0 -98.5 9.5t-111.5 32.5v245q68 -20 115.5 -29t88.5 -9q82 0 134.5 29t83 78.5t42 115t11.5 139.5q0 69 -9 137t-26.5 138.5t-42 147
t-55.5 163.5h218q34 -85 57.5 -172t39.5 -175q4 -24 15 -43.5t33 -33.5t58 -21.5t92 -7.5v-245zM353 919h-222v203h222v-203zM690 919h-222v203h222v-203z" />
    <glyph glyph-name="uni0698" unicode="&#x698;" horiz-adv-x="855" arabic-form="isolated" 
d="M0 -234q68 -20 115.5 -29t88.5 -9q82 0 135.5 29t84.5 78.5t43 115t12 139.5q0 69 -9.5 137t-27.5 138.5t-43.5 147t-56.5 163.5h218q29 -74 52 -151t39 -154t24.5 -151.5t8.5 -142.5q0 -154 -38 -266.5t-102.5 -186t-151 -109.5t-182.5 -36q-49 0 -98.5 9.5t-111.5 32.5
v245zM352 919h-222v203h222v-203zM690 919h-222v203h222v-203zM522 1199h-223v203h223v-203z" />
    <glyph glyph-name="uni0699.fina" unicode="&#x699;" horiz-adv-x="855" 
d="M855 -22h-25q-59 0 -91 15.5t-55 44.5q-2 0 -2.5 -0.5t-2.5 -0.5q-6 -144 -45 -249t-102 -173.5t-146 -102t-176 -33.5q-49 0 -98.5 9.5t-111.5 32.5v245q68 -20 115.5 -29t88.5 -9q82 0 134.5 29t83 78.5t42 115t11.5 139.5q0 69 -9 137t-26.5 138.5t-42 147
t-55.5 163.5h218q34 -85 57.5 -172t39.5 -175q4 -24 15 -43.5t33 -33.5t58 -21.5t92 -7.5v-245zM352 919h-222v203h222v-203zM690 919h-222v203h222v-203zM352 1199h-222v203h222v-203zM690 1199h-222v203h222v-203z" />
    <glyph glyph-name="uni069A.init" unicode="&#x69a;" horiz-adv-x="1710" 
d="M513 649v-213q0 -55 3.5 -95t18.5 -66.5t45.5 -39t83.5 -12.5q31 0 60.5 4.5t52 20t36.5 44.5t14 78v279h199v-210q0 -56 3.5 -96.5t19.5 -67t48.5 -39.5t90.5 -13q33 0 61 4.5t48 19.5t31.5 44t11.5 79v467h199v-480q0 -116 -29.5 -189.5t-78.5 -115.5t-113 -58
t-132 -16q-40 0 -78.5 5.5t-72 18.5t-62 35.5t-48.5 55.5h-4q-27 -33 -60.5 -55t-68.5 -35.5t-71 -19t-67 -5.5q-93 0 -153.5 27t-96.5 88h-4q-28 -33 -62 -55t-70 -35.5t-72 -19t-68 -5.5h-128q-35 0 -52.5 33.5t-17.5 89.5q0 55 17.5 88.5t52.5 33.5h138q26 0 57 5.5
t57.5 21.5t44.5 44.5t18 75.5v279h198zM1034 889h-223v203h223v-203zM1034 -367h-223v203h223v-203z" />
    <glyph glyph-name="uni069A.medi" unicode="&#x69a;" horiz-adv-x="1710" 
d="M513 649v-213q0 -55 3.5 -95t18.5 -66.5t45.5 -39t83.5 -12.5q31 0 60.5 4.5t52 20t36.5 44.5t14 78v279h199v-210q0 -56 3.5 -96.5t19.5 -67t48.5 -39.5t90.5 -13q33 0 61 4.5t48 19.5t31.5 44t11.5 79v467h199v-392q0 -56 3 -98t19.5 -69.5t51 -41t97.5 -13.5v-245h-36
q-85 0 -139.5 24.5t-89.5 80.5h-4q-25 -32 -55.5 -52t-63.5 -32t-67.5 -16.5t-68.5 -4.5q-40 0 -78.5 5.5t-72 18.5t-62 35.5t-48.5 55.5h-4q-27 -33 -60.5 -55t-68.5 -35.5t-71 -19t-67 -5.5q-94 0 -154 27t-96 88h-4q-28 -33 -61 -55t-68.5 -35.5t-71 -19t-67.5 -5.5h-132
q-35 0 -52.5 33.5t-17.5 89.5q0 55 17.5 88.5t52.5 33.5h142q26 0 56.5 5.5t56.5 21.5t43 44.5t17 75.5v279h198zM1034 889h-223v203h223v-203zM1034 -367h-223v203h223v-203z" />
    <glyph glyph-name="uni069A.fina" unicode="&#x69a;" horiz-adv-x="2394" 
d="M373 329q-9 -56 -15 -99.5t-9.5 -79t-5 -64.5t-1.5 -55q0 -80 13.5 -137.5t47.5 -94.5t92 -55t147 -18q102 0 171 24t111.5 74.5t60.5 130t18 190.5q0 43 -2.5 87t-8 97.5t-13.5 118.5t-19 150h199q11 -88 19 -154.5t13 -123.5q3 -29 14 -48t31.5 -30t50.5 -15t71 -4
q30 0 57.5 4.5t48.5 20t34 44.5t13 78v279h199v-210q0 -56 3.5 -96.5t19.5 -67t48.5 -39.5t90.5 -13q33 0 61 4.5t48 19.5t31.5 44t11.5 79v467h199v-392q0 -56 3 -98t19.5 -69.5t51 -41t97.5 -13.5v-245h-36q-85 0 -141.5 24t-87.5 81h-4q-25 -32 -55.5 -52t-63.5 -32
t-67.5 -16.5t-68.5 -4.5q-40 0 -78.5 5.5t-72.5 19t-62 36.5t-47 59h-6q-20 -30 -47 -52.5t-58.5 -37.5t-65.5 -22.5t-66 -7.5q-53 0 -95.5 13t-74.5 45l-7 -1q-8 -137 -44 -241t-103.5 -174t-168 -105.5t-237.5 -35.5t-231 35t-152.5 102.5t-84.5 166t-26 225.5
q0 35 2 70.5t6 74t10.5 82t16.5 94.5h195v0zM1718 889h-223v203h223v-203zM1718 -367h-223v203h223v-203z" />
    <glyph glyph-name="uni069B.init" unicode="&#x69b;" horiz-adv-x="1710" 
d="M513 649v-213q0 -55 3.5 -95t18.5 -66.5t45.5 -39t83.5 -12.5q31 0 60.5 4.5t52 20t36.5 44.5t14 78v279h199v-210q0 -56 3.5 -96.5t19.5 -67t48.5 -39.5t90.5 -13q33 0 61 4.5t48 19.5t31.5 44t11.5 79v467h199v-480q0 -116 -29.5 -189.5t-78.5 -115.5t-113 -58
t-132 -16q-40 0 -78.5 5.5t-72 18.5t-62 35.5t-48.5 55.5h-4q-27 -33 -60.5 -55t-68.5 -35.5t-71 -19t-67 -5.5q-93 0 -153.5 27t-96.5 88h-4q-28 -33 -62 -55t-70 -35.5t-72 -19t-68 -5.5h-128q-35 0 -52.5 33.5t-17.5 89.5q0 55 17.5 88.5t52.5 33.5h138q26 0 57 5.5
t57.5 21.5t44.5 44.5t18 75.5v279h198zM864 -308h-222v203h222v-203zM1202 -308h-222v203h222v-203zM1033 -588h-223v203h223v-203z" />
    <glyph glyph-name="uni069B.medi" unicode="&#x69b;" horiz-adv-x="1710" 
d="M513 649v-213q0 -55 3.5 -95t18.5 -66.5t45.5 -39t83.5 -12.5q31 0 60.5 4.5t52 20t36.5 44.5t14 78v279h199v-210q0 -56 3.5 -96.5t19.5 -67t48.5 -39.5t90.5 -13q33 0 61 4.5t48 19.5t31.5 44t11.5 79v467h199v-392q0 -56 3 -98t19.5 -69.5t51 -41t97.5 -13.5v-245h-36
q-85 0 -139.5 24.5t-89.5 80.5h-4q-25 -32 -55.5 -52t-63.5 -32t-67.5 -16.5t-68.5 -4.5q-40 0 -78.5 5.5t-72 18.5t-62 35.5t-48.5 55.5h-4q-27 -33 -60.5 -55t-68.5 -35.5t-71 -19t-67 -5.5q-94 0 -154 27t-96 88h-4q-28 -33 -61 -55t-68.5 -35.5t-71 -19t-67.5 -5.5h-132
q-35 0 -52.5 33.5t-17.5 89.5q0 55 17.5 88.5t52.5 33.5h142q26 0 56.5 5.5t56.5 21.5t43 44.5t17 75.5v279h198zM864 -308h-222v203h222v-203zM1202 -308h-222v203h222v-203zM1033 -588h-223v203h223v-203z" />
    <glyph glyph-name="uni069B.fina" unicode="&#x69b;" horiz-adv-x="2394" 
d="M373 329q-9 -56 -15 -99.5t-9.5 -79t-5 -64.5t-1.5 -55q0 -80 13.5 -137.5t47.5 -94.5t92 -55t147 -18q102 0 171 24t111.5 74.5t60.5 130t18 190.5q0 43 -2.5 87t-8 97.5t-13.5 118.5t-19 150h199q11 -88 19 -154.5t13 -123.5q3 -29 14 -48t31.5 -30t50.5 -15t71 -4
q30 0 57.5 4.5t48.5 20t34 44.5t13 78v279h199v-210q0 -56 3.5 -96.5t19.5 -67t48.5 -39.5t90.5 -13q33 0 61 4.5t48 19.5t31.5 44t11.5 79v467h199v-392q0 -56 3 -98t19.5 -69.5t51 -41t97.5 -13.5v-245h-36q-85 0 -141.5 24t-87.5 81h-4q-25 -32 -55.5 -52t-63.5 -32
t-67.5 -16.5t-68.5 -4.5q-40 0 -78.5 5.5t-72.5 19t-62 36.5t-47 59h-6q-20 -30 -47 -52.5t-58.5 -37.5t-65.5 -22.5t-66 -7.5q-53 0 -95.5 13t-74.5 45l-7 -1q-8 -137 -44 -241t-103.5 -174t-168 -105.5t-237.5 -35.5t-231 35t-152.5 102.5t-84.5 166t-26 225.5
q0 35 2 70.5t6 74t10.5 82t16.5 94.5h195v0zM1548 -308h-222v203h222v-203zM1886 -308h-222v203h222v-203zM1717 -588h-223v203h223v-203z" />
    <glyph glyph-name="uni069C.init" unicode="&#x69c;" horiz-adv-x="1710" 
d="M513 649v-213q0 -55 3.5 -95t18.5 -66.5t45.5 -39t83.5 -12.5q31 0 60.5 4.5t52 20t36.5 44.5t14 78v279h199v-210q0 -56 3.5 -96.5t19.5 -67t48.5 -39.5t90.5 -13q33 0 61 4.5t48 19.5t31.5 44t11.5 79v467h199v-480q0 -116 -29.5 -189.5t-78.5 -115.5t-113 -58
t-132 -16q-40 0 -78.5 5.5t-72 18.5t-62 35.5t-48.5 55.5h-4q-27 -33 -60.5 -55t-68.5 -35.5t-71 -19t-67 -5.5q-93 0 -153.5 27t-96.5 88h-4q-28 -33 -62 -55t-70 -35.5t-72 -19t-68 -5.5h-128q-35 0 -52.5 33.5t-17.5 89.5q0 55 17.5 88.5t52.5 33.5h138q26 0 57 5.5
t57.5 21.5t44.5 44.5t18 75.5v279h198zM864 -308h-222v203h222v-203zM1202 -308h-222v203h222v-203zM1033 -588h-223v203h223v-203zM864 889h-222v203h222v-203zM1202 889h-222v203h222v-203zM1034 1169h-223v203h223v-203z" />
    <glyph glyph-name="uni069C.medi" unicode="&#x69c;" horiz-adv-x="1710" 
d="M513 649v-213q0 -55 3.5 -95t18.5 -66.5t45.5 -39t83.5 -12.5q31 0 60.5 4.5t52 20t36.5 44.5t14 78v279h199v-210q0 -56 3.5 -96.5t19.5 -67t48.5 -39.5t90.5 -13q33 0 61 4.5t48 19.5t31.5 44t11.5 79v467h199v-392q0 -56 3 -98t19.5 -69.5t51 -41t97.5 -13.5v-245h-36
q-85 0 -139.5 24.5t-89.5 80.5h-4q-25 -32 -55.5 -52t-63.5 -32t-67.5 -16.5t-68.5 -4.5q-40 0 -78.5 5.5t-72 18.5t-62 35.5t-48.5 55.5h-4q-27 -33 -60.5 -55t-68.5 -35.5t-71 -19t-67 -5.5q-94 0 -154 27t-96 88h-4q-28 -33 -61 -55t-68.5 -35.5t-71 -19t-67.5 -5.5h-132
q-35 0 -52.5 33.5t-17.5 89.5q0 55 17.5 88.5t52.5 33.5h142q26 0 56.5 5.5t56.5 21.5t43 44.5t17 75.5v279h198zM864 -308h-222v203h222v-203zM1202 -308h-222v203h222v-203zM1033 -588h-223v203h223v-203zM864 889h-222v203h222v-203zM1202 889h-222v203h222v-203z
M1034 1169h-223v203h223v-203z" />
    <glyph glyph-name="uni069C.fina" unicode="&#x69c;" horiz-adv-x="2394" 
d="M373 329q-9 -56 -15 -99.5t-9.5 -79t-5 -64.5t-1.5 -55q0 -80 13.5 -137.5t47.5 -94.5t92 -55t147 -18q102 0 171 24t111.5 74.5t60.5 130t18 190.5q0 43 -2.5 87t-8 97.5t-13.5 118.5t-19 150h199q11 -88 19 -154.5t13 -123.5q3 -29 14 -48t31.5 -30t50.5 -15t71 -4
q30 0 57.5 4.5t48.5 20t34 44.5t13 78v279h199v-210q0 -56 3.5 -96.5t19.5 -67t48.5 -39.5t90.5 -13q33 0 61 4.5t48 19.5t31.5 44t11.5 79v467h199v-392q0 -56 3 -98t19.5 -69.5t51 -41t97.5 -13.5v-245h-36q-85 0 -141.5 24t-87.5 81h-4q-25 -32 -55.5 -52t-63.5 -32
t-67.5 -16.5t-68.5 -4.5q-40 0 -78.5 5.5t-72.5 19t-62 36.5t-47 59h-6q-20 -30 -47 -52.5t-58.5 -37.5t-65.5 -22.5t-66 -7.5q-53 0 -95.5 13t-74.5 45l-7 -1q-8 -137 -44 -241t-103.5 -174t-168 -105.5t-237.5 -35.5t-231 35t-152.5 102.5t-84.5 166t-26 225.5
q0 35 2 70.5t6 74t10.5 82t16.5 94.5h195v0zM1548 -308h-222v203h222v-203zM1886 -308h-222v203h222v-203zM1717 -588h-223v203h223v-203zM1538 889h-222v203h222v-203zM1876 889h-222v203h222v-203zM1708 1169h-223v203h223v-203z" />
    <glyph glyph-name="uni069D.init" unicode="&#x69d;" horiz-adv-x="2052" 
d="M467 598q14 -84 24 -152.5t18 -126.5q2 -12 7 -27.5t17.5 -29t35 -24t59.5 -13.5q26 69 65.5 147.5t92 155.5t117.5 148t142.5 125t166.5 86t190 32q121 0 211 -40t149.5 -110.5t89 -168t29.5 -211.5q0 -101 -23 -171t-64.5 -116.5t-99.5 -73t-128.5 -39.5t-150.5 -16
t-166 -3q-180 0 -308.5 0.5t-216.5 4t-140.5 10t-80.5 18.5q-33 14 -56 37t-42 58h-4q-24 -35 -56 -58t-67 -37t-70 -19.5t-66 -5.5h-142q-35 0 -52.5 33.5t-17.5 89.5q0 55 17.5 88.5t52.5 33.5h149q33 0 61 7t49 20.5t32.5 32t11.5 42.5q0 42 -10 106.5t-31 166.5h205z
M1383 672q-104 0 -191 -39t-157 -102.5t-122.5 -145t-87.5 -166.5q30 -2 85.5 -2.5t119.5 -1t129 -0.5h114q123 0 202 4t125 20.5t64 49t18 89.5q0 75 -21.5 130.5t-60.5 91.5t-94 54t-123 18zM1101 -367h-222v203h222v-203zM1438 -367h-222v203h222v-203z" />
    <glyph glyph-name="uni069D.medi" unicode="&#x69d;" horiz-adv-x="2052" 
d="M467 598q14 -84 24 -152.5t18 -126.5q2 -12 7 -27.5t17.5 -29t35 -24t59.5 -13.5q26 69 65.5 147.5t92 155.5t117.5 148t142.5 125t166.5 86t190 32q118 0 207 -38.5t148.5 -107t90 -162.5t33.5 -204q1 -45 6 -79.5t22.5 -58t51 -35t91.5 -11.5v-245h-36q-42 0 -78 6
t-65.5 20.5t-52 38.5t-36.5 59h-6q-39 -48 -96.5 -75t-127 -39.5t-147.5 -15t-158 -2.5q-180 0 -308.5 0.5t-216.5 3.5t-140.5 10t-80.5 19q-32 14 -55.5 37t-42.5 58h-4q-25 -35 -57 -58t-66.5 -37t-69.5 -19.5t-66 -5.5h-142q-35 0 -52.5 33.5t-17.5 89.5q0 55 17.5 88.5
t52.5 33.5h149q33 0 61 7t49 20.5t32.5 32t11.5 42.5q0 42 -10 106.5t-31 166.5h205zM1383 672q-104 0 -191 -39t-157 -102.5t-122.5 -145t-87.5 -166.5q30 -2 85.5 -2.5t119.5 -1t129 -0.5h114q123 0 202 4t125 20.5t64 49t18 89.5q0 75 -21.5 130.5t-60.5 91.5t-94 54
t-123 18zM1101 -367h-222v203h222v-203zM1438 -367h-222v203h222v-203z" />
    <glyph glyph-name="uni069D.fina" unicode="&#x69d;" horiz-adv-x="2736" 
d="M373 329q-8 -56 -14 -100t-10 -79t-5.5 -64.5t-1.5 -57.5q0 -78 14 -135t48.5 -94t93 -55t147.5 -18q102 0 171 24t110 75.5t58.5 132.5t17.5 195q0 41 -2.5 87t-9 100t-17.5 117.5t-28 140.5h205q15 -84 24.5 -151t17.5 -118q3 -21 7.5 -37.5t16.5 -29.5t34 -22.5
t61 -14.5q26 69 65.5 147.5t92 155.5t117.5 148t142.5 125t167 86t190.5 32q118 0 207 -38.5t148 -107t90 -162.5t34 -204q1 -45 6 -79.5t22 -58t50.5 -35t92.5 -11.5v-245h-37q-42 0 -78 6t-65.5 20.5t-52 38.5t-36.5 59h-6q-39 -48 -96.5 -75t-127 -39.5t-147.5 -15
t-158 -2.5q-172 0 -286.5 0.5t-188.5 3.5t-116.5 9t-69.5 17q-22 8 -40.5 22t-33.5 31q-2 -1 -2.5 -1t-2.5 -1q-6 -141 -41.5 -248t-104 -179t-171 -108.5t-241.5 -36.5q-136 0 -230 35t-152 102t-83.5 165.5t-25.5 226.5q0 35 2 70.5t6 74.5t10.5 82t16.5 94h195zM2066 672
q-104 0 -191 -39t-157 -102.5t-122.5 -145t-87.5 -166.5q31 -2 86.5 -2.5t119.5 -1t129 -0.5h114q123 0 202 4t124.5 20.5t63.5 49t18 89.5q0 75 -21.5 130.5t-60.5 91.5t-94 54t-123 18zM1795 -367h-222v203h222v-203zM2132 -367h-222v203h222v-203z" />
    <glyph glyph-name="uni069E.init" unicode="&#x69e;" horiz-adv-x="2052" 
d="M467 598q14 -84 24 -152.5t18 -126.5q2 -12 7 -27.5t17.5 -29t35 -24t59.5 -13.5q26 69 65.5 147.5t92 155.5t117.5 148t142.5 125t166.5 86t190 32q121 0 211 -40t149.5 -110.5t89 -168t29.5 -211.5q0 -101 -23 -171t-64.5 -116.5t-99.5 -73t-128.5 -39.5t-150.5 -16
t-166 -3q-180 0 -308.5 0.5t-216.5 4t-140.5 10t-80.5 18.5q-33 14 -56 37t-42 58h-4q-24 -35 -56 -58t-67 -37t-70 -19.5t-66 -5.5h-142q-35 0 -52.5 33.5t-17.5 89.5q0 55 17.5 88.5t52.5 33.5h149q33 0 61 7t49 20.5t32.5 32t11.5 42.5q0 42 -10 106.5t-31 166.5h205z
M1383 672q-104 0 -191 -39t-157 -102.5t-122.5 -145t-87.5 -166.5q30 -2 85.5 -2.5t119.5 -1t129 -0.5h114q123 0 202 4t125 20.5t64 49t18 89.5q0 75 -21.5 130.5t-60.5 91.5t-94 54t-123 18zM986 1090h-222v203h222v-203zM1324 1090h-222v203h222v-203zM1156 1370h-223
v203h223v-203z" />
    <glyph glyph-name="uni069E.medi" unicode="&#x69e;" horiz-adv-x="2052" 
d="M467 598q14 -84 24 -152.5t18 -126.5q2 -12 7 -27.5t17.5 -29t35 -24t59.5 -13.5q26 69 65.5 147.5t92 155.5t117.5 148t142.5 125t166.5 86t190 32q118 0 207 -38.5t148.5 -107t90 -162.5t33.5 -204q1 -45 6 -79.5t22.5 -58t51 -35t91.5 -11.5v-245h-36q-42 0 -78 6
t-65.5 20.5t-52 38.5t-36.5 59h-6q-39 -48 -96.5 -75t-127 -39.5t-147.5 -15t-158 -2.5q-180 0 -308.5 0.5t-216.5 3.5t-140.5 10t-80.5 19q-32 14 -55.5 37t-42.5 58h-4q-25 -35 -57 -58t-66.5 -37t-69.5 -19.5t-66 -5.5h-142q-35 0 -52.5 33.5t-17.5 89.5q0 55 17.5 88.5
t52.5 33.5h149q33 0 61 7t49 20.5t32.5 32t11.5 42.5q0 42 -10 106.5t-31 166.5h205zM1383 672q-104 0 -191 -39t-157 -102.5t-122.5 -145t-87.5 -166.5q30 -2 85.5 -2.5t119.5 -1t129 -0.5h114q123 0 202 4t125 20.5t64 49t18 89.5q0 75 -21.5 130.5t-60.5 91.5t-94 54
t-123 18zM986 1090h-222v203h222v-203zM1324 1090h-222v203h222v-203zM1156 1370h-223v203h223v-203z" />
    <glyph glyph-name="uni069E.fina" unicode="&#x69e;" horiz-adv-x="2736" 
d="M373 329q-8 -56 -14 -100t-10 -79t-5.5 -64.5t-1.5 -57.5q0 -78 14 -135t48.5 -94t93 -55t147.5 -18q102 0 171 24t110 75.5t58.5 132.5t17.5 195q0 41 -2.5 87t-9 100t-17.5 117.5t-28 140.5h205q15 -84 24.5 -151t17.5 -118q3 -21 7.5 -37.5t16.5 -29.5t34 -22.5
t61 -14.5q26 69 65.5 147.5t92 155.5t117.5 148t142.5 125t167 86t190.5 32q118 0 207 -38.5t148 -107t90 -162.5t34 -204q1 -45 6 -79.5t22 -58t50.5 -35t92.5 -11.5v-245h-37q-42 0 -78 6t-65.5 20.5t-52 38.5t-36.5 59h-6q-39 -48 -96.5 -75t-127 -39.5t-147.5 -15
t-158 -2.5q-172 0 -286.5 0.5t-188.5 3.5t-116.5 9t-69.5 17q-22 8 -40.5 22t-33.5 31q-2 -1 -2.5 -1t-2.5 -1q-6 -141 -41.5 -248t-104 -179t-171 -108.5t-241.5 -36.5q-136 0 -230 35t-152 102t-83.5 165.5t-25.5 226.5q0 35 2 70.5t6 74.5t10.5 82t16.5 94h195zM2066 672
q-104 0 -191 -39t-157 -102.5t-122.5 -145t-87.5 -166.5q31 -2 86.5 -2.5t119.5 -1t129 -0.5h114q123 0 202 4t124.5 20.5t63.5 49t18 89.5q0 75 -21.5 130.5t-60.5 91.5t-94 54t-123 18zM1670 1090h-222v203h222v-203zM2008 1090h-222v203h222v-203zM1840 1370h-223v203
h223v-203z" />
    <glyph glyph-name="uni069F.init" unicode="&#x69f;" horiz-adv-x="1710" 
d="M512 1516v-904l5 -1q47 65 105.5 122.5t127 100t146.5 67.5t164 25q121 0 211 -40.5t149.5 -112t89 -170t29.5 -214.5q0 -101 -23 -171t-64.5 -116.5t-99.5 -73t-128.5 -39.5t-150.5 -16t-166 -3q-89 0 -195 1t-219.5 2.5t-228 3t-220.5 1.5h-44q-35 0 -52.5 33.5
t-17.5 89.5q0 55 17.5 88.5t52.5 33.5h301q4 13 12 30v1263h199zM484 219q30 -2 85.5 -2.5t119.5 -1t128.5 -0.5h113.5q123 0 202 4t125 20.5t64 49t18 89.5q0 77 -21.5 133.5t-60.5 94t-94 55.5t-123 18q-104 0 -191 -39.5t-156.5 -104t-122 -147.5t-87.5 -169zM939 1100
h-222v203h222v-203zM1277 1100h-222v203h222v-203zM1109 1380h-223v203h223v-203z" />
    <glyph glyph-name="uni069F.medi" unicode="&#x69f;" horiz-adv-x="1710" 
d="M512 1516v-904l5 -1q47 65 105.5 122.5t127 100t146.5 67.5t164 25q118 0 207 -39t148.5 -108.5t90 -164.5t33.5 -207q1 -45 6.5 -79.5t22.5 -58t50.5 -35t91.5 -11.5v-245h-24q-88 0 -148.5 27t-92.5 93h-6q-41 -47 -99 -72.5t-127.5 -38t-147 -15t-158.5 -2.5
q-89 0 -194.5 1t-218 2.5t-226.5 3t-220 1.5h-48q-35 0 -52.5 33.5t-17.5 89.5q0 55 17.5 88.5t52.5 33.5h298q3 9 6.5 17t8.5 18v1258h199zM484 219q30 -2 85.5 -2.5t119.5 -1t128.5 -0.5h113.5q123 0 202 4t125 20.5t64 49t18 89.5q0 77 -21.5 133.5t-60.5 94t-94 55.5
t-123 18q-104 0 -191 -39.5t-156.5 -104t-122 -147.5t-87.5 -169zM939 1100h-222v203h222v-203zM1277 1100h-222v203h222v-203zM1109 1380h-223v203h223v-203z" />
    <glyph glyph-name="uni069F.fina" unicode="&#x69f;" horiz-adv-x="1710" 
d="M512 1516v-904l5 -1q47 65 105.5 122.5t127 100t146.5 67.5t164 25q118 0 207 -39t148.5 -108.5t90 -164.5t33.5 -207q1 -45 6 -79.5t22.5 -58t51 -35t91.5 -11.5v-245h-28q-88 0 -146.5 26.5t-90.5 93.5h-6q-41 -47 -99 -73t-127.5 -38t-147.5 -14.5t-158 -2.5
q-179 0 -310.5 2t-231 6t-174.5 9.5t-141 12.5l-47 248q31 -6 67.5 -10t75.5 -7t79 -5t77 -3q2 7 4.5 13t6.5 14v1266h199zM484 219q31 -2 86 -2.5t119 -1t128.5 -0.5h113.5q123 0 202 4t125 20.5t64 49t18 89.5q0 77 -21.5 133.5t-60.5 94t-94 55.5t-123 18
q-104 0 -191 -39.5t-156.5 -104t-122 -147.5t-87.5 -169zM939 1100h-222v203h222v-203zM1277 1100h-222v203h222v-203zM1109 1380h-223v203h223v-203z" />
    <glyph glyph-name="uni06A0.init" unicode="&#x6a0;" horiz-adv-x="1198" 
d="M1086 160q-123 -54 -232.5 -89.5t-211.5 -56t-201 -28.5t-202 -8h-239q-35 0 -52.5 33.5t-17.5 89.5q0 55 17.5 88.5t52.5 33.5h288l2 6q-47 42 -76 82.5t-46 79.5t-23 76t-6 71q0 94 39 171.5t110 132.5t169.5 85.5t217.5 30.5q38 0 81.5 -3.5t98.5 -13.5v-248
q-54 9 -103 14t-99 5q-60 0 -116.5 -5.5t-100.5 -25t-71 -56.5t-27 -99q0 -20 8.5 -49.5t32.5 -65.5t68.5 -77t116.5 -85q62 12 123.5 28.5t125 37.5t131 48t142.5 61v-264zM483 1140h-222v203h222v-203zM821 1140h-222v203h222v-203zM653 1420h-223v203h223v-203z" />
    <glyph glyph-name="uni06A0.medi" unicode="&#x6a0;" horiz-adv-x="1197" 
d="M156 874q48 9 108.5 19t125.5 18.5t131 14.5t126 6t126.5 -9t123 -35t93 -74t36.5 -127q0 -40 -11 -89.5t-32 -102.5t-52.5 -107t-72.5 -103q75 -31 157 -46.5t182 -15.5v-245h-67q-135 0 -252 35.5t-213 107.5h-6q-102 -66 -233.5 -104.5t-303.5 -38.5h-122
q-35 0 -52.5 33.5t-17.5 89.5q0 55 17.5 88.5t52.5 33.5h132q105 0 186.5 14t149.5 39q-92 80 -167 168t-145 194v236zM376 675q60 -85 131 -155.5t159 -131.5h4q37 30 66.5 65t49.5 68.5t30.5 62t10.5 46.5q0 43 -49.5 60.5t-137.5 17.5q-62 0 -132.5 -6.5t-131.5 -17.5v-9
zM540 1140h-222v203h222v-203zM878 1140h-222v203h222v-203zM710 1420h-223v203h223v-203z" />
    <glyph glyph-name="uni06A0.fina" unicode="&#x6a0;" horiz-adv-x="1197" 
d="M1197 -22h-52q-88 0 -171 18.5t-161 53t-150.5 82t-138.5 106.5q-81 -36 -133 -73t-82 -74t-41.5 -72.5t-11.5 -68.5q0 -53 23.5 -98.5t73 -78.5t127.5 -52t187 -19q49 0 96.5 4t96 12.5t100.5 22t109 33.5v-234q-58 -19 -109 -32.5t-100 -21.5t-96.5 -12t-98.5 -4
q-152 0 -265.5 31.5t-189 91.5t-113 146t-37.5 195q0 67 16 129.5t52 120.5t95 111t146 103q-57 68 -111 146.5t-102 163.5v234q43 7 101 17.5t123.5 20t133.5 16t130 6.5q41 0 84.5 -3.5t85.5 -13t80 -26.5t66.5 -44t45 -65.5t16.5 -91.5q0 -38 -11.5 -88t-41.5 -105
t-83 -110.5t-136 -104.5q93 -63 202.5 -95t234.5 -32h10v-245zM376 745q45 -73 94 -135.5t103 -118.5q74 35 122.5 67t76.5 60t39 50.5t11 37.5q0 38 -47.5 55t-137.5 17q-63 0 -132 -6.5t-129 -17.5v-9zM540 1204h-222v203h222v-203zM878 1204h-222v203h222v-203zM710 1484
h-223v203h223v-203z" />
    <glyph glyph-name="uni06A1.init" unicode="&#x6a1;" horiz-adv-x="1026" 
d="M474 709q-27 0 -51 -18t-42 -45.5t-28.5 -59.5t-10.5 -59q0 -21 9.5 -47t38 -57.5t81.5 -68t141 -78.5q21 22 31.5 50.5t10.5 61.5q0 14 -1 28t-4 37q-5 37 -21.5 82t-40 83.5t-53 64.5t-60.5 26zM321 225q-94 58 -135 132.5t-41 165.5q0 50 12 102t34.5 101t53.5 91.5
t69 74.5t81 50.5t90 18.5q50 0 97.5 -23t88.5 -63.5t75 -95t58 -117.5t37.5 -131.5t13.5 -136.5q0 -98 -29.5 -167.5t-79.5 -115.5t-116.5 -72.5t-141.5 -40t-153.5 -17t-152.5 -3.5h-182q-35 0 -52.5 33.5t-17.5 89.5q0 55 17.5 88.5t52.5 33.5h129q20 0 47 -1l54 -2
t50.5 -2t37.5 -1z" />
    <glyph glyph-name="uni06A1.medi" unicode="&#x6a1;" horiz-adv-x="1026" 
d="M475 709q-27 0 -51 -18t-42.5 -45.5t-29 -59.5t-10.5 -59q0 -21 9.5 -47.5t38 -58t82 -68t141.5 -78.5q11 9 18.5 22t12.5 28t7.5 30.5t2.5 28.5q1 14 -0.5 29t-3.5 32q-6 40 -22.5 86.5t-40 86t-52.5 65.5t-60 26zM322 225q-94 58 -135.5 132.5t-41.5 165.5
q0 50 12.5 102t34.5 101t53.5 91.5t69 74.5t81 50.5t90.5 18.5q51 0 98 -23t88 -63.5t74.5 -95.5t58 -118t37.5 -131t13 -136q0 -48 -8 -88.5t-23 -74.5q22 -3 43.5 -4.5t45 -2t51 -1t62.5 -0.5v-245h-32q-44 0 -92 3.5t-97 10.5t-96 18t-88 27q-54 -22 -114 -34
t-119.5 -17.5t-116 -6.5t-104.5 -1h-167q-35 0 -52.5 33.5t-17.5 89.5q0 55 17.5 88.5t52.5 33.5h130q20 0 47 -1l54 -2t50.5 -2t37.5 -1z" />
    <glyph glyph-name="uni06A1.fina" unicode="&#x6a1;" horiz-adv-x="2052" 
d="M1500 709q-27 0 -51 -18t-42 -45t-28.5 -59t-10.5 -60q0 -21 9.5 -47t38 -57.5t81.5 -68t141 -78.5q11 9 19 22t12.5 28t7 30t3.5 28q1 14 -0.5 29t-3.5 32q-6 40 -22.5 86.5t-40.5 86t-53 65.5t-60 26zM374 650q-8 -33 -13.5 -61t-10 -53.5t-6.5 -50t-2 -50.5
q0 -49 11.5 -86t40.5 -62q28 -27 74.5 -41.5t116 -22t166.5 -9t226 -1.5h188q36 0 63 0.5t49 1t39.5 1t32.5 1.5l3 8q-94 58 -137.5 132.5t-43.5 165.5q0 50 12 102t34.5 101t53.5 91.5t69 74.5t81 50.5t90 18.5q51 0 98 -23t88 -63.5t75 -95.5t58 -118t37.5 -131t13.5 -136
q0 -48 -8 -88t-24 -75q22 -3 43.5 -4.5t45.5 -2t51.5 -1t62.5 -0.5v-245h-32q-44 0 -93 3.5t-98.5 10.5t-96.5 18t-86 26q-53 -23 -118 -36t-136.5 -19.5t-148 -8.5t-153.5 -2h-116q-129 0 -237 1.5t-196 11.5t-155.5 30t-116.5 58q-37 29 -62 65.5t-40 78t-21.5 86.5
t-6.5 90q0 68 10 132t26 127h199z" />
    <glyph glyph-name="uni06A2.init" unicode="&#x6a2;" horiz-adv-x="1026" 
d="M474 709q-27 0 -51 -18t-42 -45.5t-28.5 -59.5t-10.5 -59q0 -21 9.5 -47t38 -57.5t81.5 -68t141 -78.5q21 22 31.5 50.5t10.5 61.5q0 14 -1 28t-4 37q-5 37 -21.5 82t-40 83.5t-53 64.5t-60.5 26zM321 225q-94 58 -135 132.5t-41 165.5q0 50 12 102t34.5 101t53.5 91.5
t69 74.5t81 50.5t90 18.5q50 0 97.5 -23t88.5 -63.5t75 -95t58 -117.5t37.5 -131.5t13.5 -136.5q0 -98 -29.5 -167.5t-79.5 -115.5t-116.5 -72.5t-141.5 -40t-153.5 -17t-152.5 -3.5h-182q-35 0 -52.5 33.5t-17.5 89.5q0 55 17.5 88.5t52.5 33.5h129q20 0 47 -1l54 -2
t50.5 -2t37.5 -1zM638 -367h-223v203h223v-203z" />
    <glyph glyph-name="uni06A2.medi" unicode="&#x6a2;" horiz-adv-x="1026" 
d="M475 709q-27 0 -51 -18t-42.5 -45.5t-29 -59.5t-10.5 -59q0 -21 9.5 -47.5t38 -58t82 -68t141.5 -78.5q11 9 18.5 22t12.5 28t7.5 30.5t2.5 28.5q1 14 -0.5 29t-3.5 32q-6 40 -22.5 86.5t-40 86t-52.5 65.5t-60 26zM322 225q-94 58 -135.5 132.5t-41.5 165.5
q0 50 12.5 102t34.5 101t53.5 91.5t69 74.5t81 50.5t90.5 18.5q51 0 98 -23t88 -63.5t74.5 -95.5t58 -118t37.5 -131t13 -136q0 -48 -8 -88.5t-23 -74.5q22 -3 43.5 -4.5t45 -2t51 -1t62.5 -0.5v-245h-32q-44 0 -92 3.5t-97 10.5t-96 18t-88 27q-54 -22 -114 -34
t-119.5 -17.5t-116 -6.5t-104.5 -1h-167q-35 0 -52.5 33.5t-17.5 89.5q0 55 17.5 88.5t52.5 33.5h130q20 0 47 -1l54 -2t50.5 -2t37.5 -1zM638 -367h-223v203h223v-203z" />
    <glyph glyph-name="uni06A2.fina" unicode="&#x6a2;" horiz-adv-x="2052" 
d="M1500 709q-27 0 -51 -18t-42 -45t-28.5 -59t-10.5 -60q0 -21 9.5 -47t38 -57.5t81.5 -68t141 -78.5q11 9 19 22t12.5 28t7 30t3.5 28q1 14 -0.5 29t-3.5 32q-6 40 -22.5 86.5t-40.5 86t-53 65.5t-60 26zM374 650q-8 -33 -13.5 -61t-10 -53.5t-6.5 -50t-2 -50.5
q0 -49 11.5 -86t40.5 -62q28 -27 74.5 -41.5t116 -22t166.5 -9t226 -1.5h188q36 0 63 0.5t49 1t39.5 1t32.5 1.5l3 8q-94 58 -137.5 132.5t-43.5 165.5q0 50 12 102t34.5 101t53.5 91.5t69 74.5t81 50.5t90 18.5q51 0 98 -23t88 -63.5t75 -95.5t58 -118t37.5 -131t13.5 -136
q0 -48 -8 -88t-24 -75q22 -3 43.5 -4.5t45.5 -2t51.5 -1t62.5 -0.5v-245h-32q-44 0 -93 3.5t-98.5 10.5t-96.5 18t-86 26q-53 -23 -118 -36t-136.5 -19.5t-148 -8.5t-153.5 -2h-116q-129 0 -237 1.5t-196 11.5t-155.5 30t-116.5 58q-37 29 -62 65.5t-40 78t-21.5 86.5
t-6.5 90q0 68 10 132t26 127h199zM1664 -367h-223v203h223v-203z" />
    <glyph glyph-name="uni06A3.init" unicode="&#x6a3;" horiz-adv-x="1026" 
d="M474 709q-27 0 -51 -18t-42 -45.5t-28.5 -59.5t-10.5 -59q0 -21 9.5 -47t38 -57.5t81.5 -68t141 -78.5q21 22 31.5 50.5t10.5 61.5q0 14 -1 28t-4 37q-5 37 -21.5 82t-40 83.5t-53 64.5t-60.5 26zM321 225q-94 58 -135 132.5t-41 165.5q0 50 12 102t34.5 101t53.5 91.5
t69 74.5t81 50.5t90 18.5q50 0 97.5 -23t88.5 -63.5t75 -95t58 -117.5t37.5 -131.5t13.5 -136.5q0 -98 -29.5 -167.5t-79.5 -115.5t-116.5 -72.5t-141.5 -40t-153.5 -17t-152.5 -3.5h-182q-35 0 -52.5 33.5t-17.5 89.5q0 55 17.5 88.5t52.5 33.5h129q20 0 47 -1l54 -2
t50.5 -2t37.5 -1zM638 -367h-223v203h223v-203zM571 1204h-223v203h223v-203z" />
    <glyph glyph-name="uni06A3.medi" unicode="&#x6a3;" horiz-adv-x="1026" 
d="M475 709q-27 0 -51 -18t-42.5 -45.5t-29 -59.5t-10.5 -59q0 -21 9.5 -47.5t38 -58t82 -68t141.5 -78.5q11 9 18.5 22t12.5 28t7.5 30.5t2.5 28.5q1 14 -0.5 29t-3.5 32q-6 40 -22.5 86.5t-40 86t-52.5 65.5t-60 26zM322 225q-94 58 -135.5 132.5t-41.5 165.5
q0 50 12.5 102t34.5 101t53.5 91.5t69 74.5t81 50.5t90.5 18.5q51 0 98 -23t88 -63.5t74.5 -95.5t58 -118t37.5 -131t13 -136q0 -48 -8 -88.5t-23 -74.5q22 -3 43.5 -4.5t45 -2t51 -1t62.5 -0.5v-245h-32q-44 0 -92 3.5t-97 10.5t-96 18t-88 27q-54 -22 -114 -34
t-119.5 -17.5t-116 -6.5t-104.5 -1h-167q-35 0 -52.5 33.5t-17.5 89.5q0 55 17.5 88.5t52.5 33.5h130q20 0 47 -1l54 -2t50.5 -2t37.5 -1zM638 -367h-223v203h223v-203zM571 1204h-223v203h223v-203z" />
    <glyph glyph-name="uni06A3.fina" unicode="&#x6a3;" horiz-adv-x="2052" 
d="M1500 709q-27 0 -51 -18t-42 -45t-28.5 -59t-10.5 -60q0 -21 9.5 -47t38 -57.5t81.5 -68t141 -78.5q11 9 19 22t12.5 28t7 30t3.5 28q1 14 -0.5 29t-3.5 32q-6 40 -22.5 86.5t-40.5 86t-53 65.5t-60 26zM374 650q-8 -33 -13.5 -61t-10 -53.5t-6.5 -50t-2 -50.5
q0 -49 11.5 -86t40.5 -62q28 -27 74.5 -41.5t116 -22t166.5 -9t226 -1.5h188q36 0 63 0.5t49 1t39.5 1t32.5 1.5l3 8q-94 58 -137.5 132.5t-43.5 165.5q0 50 12 102t34.5 101t53.5 91.5t69 74.5t81 50.5t90 18.5q51 0 98 -23t88 -63.5t75 -95.5t58 -118t37.5 -131t13.5 -136
q0 -48 -8 -88t-24 -75q22 -3 43.5 -4.5t45.5 -2t51.5 -1t62.5 -0.5v-245h-32q-44 0 -93 3.5t-98.5 10.5t-96.5 18t-86 26q-53 -23 -118 -36t-136.5 -19.5t-148 -8.5t-153.5 -2h-116q-129 0 -237 1.5t-196 11.5t-155.5 30t-116.5 58q-37 29 -62 65.5t-40 78t-21.5 86.5
t-6.5 90q0 68 10 132t26 127h199zM1110 -367h-223v203h223v-203zM1594 1204h-223v203h223v-203z" />
    <glyph glyph-name="uni06A4" unicode="&#x6a4;" horiz-adv-x="2052" arabic-form="isolated" 
d="M374 650q-8 -33 -13.5 -61t-10 -53.5t-6.5 -50t-2 -50.5q0 -54 14.5 -93.5t49.5 -65.5t94 -39t149.5 -18.5t216 -5.5h294.5q36 0 63 0.5t49 1t39.5 1t32.5 1.5l3 8q-94 58 -137.5 132.5t-43.5 165.5q0 50 12.5 102t35.5 101t54.5 91.5t70 74.5t82 50.5t90.5 18.5
q51 0 98 -23t88 -64t75 -95.5t58 -117.5t37.5 -131.5t13.5 -135.5q0 -96 -27.5 -165t-78 -116.5t-122 -75.5t-159.5 -43t-190 -19.5t-214 -4.5h-116q-129 0 -237 1.5t-196 11.5t-155.5 30t-116.5 58q-38 29 -63 66t-40 78.5t-21 86t-6 89.5q0 68 10 132t26 127h199z
M1500 709q-27 0 -52 -18t-43.5 -45t-30 -59t-11.5 -60q0 -21 10 -47.5t39.5 -57.5t83.5 -67.5t142 -78.5q11 9 18.5 22t12.5 28t7.5 30t3.5 28q1 14 -0.5 29t-3.5 32q-6 40 -22.5 86.5t-40.5 86t-53 65.5t-60 26zM1424 1204h-222v203h222v-203zM1762 1204h-222v203h222v-203
zM1594 1484h-223v203h223v-203z" />
    <glyph glyph-name="uni06A5.init" unicode="&#x6a5;" horiz-adv-x="1026" 
d="M474 709q-27 0 -51 -18t-42 -45.5t-28.5 -59.5t-10.5 -59q0 -21 9.5 -47t38 -57.5t81.5 -68t141 -78.5q21 22 31.5 50.5t10.5 61.5q0 14 -1 28t-4 37q-5 37 -21.5 82t-40 83.5t-53 64.5t-60.5 26zM321 225q-94 58 -135 132.5t-41 165.5q0 50 12 102t34.5 101t53.5 91.5
t69 74.5t81 50.5t90 18.5q50 0 97.5 -23t88.5 -63.5t75 -95t58 -117.5t37.5 -131.5t13.5 -136.5q0 -98 -29.5 -167.5t-79.5 -115.5t-116.5 -72.5t-141.5 -40t-153.5 -17t-152.5 -3.5h-182q-35 0 -52.5 33.5t-17.5 89.5q0 55 17.5 88.5t52.5 33.5h129q20 0 47 -1l54 -2
t50.5 -2t37.5 -1zM468 -308h-222v203h222v-203zM806 -308h-222v203h222v-203zM637 -588h-223v203h223v-203z" />
    <glyph glyph-name="uni06A5.medi" unicode="&#x6a5;" horiz-adv-x="1026" 
d="M475 709q-27 0 -51 -18t-42.5 -45.5t-29 -59.5t-10.5 -59q0 -21 9.5 -47.5t38 -58t82 -68t141.5 -78.5q11 9 18.5 22t12.5 28t7.5 30.5t2.5 28.5q1 14 -0.5 29t-3.5 32q-6 40 -22.5 86.5t-40 86t-52.5 65.5t-60 26zM322 225q-94 58 -135.5 132.5t-41.5 165.5
q0 50 12.5 102t34.5 101t53.5 91.5t69 74.5t81 50.5t90.5 18.5q51 0 98 -23t88 -63.5t74.5 -95.5t58 -118t37.5 -131t13 -136q0 -48 -8 -88.5t-23 -74.5q22 -3 43.5 -4.5t45 -2t51 -1t62.5 -0.5v-245h-32q-44 0 -92 3.5t-97 10.5t-96 18t-88 27q-54 -22 -114 -34
t-119.5 -17.5t-116 -6.5t-104.5 -1h-167q-35 0 -52.5 33.5t-17.5 89.5q0 55 17.5 88.5t52.5 33.5h130q20 0 47 -1l54 -2t50.5 -2t37.5 -1zM468 -308h-222v203h222v-203zM806 -308h-222v203h222v-203zM637 -588h-223v203h223v-203z" />
    <glyph glyph-name="uni06A5.fina" unicode="&#x6a5;" horiz-adv-x="2052" 
d="M1500 709q-27 0 -51 -18t-42 -45t-28.5 -59t-10.5 -60q0 -21 9.5 -47t38 -57.5t81.5 -68t141 -78.5q11 9 19 22t12.5 28t7 30t3.5 28q1 14 -0.5 29t-3.5 32q-6 40 -22.5 86.5t-40.5 86t-53 65.5t-60 26zM374 650q-8 -33 -13.5 -61t-10 -53.5t-6.5 -50t-2 -50.5
q0 -49 11.5 -86t40.5 -62q28 -27 74.5 -41.5t116 -22t166.5 -9t226 -1.5h188q36 0 63 0.5t49 1t39.5 1t32.5 1.5l3 8q-94 58 -137.5 132.5t-43.5 165.5q0 50 12 102t34.5 101t53.5 91.5t69 74.5t81 50.5t90 18.5q51 0 98 -23t88 -63.5t75 -95.5t58 -118t37.5 -131t13.5 -136
q0 -48 -8 -88t-24 -75q22 -3 43.5 -4.5t45.5 -2t51.5 -1t62.5 -0.5v-245h-32q-44 0 -93 3.5t-98.5 10.5t-96.5 18t-86 26q-53 -23 -118 -36t-136.5 -19.5t-148 -8.5t-153.5 -2h-116q-129 0 -237 1.5t-196 11.5t-155.5 30t-116.5 58q-37 29 -62 65.5t-40 78t-21.5 86.5
t-6.5 90q0 68 10 132t26 127h199zM1494 -308h-222v203h222v-203zM1832 -308h-222v203h222v-203zM1663 -588h-223v203h223v-203z" />
    <glyph glyph-name="uni06A6" unicode="&#x6a6;" horiz-adv-x="2052" arabic-form="isolated" 
d="M374 650q-8 -33 -13.5 -61t-10 -53.5t-6.5 -50t-2 -50.5q0 -54 14.5 -93.5t49.5 -65.5t94 -39t149.5 -18.5t216 -5.5h294.5q36 0 63 0.5t49 1t39.5 1t32.5 1.5l3 8q-94 58 -137.5 132.5t-43.5 165.5q0 50 12.5 102t35.5 101t54.5 91.5t70 74.5t82 50.5t90.5 18.5
q51 0 98 -23t88 -64t75 -95.5t58 -117.5t37.5 -131.5t13.5 -135.5q0 -96 -27.5 -165t-78 -116.5t-122 -75.5t-159.5 -43t-190 -19.5t-214 -4.5h-116q-129 0 -237 1.5t-196 11.5t-155.5 30t-116.5 58q-38 29 -63 66t-40 78.5t-21 86t-6 89.5q0 68 10 132t26 127h199z
M1500 709q-27 0 -52 -18t-43.5 -45t-30 -59t-11.5 -60q0 -21 10 -47.5t39.5 -57.5t83.5 -67.5t142 -78.5q11 9 18.5 22t12.5 28t7.5 30t3.5 28q1 14 -0.5 29t-3.5 32q-6 40 -22.5 86.5t-40.5 86t-53 65.5t-60 26zM1424 1204h-222v203h222v-203zM1762 1204h-222v203h222v-203
zM1424 1484h-222v203h222v-203zM1762 1484h-222v203h222v-203z" />
    <glyph glyph-name="uni06A7.init" unicode="&#x6a7;" horiz-adv-x="1026" 
d="M474 709q-27 0 -51 -18t-42 -45.5t-28.5 -59.5t-10.5 -59q0 -21 9.5 -47t38 -57.5t81.5 -68t141 -78.5q21 22 31.5 50.5t10.5 61.5q0 14 -1 28t-4 37q-5 37 -21.5 82t-40 83.5t-53 64.5t-60.5 26zM321 225q-94 58 -135 132.5t-41 165.5q0 50 12 102t34.5 101t53.5 91.5
t69 74.5t81 50.5t90 18.5q50 0 97.5 -23t88.5 -63.5t75 -95t58 -117.5t37.5 -131.5t13.5 -136.5q0 -98 -29.5 -167.5t-79.5 -115.5t-116.5 -72.5t-141.5 -40t-153.5 -17t-152.5 -3.5h-182q-35 0 -52.5 33.5t-17.5 89.5q0 55 17.5 88.5t52.5 33.5h129q20 0 47 -1l54 -2
t50.5 -2t37.5 -1zM571 1204h-223v203h223v-203z" />
    <glyph glyph-name="uni06A7.medi" unicode="&#x6a7;" horiz-adv-x="1026" 
d="M475 709q-27 0 -51 -18t-42.5 -45.5t-29 -59.5t-10.5 -59q0 -21 9.5 -47.5t38 -58t82 -68t141.5 -78.5q11 9 18.5 22t12.5 28t7.5 30.5t2.5 28.5q1 14 -0.5 29t-3.5 32q-6 40 -22.5 86.5t-40 86t-52.5 65.5t-60 26zM322 225q-94 58 -135.5 132.5t-41.5 165.5
q0 50 12.5 102t34.5 101t53.5 91.5t69 74.5t81 50.5t90.5 18.5q51 0 98 -23t88 -63.5t74.5 -95.5t58 -118t37.5 -131t13 -136q0 -48 -8 -88.5t-23 -74.5q22 -3 43.5 -4.5t45 -2t51 -1t62.5 -0.5v-245h-32q-44 0 -92 3.5t-97 10.5t-96 18t-88 27q-54 -22 -114 -34
t-119.5 -17.5t-116 -6.5t-104.5 -1h-167q-35 0 -52.5 33.5t-17.5 89.5q0 55 17.5 88.5t52.5 33.5h130q20 0 47 -1l54 -2t50.5 -2t37.5 -1zM571 1204h-223v203h223v-203z" />
    <glyph glyph-name="uni06A7.fina" unicode="&#x6a7;" horiz-adv-x="1539" 
d="M1068 -19q-195 0 -301.5 89t-106.5 255q0 51 12.5 103.5t34.5 101.5t53.5 91.5t69 74t80.5 50t89 18.5q77 0 139 -43.5t119 -134.5q45 -72 72 -164t37 -199h173v-245h-173q-15 -132 -61.5 -226t-126 -155t-191.5 -89.5t-257 -28.5q-157 0 -269 32.5t-183.5 98.5
t-105 165.5t-33.5 233.5q0 64 7.5 136t24.5 165h199q-8 -51 -13.5 -91t-8.5 -73t-4.5 -59.5t-1.5 -49.5q0 -78 17.5 -136.5t62.5 -98t122 -59.5t197 -20q126 0 205.5 21t126.5 56t67.5 82t27.5 99h-100zM1146 316q-12 37 -29 72t-36.5 63t-42.5 45t-47 17q-27 0 -51.5 -17.5
t-43 -43.5t-30 -56t-11.5 -55q0 -68 52 -95t155 -27h105q-4 23 -8.5 48.5t-12.5 48.5zM1082 1013h-223v203h223v-203z" />
    <glyph glyph-name="uni06A8.init" unicode="&#x6a8;" horiz-adv-x="1026" 
d="M474 709q-27 0 -51 -18t-42 -45.5t-28.5 -59.5t-10.5 -59q0 -21 9.5 -47t38 -57.5t81.5 -68t141 -78.5q21 22 31.5 50.5t10.5 61.5q0 14 -1 28t-4 37q-5 37 -21.5 82t-40 83.5t-53 64.5t-60.5 26zM321 225q-94 58 -135 132.5t-41 165.5q0 50 12 102t34.5 101t53.5 91.5
t69 74.5t81 50.5t90 18.5q50 0 97.5 -23t88.5 -63.5t75 -95t58 -117.5t37.5 -131.5t13.5 -136.5q0 -98 -29.5 -167.5t-79.5 -115.5t-116.5 -72.5t-141.5 -40t-153.5 -17t-152.5 -3.5h-182q-35 0 -52.5 33.5t-17.5 89.5q0 55 17.5 88.5t52.5 33.5h129q20 0 47 -1l54 -2
t50.5 -2t37.5 -1zM401 1204h-222v203h222v-203zM739 1204h-222v203h222v-203zM571 1484h-223v203h223v-203z" />
    <glyph glyph-name="uni06A8.medi" unicode="&#x6a8;" horiz-adv-x="1026" 
d="M475 709q-27 0 -51 -18t-42.5 -45.5t-29 -59.5t-10.5 -59q0 -21 9.5 -47.5t38 -58t82 -68t141.5 -78.5q11 9 18.5 22t12.5 28t7.5 30.5t2.5 28.5q1 14 -0.5 29t-3.5 32q-6 40 -22.5 86.5t-40 86t-52.5 65.5t-60 26zM322 225q-94 58 -135.5 132.5t-41.5 165.5
q0 50 12.5 102t34.5 101t53.5 91.5t69 74.5t81 50.5t90.5 18.5q51 0 98 -23t88 -63.5t74.5 -95.5t58 -118t37.5 -131t13 -136q0 -48 -8 -88.5t-23 -74.5q22 -3 43.5 -4.5t45 -2t51 -1t62.5 -0.5v-245h-32q-44 0 -92 3.5t-97 10.5t-96 18t-88 27q-54 -22 -114 -34
t-119.5 -17.5t-116 -6.5t-104.5 -1h-167q-35 0 -52.5 33.5t-17.5 89.5q0 55 17.5 88.5t52.5 33.5h130q20 0 47 -1l54 -2t50.5 -2t37.5 -1zM401 1204h-222v203h222v-203zM739 1204h-222v203h222v-203zM571 1484h-223v203h223v-203z" />
    <glyph glyph-name="uni06A8.fina" unicode="&#x6a8;" horiz-adv-x="1539" 
d="M1068 -19q-195 0 -301.5 89t-106.5 255q0 51 12.5 103.5t34.5 101.5t53.5 91.5t69 74t80.5 50t89 18.5q77 0 139 -43.5t119 -134.5q45 -72 72 -164t37 -199h173v-245h-173q-15 -132 -61.5 -226t-126 -155t-191.5 -89.5t-257 -28.5q-157 0 -269 32.5t-183.5 98.5
t-105 165.5t-33.5 233.5q0 64 7.5 136t24.5 165h199q-8 -51 -13.5 -91t-8.5 -73t-4.5 -59.5t-1.5 -49.5q0 -78 17.5 -136.5t62.5 -98t122 -59.5t197 -20q126 0 205.5 21t126.5 56t67.5 82t27.5 99h-100zM1146 316q-12 37 -29 72t-36.5 63t-42.5 45t-47 17q-27 0 -51.5 -17.5
t-43 -43.5t-30 -56t-11.5 -55q0 -68 52 -95t155 -27h105q-4 23 -8.5 48.5t-12.5 48.5zM912 1013h-222v203h222v-203zM1250 1013h-222v203h222v-203zM1082 1293h-223v203h223v-203z" />
    <glyph glyph-name="uni06A9" unicode="&#x6a9;" horiz-adv-x="1881" arabic-form="isolated" 
d="M1726 1623v-260l-623 -383q125 -62 229 -128.5t178.5 -142t116 -162t41.5 -187.5q0 -41 -9.5 -91t-37.5 -99t-79.5 -91.5t-135.5 -67.5q-91 -27 -225 -34t-317 -7q-96 0 -184.5 2.5t-165.5 13t-140.5 32t-110.5 59.5q-35 28 -58.5 63.5t-38 77t-21 86t-6.5 90.5
q0 65 10 130.5t26 125.5h199q-8 -33 -13.5 -61t-10 -53.5t-6.5 -50t-2 -50.5q0 -52 13.5 -89.5t45.5 -63.5q28 -24 74 -37.5t113.5 -20.5t159.5 -8.5t212 -1.5q127 0 226 3.5t165 21.5q40 11 63.5 24.5t35 28.5t14.5 31t3 31q0 58 -39 117.5t-116 122t-191.5 129
t-265.5 139.5v206z" />
    <glyph glyph-name="uni06AA.init" unicode="&#x6aa;" horiz-adv-x="2052" 
d="M999 932q-127 -22 -243 -53.5t-204.5 -68.5t-141 -76t-52.5 -76q0 -14 10.5 -21.5t44.5 -12t97.5 -5.5t169.5 -1h895q72 0 138 -22.5t117 -65t81 -104t30 -139.5q0 -39 -8 -80.5t-24.5 -81t-42 -74.5t-59.5 -59q-56 -5 -147 -9t-208 -7t-254 -4.5t-285 -1.5
q-81 0 -171.5 0.5t-180 1.5t-174.5 2t-155.5 2t-121.5 1.5t-74 0.5h-36q-35 0 -52.5 33.5t-17.5 89.5q0 55 17.5 88.5t52.5 33.5h48q32 0 117.5 -1.5t211 -4t284.5 -4t339 -1.5q132 0 242 0.5t201 2.5t165 4.5t135 7.5q0 9 1 17t1 16q0 34 -15.5 58t-42 39t-60.5 22t-70 7
h-1012q-92 0 -162 9t-117 33t-71 65.5t-24 105.5q0 97 55.5 187t161.5 165.5t260 134t351 91.5v-245z" />
    <glyph glyph-name="uni06AA.medi" unicode="&#x6aa;" horiz-adv-x="2052" 
d="M999 932q-127 -22 -243 -53.5t-204.5 -68.5t-141 -76t-52.5 -76q0 -14 10.5 -21.5t44.5 -12t97.5 -5.5t169.5 -1h895q72 0 138 -22.5t117 -65t81 -104t30 -139.5q0 -14 -1.5 -29t-3.5 -30q27 -3 54 -4t62 -1v-245h-24q-54 0 -87.5 21t-61.5 64h-6q-28 -43 -66 -71
q-56 -5 -147 -9t-208 -7t-254 -4.5t-285 -1.5q-81 0 -171.5 0.5t-180 1.5t-174.5 2t-155.5 2t-121.5 1.5t-74 0.5h-36q-35 0 -52.5 33.5t-17.5 89.5q0 55 17.5 88.5t52.5 33.5h48q32 0 117.5 -1.5t211 -4t284.5 -4t339 -1.5q132 0 242 0.5t201 2.5t165 4.5t135 7.5
q1 8 1.5 14t0.5 13q0 39 -15.5 64.5t-41.5 40.5t-60 21t-71 6h-1012q-92 0 -162 9t-117 33t-71 65.5t-24 105.5q0 97 55.5 187t161.5 165.5t260 134t351 91.5v-245z" />
    <glyph glyph-name="uni06AA.fina" unicode="&#x6aa;" horiz-adv-x="2223" 
d="M1170 932q-127 -22 -243 -53.5t-204.5 -68.5t-141 -76t-52.5 -76q0 -14 10.5 -21.5t44.5 -12t97.5 -5.5t169.5 -1h895q72 0 138 -22.5t117 -65t81 -104t30 -139.5q0 -14 -1.5 -29t-3.5 -30q28 -3 54.5 -4t61.5 -1v-245h-24q-54 0 -87.5 21t-61.5 64h-6q-26 -42 -66 -71
q-57 -5 -148 -9t-208 -7t-255.5 -4.5t-291.5 -1.5q-77 0 -169 0.5t-189 2t-194 4t-184 5.5t-160 7.5t-121 10.5l-49 243q79 -10 199 -16t269.5 -9.5t323.5 -4.5t360 -1q135 0 245.5 0.5t202 2t166.5 4.5t139 8q1 6 1.5 11.5t0.5 12.5q0 33 -15.5 58t-41 42t-60 26t-71.5 9
h-1012q-92 0 -162 9t-117 33t-71 65.5t-24 105.5q0 97 55.5 187t161.5 166t260 134t351 91v-245z" />
    <glyph glyph-name="uni06AB.init" unicode="&#x6ab;" horiz-adv-x="1026" 
d="M871 1623v-260l-623 -383q124 -61 228 -127.5t179 -142t116.5 -162t41.5 -186.5q0 -40 -7.5 -84t-28 -87t-56.5 -81.5t-94 -67.5t-140.5 -46.5t-195.5 -17.5h-291q-35 0 -52.5 33.5t-17.5 89.5q0 55 17.5 88.5t52.5 33.5h294q93 0 154 6t97.5 20.5t51.5 39.5t15 63
q0 60 -39 119.5t-116.5 122t-192 129t-264.5 139.5v206zM624 1274q35 0 65.5 -13t53.5 -35.5t36 -54t13 -67.5q0 -35 -13 -65t-36 -53t-53.5 -36t-65.5 -13q-37 0 -68.5 13t-54.5 36t-36 53t-13 65q0 36 13 67.5t35.5 54t54 35.5t69.5 13zM624 1020q33 0 55 24.5t22 59.5
q0 38 -22 62.5t-55 24.5q-36 0 -58.5 -24.5t-22.5 -62.5q0 -35 22.5 -59.5t58.5 -24.5z" />
    <glyph glyph-name="uni06AB.medi" unicode="&#x6ab;" horiz-adv-x="1026" 
d="M871 1623v-260l-623 -383q127 -63 226 -126.5t169.5 -132.5t112.5 -145t54 -164q5 -29 13 -58.5t31 -58.5q10 -14 24 -26.5t34.5 -23t48.5 -16.5t65 -6v-245h-22q-38 0 -76 8.5t-72.5 26.5t-64.5 46.5t-52 69.5h-6q-25 -33 -63 -60.5t-92 -47.5t-125 -31.5t-162 -11.5
h-291q-35 0 -52.5 33.5t-17.5 89.5q0 55 17.5 88.5t52.5 33.5h294q93 0 154 6t97.5 20.5t51.5 39.5t15 63q0 60 -39 119.5t-116.5 122t-192 129t-264.5 139.5v206zM624 1274q35 0 65.5 -13t53.5 -35.5t36 -54t13 -67.5q0 -35 -13 -65t-36 -53t-53.5 -36t-65.5 -13
q-37 0 -68.5 13t-54.5 36t-36 53t-13 65q0 36 13 67.5t35.5 54t54 35.5t69.5 13zM624 1020q33 0 55 24.5t22 59.5q0 38 -22 62.5t-55 24.5q-36 0 -58.5 -24.5t-22.5 -62.5q0 -35 22.5 -59.5t58.5 -24.5z" />
    <glyph glyph-name="uni06AB.fina" unicode="&#x6ab;" horiz-adv-x="1881" 
d="M1726 1623v-260l-623 -383q127 -62 226 -126t169.5 -133t112 -145.5t54.5 -163.5q6 -39 19.5 -73t39 -59.5t64 -40.5t93.5 -16v-245h-22q-38 0 -76 8.5t-72.5 26.5t-64.5 46.5t-52 69.5h-6q-35 -43 -79.5 -71.5t-104.5 -46.5q-46 -14 -101 -22t-121.5 -12.5t-145.5 -5.5
t-172 -1q-96 0 -184.5 2.5t-165.5 13t-141 32t-110 59.5q-35 28 -58.5 63.5t-38 76.5t-21 86t-6.5 91q0 65 10 130.5t26 125.5h199q-7 -33 -13 -61.5t-10 -54t-6.5 -49.5t-2.5 -50q0 -54 14.5 -93t49.5 -65q30 -22 76 -34.5t113 -19t157 -8t208 -1.5q128 0 226.5 3.5
t164.5 21.5q40 11 63.5 24.5t35 28.5t14.5 31t3 31q0 117 -155.5 240t-456.5 268v206zM1479 1274q35 0 65.5 -13t53.5 -35.5t36 -54t13 -67.5q0 -35 -13 -65t-36 -53t-53.5 -36t-65.5 -13q-37 0 -68.5 13t-54.5 36t-36 53t-13 65q0 36 13 67.5t35.5 54t54 35.5t69.5 13z
M1479 1020q33 0 55 24.5t22 59.5q0 38 -22 62.5t-55 24.5q-36 0 -58.5 -24.5t-22.5 -62.5q0 -35 22.5 -59.5t58.5 -24.5z" />
    <glyph glyph-name="uni06AC.init" unicode="&#x6ac;" horiz-adv-x="1026" 
d="M871 1623v-260l-623 -383q124 -61 228 -127.5t179 -142t116.5 -162t41.5 -186.5q0 -40 -7.5 -84t-28 -87t-56.5 -81.5t-94 -67.5t-140.5 -46.5t-195.5 -17.5h-291q-35 0 -52.5 33.5t-17.5 89.5q0 55 17.5 88.5t52.5 33.5h294q93 0 154 6t97.5 20.5t51.5 39.5t15 63
q0 60 -39 119.5t-116.5 122t-192 129t-264.5 139.5v206zM415 1523h-223v203h223v-203z" />
    <glyph glyph-name="uni06AC.medi" unicode="&#x6ac;" horiz-adv-x="1026" 
d="M871 1623v-260l-623 -383q127 -63 226 -126.5t169.5 -132.5t112.5 -145t54 -164q5 -29 13 -58.5t31 -58.5q10 -14 24 -26.5t34.5 -23t48.5 -16.5t65 -6v-245h-22q-38 0 -76 8.5t-72.5 26.5t-64.5 46.5t-52 69.5h-6q-25 -33 -63 -60.5t-92 -47.5t-125 -31.5t-162 -11.5
h-291q-35 0 -52.5 33.5t-17.5 89.5q0 55 17.5 88.5t52.5 33.5h294q93 0 154 6t97.5 20.5t51.5 39.5t15 63q0 60 -39 119.5t-116.5 122t-192 129t-264.5 139.5v206zM415 1523h-223v203h223v-203z" />
    <glyph glyph-name="uni06AC.fina" unicode="&#x6ac;" horiz-adv-x="1710" 
d="M684 710q180 10 180 66q0 8 -12 19.5t-48 27.5q-43 20 -66.5 47t-23.5 73q0 40 25 73t68 57.5t99.5 41.5t119.5 26v-120q-92 -12 -133.5 -30.5t-41.5 -43.5q0 -12 14 -23.5t57 -29.5q40 -18 59.5 -42t19.5 -68q0 -33 -19.5 -65.5t-58.5 -60t-98.5 -46t-140.5 -22.5v120z
M374 650q-7 -33 -13 -61.5t-10 -54t-6.5 -49.5t-2.5 -50q0 -24 2.5 -45.5t9.5 -41t19.5 -37t32.5 -32.5q26 -20 65 -33t97.5 -20.5t140.5 -10t196 -2.5q126 0 209.5 4t134 20.5t71 51t20.5 95.5v1132h199v-1077q0 -56 3 -96.5t19.5 -67t51 -39.5t97.5 -13v-245h-40
q-89 0 -146 29t-87 90h-6q-42 -45 -100.5 -70.5t-129.5 -38t-152.5 -15.5t-169.5 -3q-99 0 -190.5 2.5t-171 13t-144.5 31.5t-111 59q-35 28 -58.5 64t-38 77t-20.5 85.5t-6 88.5q0 68 10 132t26 127h199zM995 1523h-223v203h223v-203z" />
    <glyph glyph-name="uni06AD" unicode="&#x6ad;" horiz-adv-x="1710" arabic-form="isolated" 
d="M374 650q-7 -33 -13 -61.5t-10 -54t-6.5 -49.5t-2.5 -50q0 -24 2.5 -45.5t9.5 -41t19.5 -37t32.5 -32.5q26 -20 65 -33t97.5 -20.5t141 -10t195.5 -2.5q126 0 209.5 4t134 20.5t71 51t20.5 95.5v1132h199v-1139q0 -95 -23.5 -162.5t-67 -112.5t-104 -71.5t-133.5 -40
t-157.5 -17t-174.5 -3.5q-99 0 -190.5 2.5t-170.5 13t-144 32t-111 59.5q-35 28 -58.5 64t-38 76.5t-21 85t-6.5 88.5q0 68 10 132t26 127h199zM685 710q180 10 180 66q0 14 -19 23t-51 26q-35 19 -57.5 45.5t-22.5 72.5q0 40 25 73t67.5 57.5t99 41.5t119.5 26v-120
q-92 -12 -133 -30.5t-41 -44.5q0 -16 18.5 -26t50.5 -25q38 -18 59.5 -43t21.5 -68q0 -33 -19.5 -65.5t-58.5 -60t-98.5 -46t-140.5 -22.5v120zM825 1523h-222v203h222v-203zM1163 1523h-222v203h222v-203zM995 1803h-223v203h223v-203z" />
    <glyph glyph-name="uni06AE.init" unicode="&#x6ae;" horiz-adv-x="1026" 
d="M871 1623v-260l-623 -383q124 -61 228 -127.5t179 -142t116.5 -162t41.5 -186.5q0 -40 -7.5 -84t-28 -87t-56.5 -81.5t-94 -67.5t-140.5 -46.5t-195.5 -17.5h-291q-35 0 -52.5 33.5t-17.5 89.5q0 55 17.5 88.5t52.5 33.5h294q93 0 154 6t97.5 20.5t51.5 39.5t15 63
q0 60 -39 119.5t-116.5 122t-192 129t-264.5 139.5v206zM369 -308h-222v203h222v-203zM707 -308h-222v203h222v-203zM538 -588h-223v203h223v-203z" />
    <glyph glyph-name="uni06AE.medi" unicode="&#x6ae;" horiz-adv-x="1026" 
d="M871 1623v-260l-623 -383q127 -63 226 -126.5t169.5 -132.5t112.5 -145t54 -164q5 -29 13 -58.5t31 -58.5q10 -14 24 -26.5t34.5 -23t48.5 -16.5t65 -6v-245h-22q-38 0 -76 8.5t-72.5 26.5t-64.5 46.5t-52 69.5h-6q-25 -33 -63 -60.5t-92 -47.5t-125 -31.5t-162 -11.5
h-291q-35 0 -52.5 33.5t-17.5 89.5q0 55 17.5 88.5t52.5 33.5h294q93 0 154 6t97.5 20.5t51.5 39.5t15 63q0 60 -39 119.5t-116.5 122t-192 129t-264.5 139.5v206zM369 -308h-222v203h222v-203zM707 -308h-222v203h222v-203zM538 -588h-223v203h223v-203z" />
    <glyph glyph-name="uni06AE.fina" unicode="&#x6ae;" horiz-adv-x="1710" 
d="M684 710q180 10 180 66q0 8 -12 19.5t-48 27.5q-43 20 -66.5 47t-23.5 73q0 40 25 73t68 57.5t99.5 41.5t119.5 26v-120q-92 -12 -133.5 -30.5t-41.5 -43.5q0 -12 14 -23.5t57 -29.5q40 -18 59.5 -42t19.5 -68q0 -33 -19.5 -65.5t-58.5 -60t-98.5 -46t-140.5 -22.5v120z
M374 650q-7 -33 -13 -61.5t-10 -54t-6.5 -49.5t-2.5 -50q0 -24 2.5 -45.5t9.5 -41t19.5 -37t32.5 -32.5q26 -20 65 -33t97.5 -20.5t140.5 -10t196 -2.5q126 0 209.5 4t134 20.5t71 51t20.5 95.5v1132h199v-1077q0 -56 3 -96.5t19.5 -67t51 -39.5t97.5 -13v-245h-40
q-89 0 -146 29t-87 90h-6q-42 -45 -100.5 -70.5t-129.5 -38t-152.5 -15.5t-169.5 -3q-99 0 -190.5 2.5t-171 13t-144.5 31.5t-111 59q-35 28 -58.5 64t-38 77t-20.5 85.5t-6 88.5q0 68 10 132t26 127h199zM826 -308h-222v203h222v-203zM1164 -308h-222v203h222v-203z
M995 -588h-223v203h223v-203z" />
    <glyph glyph-name="uni06AF" unicode="&#x6af;" horiz-adv-x="1881" arabic-form="isolated" 
d="M1726 1623v-260l-623 -383q125 -62 229 -128.5t178.5 -142t116 -162t41.5 -187.5q0 -41 -9.5 -91t-37.5 -99t-79.5 -91.5t-135.5 -67.5q-91 -27 -225 -34t-317 -7q-96 0 -184.5 2.5t-165.5 13t-140.5 32t-110.5 59.5q-35 28 -58.5 63.5t-38 77t-21 86t-6.5 90.5
q0 65 10 130.5t26 125.5h199q-8 -33 -13.5 -61t-10 -53.5t-6.5 -50t-2 -50.5q0 -52 13.5 -89.5t45.5 -63.5q28 -24 74 -37.5t113.5 -20.5t159.5 -8.5t212 -1.5q127 0 226 3.5t165 21.5q40 11 63.5 24.5t35 28.5t14.5 31t3 31q0 58 -39 117.5t-116 122t-191.5 129
t-265.5 139.5v206zM1726 1933v-171l-871 -554v170z" />
    <glyph glyph-name="uni06B0.init" unicode="&#x6b0;" horiz-adv-x="1026" 
d="M871 1623v-260l-623 -383q124 -61 228 -127.5t179 -142t116.5 -162t41.5 -186.5q0 -40 -7.5 -84t-28 -87t-56.5 -81.5t-94 -67.5t-140.5 -46.5t-195.5 -17.5h-291q-35 0 -52.5 33.5t-17.5 89.5q0 55 17.5 88.5t52.5 33.5h294q93 0 154 6t97.5 20.5t51.5 39.5t15 63
q0 60 -39 119.5t-116.5 122t-192 129t-264.5 139.5v206zM624 1274q35 0 65.5 -13t53.5 -35.5t36 -54t13 -67.5q0 -35 -13 -65t-36 -53t-53.5 -36t-65.5 -13q-37 0 -68.5 13t-54.5 36t-36 53t-13 65q0 36 13 67.5t35.5 54t54 35.5t69.5 13zM624 1020q33 0 55 24.5t22 59.5
q0 38 -22 62.5t-55 24.5q-36 0 -58.5 -24.5t-22.5 -62.5q0 -35 22.5 -59.5t58.5 -24.5zM871 1933v-171l-871 -554v170z" />
    <glyph glyph-name="uni06B0.medi" unicode="&#x6b0;" horiz-adv-x="1026" 
d="M871 1623v-260l-623 -383q127 -63 226 -126.5t169.5 -132.5t112.5 -145t54 -164q5 -29 13 -58.5t31 -58.5q10 -14 24 -26.5t34.5 -23t48.5 -16.5t65 -6v-245h-22q-38 0 -76 8.5t-72.5 26.5t-64.5 46.5t-52 69.5h-6q-25 -33 -63 -60.5t-92 -47.5t-125 -31.5t-162 -11.5
h-291q-35 0 -52.5 33.5t-17.5 89.5q0 55 17.5 88.5t52.5 33.5h294q93 0 154 6t97.5 20.5t51.5 39.5t15 63q0 60 -39 119.5t-116.5 122t-192 129t-264.5 139.5v206zM624 1274q35 0 65.5 -13t53.5 -35.5t36 -54t13 -67.5q0 -35 -13 -65t-36 -53t-53.5 -36t-65.5 -13
q-37 0 -68.5 13t-54.5 36t-36 53t-13 65q0 36 13 67.5t35.5 54t54 35.5t69.5 13zM624 1020q33 0 55 24.5t22 59.5q0 38 -22 62.5t-55 24.5q-36 0 -58.5 -24.5t-22.5 -62.5q0 -35 22.5 -59.5t58.5 -24.5zM871 1933v-171l-871 -554v170z" />
    <glyph glyph-name="uni06B0.fina" unicode="&#x6b0;" horiz-adv-x="1881" 
d="M1726 1623v-260l-623 -383q127 -62 226 -126t169.5 -133t112 -145.5t54.5 -163.5q6 -39 19.5 -73t39 -59.5t64 -40.5t93.5 -16v-245h-22q-38 0 -76 8.5t-72.5 26.5t-64.5 46.5t-52 69.5h-6q-35 -43 -79.5 -71.5t-104.5 -46.5q-46 -14 -101 -22t-121.5 -12.5t-145.5 -5.5
t-172 -1q-96 0 -184.5 2.5t-165.5 13t-141 32t-110 59.5q-35 28 -58.5 63.5t-38 76.5t-21 86t-6.5 91q0 65 10 130.5t26 125.5h199q-7 -33 -13 -61.5t-10 -54t-6.5 -49.5t-2.5 -50q0 -54 14.5 -93t49.5 -65q30 -22 76 -34.5t113 -19t157 -8t208 -1.5q128 0 226.5 3.5
t164.5 21.5q40 11 63.5 24.5t35 28.5t14.5 31t3 31q0 117 -155.5 240t-456.5 268v206zM1479 1274q35 0 65.5 -13t53.5 -35.5t36 -54t13 -67.5q0 -35 -13 -65t-36 -53t-53.5 -36t-65.5 -13q-37 0 -68.5 13t-54.5 36t-36 53t-13 65q0 36 13 67.5t35.5 54t54 35.5t69.5 13z
M1479 1020q33 0 55 24.5t22 59.5q0 38 -22 62.5t-55 24.5q-36 0 -58.5 -24.5t-22.5 -62.5q0 -35 22.5 -59.5t58.5 -24.5zM1726 1933v-171l-871 -554v170z" />
    <glyph glyph-name="uni06B1" unicode="&#x6b1;" horiz-adv-x="1881" arabic-form="isolated" 
d="M1726 1623v-260l-623 -383q125 -62 229 -128.5t178.5 -142t116 -162t41.5 -187.5q0 -41 -9.5 -91t-37.5 -99t-79.5 -91.5t-135.5 -67.5q-91 -27 -225 -34t-317 -7q-96 0 -184.5 2.5t-165.5 13t-140.5 32t-110.5 59.5q-35 28 -58.5 63.5t-38 77t-21 86t-6.5 90.5
q0 65 10 130.5t26 125.5h199q-8 -33 -13.5 -61t-10 -53.5t-6.5 -50t-2 -50.5q0 -52 13.5 -89.5t45.5 -63.5q28 -24 74 -37.5t113.5 -20.5t159.5 -8.5t212 -1.5q127 0 226 3.5t165 21.5q40 11 63.5 24.5t35 28.5t14.5 31t3 31q0 58 -39 117.5t-116 122t-191.5 129
t-265.5 139.5v206zM1726 1933v-171l-871 -554v170zM1086 1815h-222v203h222v-203zM1423 1815h-222v203h222v-203z" />
    <glyph glyph-name="uni06B2.init" unicode="&#x6b2;" horiz-adv-x="1026" 
d="M871 1623v-260l-623 -383q124 -61 228 -127.5t179 -142t116.5 -162t41.5 -186.5q0 -40 -7.5 -84t-28 -87t-56.5 -81.5t-94 -67.5t-140.5 -46.5t-195.5 -17.5h-291q-35 0 -52.5 33.5t-17.5 89.5q0 55 17.5 88.5t52.5 33.5h294q93 0 154 6t97.5 20.5t51.5 39.5t15 63
q0 60 -39 119.5t-116.5 122t-192 129t-264.5 139.5v206zM871 1933v-171l-871 -554v170zM370 -367h-222v203h222v-203zM707 -367h-222v203h222v-203z" />
    <glyph glyph-name="uni06B2.medi" unicode="&#x6b2;" horiz-adv-x="1026" 
d="M871 1623v-260l-623 -383q127 -63 226 -126.5t169.5 -132.5t112.5 -145t54 -164q5 -29 13 -58.5t31 -58.5q10 -14 24 -26.5t34.5 -23t48.5 -16.5t65 -6v-245h-22q-38 0 -76 8.5t-72.5 26.5t-64.5 46.5t-52 69.5h-6q-25 -33 -63 -60.5t-92 -47.5t-125 -31.5t-162 -11.5
h-291q-35 0 -52.5 33.5t-17.5 89.5q0 55 17.5 88.5t52.5 33.5h294q93 0 154 6t97.5 20.5t51.5 39.5t15 63q0 60 -39 119.5t-116.5 122t-192 129t-264.5 139.5v206zM871 1933v-171l-871 -554v170zM370 -367h-222v203h222v-203zM707 -367h-222v203h222v-203z" />
    <glyph glyph-name="uni06B2.fina" unicode="&#x6b2;" horiz-adv-x="1881" 
d="M1726 1623v-260l-623 -383q127 -62 226 -126t169.5 -133t112 -145.5t54.5 -163.5q6 -39 19.5 -73t39 -59.5t64 -40.5t93.5 -16v-245h-22q-38 0 -76 8.5t-72.5 26.5t-64.5 46.5t-52 69.5h-6q-35 -43 -79.5 -71.5t-104.5 -46.5q-46 -14 -101 -22t-121.5 -12.5t-145.5 -5.5
t-172 -1q-96 0 -184.5 2.5t-165.5 13t-141 32t-110 59.5q-35 28 -58.5 63.5t-38 76.5t-21 86t-6.5 91q0 65 10 130.5t26 125.5h199q-7 -33 -13 -61.5t-10 -54t-6.5 -49.5t-2.5 -50q0 -54 14.5 -93t49.5 -65q30 -22 76 -34.5t113 -19t157 -8t208 -1.5q128 0 226.5 3.5
t164.5 21.5q40 11 63.5 24.5t35 28.5t14.5 31t3 31q0 117 -155.5 240t-456.5 268v206zM1726 1933v-171l-871 -554v170zM884 -367h-222v203h222v-203zM1221 -367h-222v203h222v-203z" />
    <glyph glyph-name="uni06B3" unicode="&#x6b3;" horiz-adv-x="1881" arabic-form="isolated" 
d="M1726 1623v-260l-623 -383q125 -62 229 -128.5t178.5 -142t116 -162t41.5 -187.5q0 -41 -9.5 -91t-37.5 -99t-79.5 -91.5t-135.5 -67.5q-91 -27 -225 -34t-317 -7q-96 0 -184.5 2.5t-165.5 13t-140.5 32t-110.5 59.5q-35 28 -58.5 63.5t-38 77t-21 86t-6.5 90.5
q0 65 10 130.5t26 125.5h199q-8 -33 -13.5 -61t-10 -53.5t-6.5 -50t-2 -50.5q0 -52 13.5 -89.5t45.5 -63.5q28 -24 74 -37.5t113.5 -20.5t159.5 -8.5t212 -1.5q127 0 226 3.5t165 21.5q40 11 63.5 24.5t35 28.5t14.5 31t3 31q0 58 -39 117.5t-116 122t-191.5 129
t-265.5 139.5v206zM1053 -588h-223v203h223v-203zM1053 -308h-223v203h223v-203zM1726 1933v-171l-871 -554v170z" />
    <glyph glyph-name="uni06B4.init" unicode="&#x6b4;" horiz-adv-x="1026" 
d="M871 1623v-260l-623 -383q124 -61 228 -127.5t179 -142t116.5 -162t41.5 -186.5q0 -40 -7.5 -84t-28 -87t-56.5 -81.5t-94 -67.5t-140.5 -46.5t-195.5 -17.5h-291q-35 0 -52.5 33.5t-17.5 89.5q0 55 17.5 88.5t52.5 33.5h294q93 0 154 6t97.5 20.5t51.5 39.5t15 63
q0 60 -39 119.5t-116.5 122t-192 129t-264.5 139.5v206zM871 1933v-171l-871 -554v170zM198 1785h-222v203h222v-203zM536 1785h-222v203h222v-203zM368 2065h-223v203h223v-203z" />
    <glyph glyph-name="uni06B4.medi" unicode="&#x6b4;" horiz-adv-x="1026" 
d="M871 1623v-260l-623 -383q127 -63 226 -126.5t169.5 -132.5t112.5 -145t54 -164q5 -29 13 -58.5t31 -58.5q10 -14 24 -26.5t34.5 -23t48.5 -16.5t65 -6v-245h-22q-38 0 -76 8.5t-72.5 26.5t-64.5 46.5t-52 69.5h-6q-25 -33 -63 -60.5t-92 -47.5t-125 -31.5t-162 -11.5
h-291q-35 0 -52.5 33.5t-17.5 89.5q0 55 17.5 88.5t52.5 33.5h294q93 0 154 6t97.5 20.5t51.5 39.5t15 63q0 60 -39 119.5t-116.5 122t-192 129t-264.5 139.5v206zM871 1933v-171l-871 -554v170zM198 1785h-222v203h222v-203zM536 1785h-222v203h222v-203zM368 2065h-223
v203h223v-203z" />
    <glyph glyph-name="uni06B4.fina" unicode="&#x6b4;" horiz-adv-x="1881" 
d="M1726 1623v-260l-623 -383q127 -62 226 -126t169.5 -133t112 -145.5t54.5 -163.5q6 -39 19.5 -73t39 -59.5t64 -40.5t93.5 -16v-245h-22q-38 0 -76 8.5t-72.5 26.5t-64.5 46.5t-52 69.5h-6q-35 -43 -79.5 -71.5t-104.5 -46.5q-46 -14 -101 -22t-121.5 -12.5t-145.5 -5.5
t-172 -1q-96 0 -184.5 2.5t-165.5 13t-141 32t-110 59.5q-35 28 -58.5 63.5t-38 76.5t-21 86t-6.5 91q0 65 10 130.5t26 125.5h199q-7 -33 -13 -61.5t-10 -54t-6.5 -49.5t-2.5 -50q0 -54 14.5 -93t49.5 -65q30 -22 76 -34.5t113 -19t157 -8t208 -1.5q128 0 226.5 3.5
t164.5 21.5q40 11 63.5 24.5t35 28.5t14.5 31t3 31q0 117 -155.5 240t-456.5 268v206zM1726 1933v-171l-871 -554v170zM1053 1785h-222v203h222v-203zM1391 1785h-222v203h222v-203zM1223 2065h-223v203h223v-203z" />
    <glyph glyph-name="uni06B5.init" unicode="&#x6b5;" horiz-adv-x="684" 
d="M513 1516v-1153q0 -120 -33 -195t-87 -117t-123.5 -57.5t-142.5 -15.5h-127q-35 0 -52.5 33.5t-17.5 89.5q0 55 17.5 88.5t52.5 33.5h137q42 0 75 4t55.5 19t34.5 44.5t12 79.5v1146h199zM556 2064h160l-236 -362h-138l-243 362h166l147 -218z" />
    <glyph glyph-name="uni06B5.medi" unicode="&#x6b5;" horiz-adv-x="684" 
d="M513 439q0 -56 3 -96.5t19.5 -67t51 -39.5t97.5 -13v-245h-40q-90 0 -149 28.5t-88 88.5h-5q-26 -35 -58.5 -57.5t-67.5 -36t-70.5 -18.5t-66.5 -5h-139q-35 0 -52.5 33.5t-17.5 89.5q0 55 17.5 88.5t52.5 33.5h149q39 0 70 5t52 20.5t32 44.5t11 77v1146h199v-1077z
M556 2064h160l-236 -362h-138l-243 362h166l147 -218z" />
    <glyph glyph-name="uni06B5.fina" unicode="&#x6b5;" horiz-adv-x="1368" 
d="M372 492q-9 -54 -15 -96.5t-9 -76.5t-4.5 -62t-1.5 -53q0 -80 13.5 -137.5t47.5 -94.5t91.5 -55t145.5 -18q101 0 169.5 24t110.5 75.5t60 132.5t18 196v1189h199v-1073q0 -56 3 -97.5t19.5 -68.5t51 -40.5t97.5 -13.5v-245h-36q-60 0 -99.5 20t-65.5 67h-7
q-35 -207 -166 -310t-367 -103q-134 0 -226.5 35t-149.5 102.5t-82.5 166.5t-25.5 228q0 67 7 139t26 169h196zM1240 2064h160l-236 -362h-138l-243 362h166l147 -218z" />
    <glyph glyph-name="uni06B6.init" unicode="&#x6b6;" horiz-adv-x="684" 
d="M513 1516v-1153q0 -120 -33 -195t-87 -117t-123.5 -57.5t-142.5 -15.5h-127q-35 0 -52.5 33.5t-17.5 89.5q0 55 17.5 88.5t52.5 33.5h137q42 0 75 4t55.5 19t34.5 44.5t12 79.5v1146h199zM526 1703h-223v203h223v-203z" />
    <glyph glyph-name="uni06B6.medi" unicode="&#x6b6;" horiz-adv-x="684" 
d="M513 439q0 -56 3 -96.5t19.5 -67t51 -39.5t97.5 -13v-245h-40q-90 0 -149 28.5t-88 88.5h-5q-26 -35 -58.5 -57.5t-67.5 -36t-70.5 -18.5t-66.5 -5h-139q-35 0 -52.5 33.5t-17.5 89.5q0 55 17.5 88.5t52.5 33.5h149q39 0 70 5t52 20.5t32 44.5t11 77v1146h199v-1077z
M526 1703h-223v203h223v-203z" />
    <glyph glyph-name="uni06B6.fina" unicode="&#x6b6;" horiz-adv-x="1368" 
d="M372 492q-9 -54 -15 -96.5t-9 -76.5t-4.5 -62t-1.5 -53q0 -80 13.5 -137.5t47.5 -94.5t91.5 -55t145.5 -18q101 0 169.5 24t110.5 75.5t60 132.5t18 196v1189h199v-1073q0 -56 3 -97.5t19.5 -68.5t51 -40.5t97.5 -13.5v-245h-36q-60 0 -99.5 20t-65.5 67h-7
q-35 -207 -166 -310t-367 -103q-134 0 -226.5 35t-149.5 102.5t-82.5 166.5t-25.5 228q0 67 7 139t26 169h196zM1208 1703h-223v203h223v-203z" />
    <glyph glyph-name="uni06B7.init" unicode="&#x6b7;" horiz-adv-x="684" 
d="M513 1516v-1153q0 -120 -33 -195t-87 -117t-123.5 -57.5t-142.5 -15.5h-127q-35 0 -52.5 33.5t-17.5 89.5q0 55 17.5 88.5t52.5 33.5h137q42 0 75 4t55.5 19t34.5 44.5t12 79.5v1146h199zM356 1703h-222v203h222v-203zM694 1703h-222v203h222v-203zM526 1983h-223v203
h223v-203z" />
    <glyph glyph-name="uni06B7.medi" unicode="&#x6b7;" horiz-adv-x="684" 
d="M513 439q0 -56 3 -96.5t19.5 -67t51 -39.5t97.5 -13v-245h-40q-90 0 -149 28.5t-88 88.5h-5q-26 -35 -58.5 -57.5t-67.5 -36t-70.5 -18.5t-66.5 -5h-139q-35 0 -52.5 33.5t-17.5 89.5q0 55 17.5 88.5t52.5 33.5h149q39 0 70 5t52 20.5t32 44.5t11 77v1146h199v-1077z
M356 1703h-222v203h222v-203zM694 1703h-222v203h222v-203zM526 1983h-223v203h223v-203z" />
    <glyph glyph-name="uni06B7.fina" unicode="&#x6b7;" horiz-adv-x="1368" 
d="M372 492q-9 -54 -15 -96.5t-9 -76.5t-4.5 -62t-1.5 -53q0 -80 13.5 -137.5t47.5 -94.5t91.5 -55t145.5 -18q101 0 169.5 24t110.5 75.5t60 132.5t18 196v1189h199v-1073q0 -56 3 -97.5t19.5 -68.5t51 -40.5t97.5 -13.5v-245h-36q-60 0 -99.5 20t-65.5 67h-7
q-35 -207 -166 -310t-367 -103q-134 0 -226.5 35t-149.5 102.5t-82.5 166.5t-25.5 228q0 67 7 139t26 169h196zM1038 1703h-222v203h222v-203zM1376 1703h-222v203h222v-203zM1208 1983h-223v203h223v-203z" />
    <glyph glyph-name="uni06B8.init" unicode="&#x6b8;" horiz-adv-x="684" 
d="M513 1516v-1153q0 -120 -33 -195t-87 -117t-123.5 -57.5t-142.5 -15.5h-127q-35 0 -52.5 33.5t-17.5 89.5q0 55 17.5 88.5t52.5 33.5h137q42 0 75 4t55.5 19t34.5 44.5t12 79.5v1146h199zM272 -308h-222v203h222v-203zM610 -308h-222v203h222v-203zM441 -588h-223v203
h223v-203z" />
    <glyph glyph-name="uni06B8.medi" unicode="&#x6b8;" horiz-adv-x="684" 
d="M513 439q0 -56 3 -96.5t19.5 -67t51 -39.5t97.5 -13v-245h-40q-90 0 -149 28.5t-88 88.5h-5q-26 -35 -58.5 -57.5t-67.5 -36t-70.5 -18.5t-66.5 -5h-139q-35 0 -52.5 33.5t-17.5 89.5q0 55 17.5 88.5t52.5 33.5h149q39 0 70 5t52 20.5t32 44.5t11 77v1146h199v-1077z
M272 -308h-222v203h222v-203zM610 -308h-222v203h222v-203zM441 -588h-223v203h223v-203z" />
    <glyph glyph-name="uni06B8.fina" unicode="&#x6b8;" horiz-adv-x="1368" 
d="M372 812q-8 -54 -14 -96.5t-9.5 -76.5t-5 -62t-1.5 -53q0 -80 13.5 -137.5t47.5 -94.5t91.5 -55t145.5 -18q101 0 169.5 23.5t110.5 74t60 130t18 192.5v877h199v-1073q0 -56 3 -97.5t19.5 -68.5t51 -40.5t97.5 -13.5v-245h-31q-33 0 -70 6t-72 24t-67 50.5t-55 85.5h-5
q-69 -86 -176 -129t-265 -43q-134 0 -226.5 35t-149.5 102.5t-82.5 166.5t-25.5 228q0 67 7 139t26 169h196zM555 -376h227l-4 -205h-227zM384 -96h227v-205h-227v205zM727 -96h227v-205h-227v205z" />
    <glyph glyph-name="uni06B9.init" unicode="&#x6b9;" horiz-adv-x="684" 
d="M513 837v-474q0 -120 -31 -195t-83 -117.5t-119.5 -57.5t-140.5 -15h-139q-35 0 -52.5 34t-17.5 89t17.5 88.5t52.5 33.5h149q42 0 73 4t51.5 19t30.5 44.5t10 79.5v467h199zM519 1060h-223v203h223v-203zM499 -367h-223v203h223v-203z" />
    <glyph glyph-name="uni06B9.medi" unicode="&#x6b9;" horiz-adv-x="684" 
d="M513 439q0 -56 3 -96.5t19.5 -67t51 -39.5t97.5 -13v-245h-36q-91 0 -152.5 28.5t-90.5 88.5h-5q-26 -35 -58.5 -57.5t-68 -36t-71.5 -18.5t-67 -5h-135q-35 0 -52.5 33.5t-17.5 89.5q0 55 17.5 88.5t52.5 33.5h149q39 0 70 5t52 20.5t32 44.5t11 77v467h199v-398z
M519 1060h-223v203h223v-203zM499 -367h-223v203h223v-203z" />
    <glyph glyph-name="uni06B9.fina" unicode="&#x6b9;" horiz-adv-x="1368" 
d="M1158 861q20 -112 29.5 -205.5t9.5 -181.5v-31q0 -60 3.5 -101.5t20 -68t51 -38.5t96.5 -12v-245h-27q-27 0 -55.5 4t-56 15t-52 30t-44.5 49l-10 1q-61 -125 -182 -191.5t-314 -66.5q-134 0 -227.5 35t-152 102.5t-85 167t-26.5 228.5q0 68 8 143t27 175h195
q-9 -56 -15 -100t-9.5 -79t-5 -64t-1.5 -56q0 -80 14.5 -137t49.5 -94.5t93 -55t146 -17.5q102 0 170 23.5t109 75t58.5 132.5t17.5 196q0 33 -2 70t-6.5 81t-12.5 97t-19 119h205zM787 1007h-227v206h227v-206zM787 -540h-227v205h227v-205z" />
    <glyph glyph-name="uni06BA" unicode="&#x6ba;" horiz-adv-x="1368" arabic-form="isolated" 
d="M1158 520q20 -112 29.5 -205t9.5 -181q0 -156 -30.5 -278t-98.5 -206t-177 -127.5t-266 -43.5q-134 0 -227.5 35t-151.5 102.5t-84 166.5t-26 228q0 68 8 143.5t27 174.5h195q-9 -56 -15 -99.5t-9.5 -79t-5 -64.5t-1.5 -55q0 -80 14 -137.5t48.5 -94.5t92.5 -55t146 -18
q102 0 170.5 24t110 75.5t59 132.5t17.5 196q0 33 -2 70t-7 81t-12.5 96.5t-18.5 118.5h205z" />
    <glyph glyph-name="uni06BB" unicode="&#x6bb;" horiz-adv-x="1368" arabic-form="isolated" 
d="M1158 520q20 -112 29.5 -205t9.5 -181q0 -156 -30.5 -278t-98.5 -206t-177 -127.5t-266 -43.5q-134 0 -227.5 35t-151.5 102.5t-84 166.5t-26 228q0 68 8 143.5t27 174.5h195q-9 -56 -15 -99.5t-9.5 -79t-5 -64.5t-1.5 -55q0 -80 14 -137.5t48.5 -94.5t92.5 -55t146 -18
q102 0 170.5 24t110 75.5t59 132.5t17.5 196q0 33 -2 70t-7 81t-12.5 96.5t-18.5 118.5h205zM343 855q31 -4 62 -5.5t65 -1.5v494h116v-322l3 -1q38 52 84.5 85t111.5 33q51 0 87.5 -19.5t60.5 -52t35 -74.5t11 -87q0 -66 -20.5 -102t-56 -53t-83.5 -20t-104 -3
q-71 0 -125.5 1t-96.5 2.5t-74.5 4t-59.5 5.5zM703 845q48 0 79.5 1t51 7t27.5 18t8 35q0 56 -28 84.5t-67 28.5q-30 0 -57.5 -15t-51.5 -39.5t-43.5 -55.5t-34.5 -64h116z" />
    <glyph glyph-name="uni06BC.init" unicode="&#x6bc;" horiz-adv-x="684" 
d="M513 837v-474q0 -120 -31 -195t-83 -117.5t-119.5 -57.5t-140.5 -15h-139q-35 0 -52.5 34t-17.5 89t17.5 88.5t52.5 33.5h149q42 0 73 4t51.5 19t30.5 44.5t10 79.5v467h199zM285 67q35 0 65.5 -13t53.5 -35.5t36 -54t13 -67.5q0 -35 -13 -65t-36 -53t-53.5 -36
t-65.5 -13q-37 0 -68.5 13t-54.5 36t-36 53t-13 65q0 36 13 67.5t35.5 54t54 35.5t69.5 13zM285 -187q33 0 55 24.5t22 59.5q0 38 -22 62.5t-55 24.5q-36 0 -58.5 -24.5t-22.5 -62.5q0 -35 22.5 -59.5t58.5 -24.5zM519 1060h-223v203h223v-203z" />
    <glyph glyph-name="uni06BC.medi" unicode="&#x6bc;" horiz-adv-x="684" 
d="M513 439q0 -56 3 -96.5t19.5 -67t51 -39.5t97.5 -13v-245h-36q-91 0 -152.5 28.5t-90.5 88.5h-5q-26 -35 -58.5 -57.5t-68 -36t-71.5 -18.5t-67 -5h-135q-35 0 -52.5 33.5t-17.5 89.5q0 55 17.5 88.5t52.5 33.5h149q39 0 70 5t52 20.5t32 44.5t11 77v467h199v-398z
M519 1060h-223v203h223v-203zM275 67q35 0 65.5 -13t53.5 -35.5t36 -54t13 -67.5q0 -35 -13 -65t-36 -53t-53.5 -36t-65.5 -13q-37 0 -68.5 13t-54.5 36t-36 53t-13 65q0 36 13 67.5t35.5 54t54 35.5t69.5 13zM275 -187q33 0 55 24.5t22 59.5q0 38 -22 62.5t-55 24.5
q-36 0 -58.5 -24.5t-22.5 -62.5q0 -35 22.5 -59.5t58.5 -24.5z" />
    <glyph glyph-name="uni06BC.fina" unicode="&#x6bc;" horiz-adv-x="1368" 
d="M1158 861q20 -112 29.5 -205.5t9.5 -181.5v-31q0 -60 3.5 -101.5t20 -68t51 -38.5t96.5 -12v-245h-27q-27 0 -55.5 4t-56 15t-52 30t-44.5 49l-10 1q-48 -94 -126.5 -155t-198.5 -87q16 -21 25 -47.5t9 -56.5q0 -34 -13 -64t-36 -52.5t-53.5 -36t-65.5 -13.5
q-37 0 -68 13t-54 35.5t-36 53t-13 64.5q0 54 26 95q-104 13 -177 53.5t-119 107.5t-66.5 158.5t-20.5 206.5q0 68 8 143t27 175h195q-9 -56 -15 -100t-9.5 -79t-5 -64t-1.5 -56q0 -80 14.5 -137t49.5 -94.5t93 -55t146 -17.5q102 0 170 23.5t109 75t58.5 132.5t17.5 196
q0 33 -2 70t-6.5 81t-12.5 97t-19 119h205zM787 1007h-227v206h227v-206zM664 -353q34 0 56 24.5t22 59.5q0 38 -22 63t-56 25q-35 0 -58 -25t-23 -63q0 -35 23 -59.5t58 -24.5z" />
    <glyph glyph-name="uni06BD.init" unicode="&#x6bd;" horiz-adv-x="684" 
d="M513 837v-474q0 -120 -31 -195t-83 -117.5t-119.5 -57.5t-140.5 -15h-139q-35 0 -52.5 34t-17.5 89t17.5 88.5t52.5 33.5h149q42 0 73 4t51.5 19t30.5 44.5t10 79.5v467h199zM349 1060h-222v203h222v-203zM687 1060h-222v203h222v-203zM519 1340h-223v203h223v-203z" />
    <glyph glyph-name="uni06BD.medi" unicode="&#x6bd;" horiz-adv-x="684" 
d="M513 439q0 -56 3 -96.5t19.5 -67t51 -39.5t97.5 -13v-245h-36q-91 0 -152.5 28.5t-90.5 88.5h-5q-26 -35 -58.5 -57.5t-68 -36t-71.5 -18.5t-67 -5h-135q-35 0 -52.5 33.5t-17.5 89.5q0 55 17.5 88.5t52.5 33.5h149q39 0 70 5t52 20.5t32 44.5t11 77v467h199v-398z
M349 1060h-222v203h222v-203zM687 1060h-222v203h222v-203zM519 1340h-223v203h223v-203z" />
    <glyph glyph-name="uni06BD.fina" unicode="&#x6bd;" horiz-adv-x="1368" 
d="M1156 520q11 -62 17 -108.5t11 -91.5q3 -20 11.5 -37.5t28.5 -30.5t55 -21t89 -8v-245h-30q-29 0 -50.5 4t-38.5 11t-30 17.5t-25 22.5l-7 -3q-9 -132 -44 -235t-102.5 -173t-170 -106.5t-245.5 -36.5q-134 0 -227.5 35t-151.5 102.5t-84 166.5t-26 228q0 68 8 143.5
t27 174.5h195q-9 -56 -15 -99.5t-9.5 -79t-5 -64.5t-1.5 -55q0 -80 14 -137.5t48.5 -94.5t92.5 -55t146 -18q102 0 170.5 24t109.5 75.5t58.5 132.5t17.5 196q0 33 -2 70t-6.5 81t-12 96.5t-19.5 118.5h204zM613 718h-222v203h222v-203zM951 718h-222v203h222v-203zM783 998
h-223v203h223v-203z" />
    <glyph glyph-name="uni06BE" unicode="&#x6be;" horiz-adv-x="1539" arabic-form="isolated" 
d="M504 1192q206 -113 366.5 -236.5t271 -243.5t168.5 -231t58 -198q0 -63 -11.5 -118.5t-32 -97t-48.5 -65.5t-61 -24q-47 0 -103 5t-116 15.5t-121 28t-119 43.5q-38 -27 -83.5 -45t-95.5 -28.5t-103.5 -14.5t-107.5 -4q-79 0 -148 6t-111 12l-48 246q48 -6 92.5 -10.5
t87.5 -8t87.5 -5.5t92.5 -3q25 0 45.5 0.5t37.5 0.5l2 5q-48 22 -81 52t-54 66.5t-30 77t-9 83.5q0 55 14.5 110t43 104.5t69 91t93.5 70.5l2 7l-48 30v279zM728 308q40 62 50.5 113.5t10.5 92.5q0 32 -10 65t-27 59.5t-38.5 43.5t-44.5 17q-28 0 -54 -19.5t-46.5 -48
t-33 -60t-12.5 -56.5q0 -18 5 -40.5t25.5 -48.5t61.5 -55.5t113 -62.5zM902 251q58 -20 121.5 -30.5t125.5 -15.5q14 28 14 53q0 35 -16.5 73t-44.5 76.5t-65 78t-78 77.5l-6 -4q2 -15 3.5 -30t1.5 -31q0 -66 -12.5 -129.5t-43.5 -117.5z" />
    <glyph glyph-name="uni06BF.init" unicode="&#x6bf;" horiz-adv-x="1197" 
d="M171 819q68 20 132.5 31t140.5 11q72 0 128.5 -12t106 -31t95 -43.5t94.5 -48.5q31 -16 62.5 -27t66.5 -19t75 -12.5t90 -7.5l-45 -268q-48 -11 -107 -46.5t-131 -81.5t-158.5 -96.5t-189.5 -92.5t-224 -69.5t-262 -27.5h-45q-35 0 -52.5 33.5t-17.5 89.5q0 55 17.5 88.5
t52.5 33.5h54q118 0 224 24.5t202.5 64.5t184 90.5t170.5 103.5v7q-47 27 -90.5 48t-90 35t-100 21.5t-121.5 7.5q-74 0 -136.5 -8.5t-125.5 -25.5v228zM540 -308h-222v203h222v-203zM878 -308h-222v203h222v-203zM709 -588h-223v203h223v-203zM710 1039h-223v203h223v-203z
" />
    <glyph glyph-name="uni06BF.medi" unicode="&#x6bf;" horiz-adv-x="1197" 
d="M171 819q68 20 132.5 31t140.5 11q70 0 126.5 -11.5t105.5 -30.5t95 -43t96 -49q33 -17 65 -28.5t67 -19t74.5 -12t88.5 -7.5l-45 -268q-37 -9 -81 -33t-95 -56q3 -24 11 -39.5t25 -24.5t44.5 -12.5t69.5 -3.5h106v-245h-53q-91 0 -151 18t-97.5 50.5t-56 77.5t-26.5 98
q-70 -43 -151.5 -86t-177 -78t-205 -57.5t-234.5 -22.5h-45q-35 0 -52.5 33.5t-17.5 89.5q0 55 17.5 88.5t52.5 33.5h54q118 0 224 24.5t202.5 64.5t184 90.5t170.5 103.5v7q-47 27 -90.5 48t-90 35t-100 21.5t-121.5 7.5q-74 0 -136.5 -8.5t-125.5 -25.5v228v0zM540 -308
h-222v203h222v-203zM878 -308h-222v203h222v-203zM709 -588h-223v203h223v-203zM710 1039h-223v203h223v-203z" />
    <glyph glyph-name="uni06BF.fina" unicode="&#x6bf;" horiz-adv-x="1368" 
d="M666 47h-181v179h181v-179zM960 47h-181v179h181v-179zM813 -213h-181v179h181v-179zM1059 515q-219 -59 -362 -122.5t-227 -129.5t-117.5 -134t-33.5 -137q0 -54 19.5 -105.5t65.5 -92t121.5 -65.5t187.5 -25q94 0 192 19.5t212 60.5v-226q-61 -21 -114.5 -36
t-103 -24.5t-97.5 -14t-97 -4.5q-147 0 -256 36.5t-180 101t-106 154t-35 195.5q0 59 11.5 120.5t39 122t72.5 119t111.5 111.5t157 99.5t208.5 84.5v9q-35 18 -65 31.5t-62 22.5t-69 13t-85 4q-74 0 -145 -9.5t-131 -26.5v229q63 20 125 30.5t134 10.5q74 0 130.5 -12
t105 -30.5t92.5 -39.5t94.5 -39.5t111 -31.5t140.5 -14zM1148 417q3 -50 15 -86.5t35.5 -60.5t59.5 -35.5t86 -11.5h24v-245h-32q-164 0 -254.5 99t-101.5 290zM742 1150h-223v203h223v-203z" />
    <glyph glyph-name="uni06C0" unicode="&#x6c0;" horiz-adv-x="1026" arabic-form="isolated" 
d="M411 1068q123 -84 211.5 -173.5t145.5 -181.5t84 -185.5t27 -184.5q0 -83 -26.5 -150.5t-75 -115.5t-118 -74.5t-156.5 -26.5q-85 0 -151 23t-111.5 66t-69 104t-23.5 138q0 85 21 162.5t54.5 143t76 118.5t85.5 90q-24 20 -49.5 40.5t-54.5 40.5zM342 342
q0 -35 13.5 -58t36 -37t52.5 -19.5t63 -5.5q91 0 134 32t43 90q0 78 -39 164.5t-124 182.5q-37 -29 -69.5 -68t-57 -84.5t-38.5 -95.5t-14 -101zM664 1530q-20 5 -39 7.5t-32 2.5q-39 0 -65.5 -16t-26.5 -55q0 -40 30 -59.5t87 -19.5h92v-111h-369v105h82l1 4
q-42 52 -42 105q0 35 14.5 64.5t41.5 51t65 33.5t84 12q31 0 77 -8v-116z" />
    <glyph glyph-name="uni06C1" unicode="&#x6c1;" horiz-adv-x="1026" arabic-form="isolated" 
d="M411 1068q123 -84 211.5 -173.5t145.5 -181.5t84 -185.5t27 -184.5q0 -83 -26.5 -150.5t-75 -115.5t-118 -74.5t-156.5 -26.5q-85 0 -151 23t-111.5 66t-69 104t-23.5 138q0 85 21 162.5t54.5 143t76 118.5t85.5 90q-24 20 -49.5 40.5t-54.5 40.5zM342 342
q0 -35 13.5 -58t36 -37t52.5 -19.5t63 -5.5q91 0 134 32t43 90q0 78 -39 164.5t-124 182.5q-37 -29 -69.5 -68t-57 -84.5t-38.5 -95.5t-14 -101z" />
    <glyph glyph-name="uni06C2.fina" unicode="&#x6c2;" horiz-adv-x="1026" 
d="M82 -89q-6 57 -6 101q0 136 34 230.5t87.5 153t119.5 84.5t130 26t118.5 -21t102.5 -52.5t91.5 -68t86.5 -68t87 -52.5t93 -21v-245h-23q-68 0 -124 21t-104 52t-89.5 68t-81.5 68t-80 52t-84 21q-37 0 -70 -14t-57.5 -48t-38.5 -91t-14 -143q0 -12 0.5 -25.5t1.5 -27.5
h-180zM557 1007q-20 5 -39 7.5t-32 2.5q-39 0 -65.5 -16t-26.5 -55q0 -40 30 -59.5t87 -19.5h92v-111h-369v105h82l1 4q-42 52 -42 105q0 35 14.5 64.5t41.5 51t65 33.5t84 12q31 0 77 -8v-116z" />
    <glyph glyph-name="uni06C3.fina" unicode="&#x6c3;" horiz-adv-x="1026" 
d="M82 -89q-6 57 -6 101q0 136 34 230.5t87.5 153t119.5 84.5t130 26t118.5 -21t102.5 -52.5t91.5 -68t86.5 -68t87 -52.5t93 -21v-245h-23q-68 0 -124 21t-104 52t-89.5 68t-81.5 68t-80 52t-84 21q-37 0 -70 -14t-57.5 -48t-38.5 -91t-14 -143q0 -12 0.5 -25.5t1.5 -27.5
h-180zM370 758h-222v203h222v-203zM707 758h-222v203h222v-203z" />
    <glyph glyph-name="uni06C4.fina" unicode="&#x6c4;" horiz-adv-x="1026" 
d="M0 -196q55 -21 102.5 -35.5t90 -23.5t81.5 -13t77 -4q69 0 118 16t82 43t52.5 61.5t29.5 70.5q3 10 6.5 27t5.5 35h-97q-195 0 -300 89t-105 255q0 77 26.5 155.5t72.5 141.5t107 103t130 40q77 0 139 -43.5t119 -135.5q45 -72 72 -164t37 -199h180v-245h-182
q-12 -107 -47.5 -198t-96.5 -158t-147.5 -105t-200.5 -38q-43 0 -84.5 4t-84 13.5t-88 24.5t-95.5 36v247zM626 316q-12 37 -29 72.5t-36.5 63.5t-42.5 45t-47 17q-27 0 -51 -18t-42.5 -44t-29.5 -56t-11 -55q0 -68 50.5 -95t154.5 -27h105q-4 23 -8.5 48.5t-12.5 48.5z
M283 -16q35 0 65.5 -13t53.5 -35.5t36 -54t13 -67.5q0 -35 -13 -65t-36 -53t-53.5 -36t-65.5 -13q-37 0 -68.5 13t-54.5 36t-36 53t-13 65q0 36 13 67.5t35.5 54t54 35.5t69.5 13zM283 -270q33 0 55 24.5t22 59.5q0 38 -22 62.5t-55 24.5q-36 0 -58.5 -24.5t-22.5 -62.5
q0 -35 22.5 -59.5t58.5 -24.5z" />
    <glyph glyph-name="uni06C5" unicode="&#x6c5;" horiz-adv-x="1026" arabic-form="isolated" 
d="M-14 -209q112 -45 197 -61.5t159 -16.5q102 0 163 29.5t95 89.5h-429v115h470q6 26 8.5 54t4.5 57q-38 -15 -76 -21t-76 -6q-64 0 -127 17t-113.5 55t-82 100t-31.5 151q0 76 26 154t71 141t106 102.5t131 39.5q76 0 139 -44t119 -133q57 -91 86 -212t29 -269
q0 -131 -28 -249.5t-89 -208.5t-158.5 -143.5t-235.5 -53.5q-44 0 -86.5 4.5t-86 14.5t-89.5 25.5t-96 37.5v231zM473 539q-28 0 -52 -17.5t-41.5 -43.5t-27.5 -55.5t-10 -53.5q0 -32 14 -55t38 -37.5t56.5 -21t68.5 -6.5q30 0 64.5 5t64.5 19q-9 53 -32 109
q-12 33 -28 61.5t-34.5 49.5t-39 33.5t-41.5 12.5z" />
    <glyph glyph-name="uni06C6" unicode="&#x6c6;" horiz-adv-x="1026" arabic-form="isolated" 
d="M0 -196q106 -42 187.5 -59t156.5 -17q87 0 144.5 24.5t92.5 64t51 91t21 105.5q-72 -28 -150 -28q-64 0 -127.5 19t-114.5 60t-82.5 105.5t-31.5 155.5q0 51 12 103.5t34 101.5t52.5 92t68 74.5t80 50t89.5 18.5q77 0 138.5 -43.5t118.5 -133.5q59 -92 87 -217.5
t28 -267.5q0 -128 -29.5 -241.5t-92 -198.5t-159 -134.5t-230.5 -49.5q-42 0 -83 4.5t-83 14t-86 24.5t-92 35v247zM649 241q-6 37 -22 84t-39 89t-51.5 71t-61.5 29q-28 0 -52.5 -18t-42.5 -44.5t-28.5 -57.5t-10.5 -56q0 -33 14.5 -56t39 -37.5t56.5 -21.5t67 -7
q33 0 67.5 5.5t63.5 19.5zM639 1411h160l-236 -362h-138l-243 362h166l147 -218z" />
    <glyph glyph-name="uni06C7" unicode="&#x6c7;" horiz-adv-x="1026" arabic-form="isolated" 
d="M0 -196q106 -42 187.5 -59t156.5 -17q87 0 144.5 24.5t92.5 64t51 91t21 105.5q-72 -28 -150 -28q-64 0 -127.5 19t-114.5 60t-82.5 105.5t-31.5 155.5q0 51 12 103.5t34 101.5t52.5 92t68 74.5t80 50t89.5 18.5q77 0 138.5 -43.5t118.5 -133.5q59 -92 87 -217.5
t28 -267.5q0 -128 -29.5 -241.5t-92 -198.5t-159 -134.5t-230.5 -49.5q-42 0 -83 4.5t-83 14t-86 24.5t-92 35v247zM649 241q-6 37 -22 84t-39 89t-51.5 71t-61.5 29q-28 0 -52.5 -18t-42.5 -44.5t-28.5 -57.5t-10.5 -56q0 -33 14.5 -56t39 -37.5t56.5 -21.5t67 -7
q33 0 67.5 5.5t63.5 19.5zM548 1004q-29 22 -51 40t-37 32q-10 -2 -21.5 -3t-22.5 -2t-20 -1h-13q-64 0 -117 7.5t-112 23.5l21 98q48 -13 88.5 -21t84.5 -10q8 0 16.5 -0.5t17.5 -0.5q-1 1 -1 1.5t-1 1.5q-45 63 -45 125q0 40 16 70.5t42.5 51.5t60.5 32t69 11q33 0 65 -10
t57 -31t40 -53t15 -75q0 -64 -33 -108t-92 -71q5 -7 12 -13t26 -20zM586 1290q0 36 -20 52.5t-46 16.5t-48 -16t-22 -50q0 -26 14 -53t37 -53q38 14 61.5 39.5t23.5 63.5z" />
    <glyph glyph-name="uni06C8" unicode="&#x6c8;" horiz-adv-x="1026" arabic-form="isolated" 
d="M0 -196q106 -42 187.5 -59t156.5 -17q87 0 144.5 24.5t92.5 64t51 91t21 105.5q-72 -28 -150 -28q-64 0 -127.5 19t-114.5 60t-82.5 105.5t-31.5 155.5q0 51 12 103.5t34 101.5t52.5 92t68 74.5t80 50t89.5 18.5q77 0 138.5 -43.5t118.5 -133.5q59 -92 87 -217.5
t28 -267.5q0 -128 -29.5 -241.5t-92 -198.5t-159 -134.5t-230.5 -49.5q-42 0 -83 4.5t-83 14t-86 24.5t-92 35v247zM649 241q-6 37 -22 84t-39 89t-51.5 71t-61.5 29q-28 0 -52.5 -18t-42.5 -44.5t-28.5 -57.5t-10.5 -56q0 -33 14.5 -56t39 -37.5t56.5 -21.5t67 -7
q33 0 67.5 5.5t63.5 19.5zM567 1048h-154v401h154v-401z" />
    <glyph glyph-name="uni06C9" unicode="&#x6c9;" horiz-adv-x="1026" arabic-form="isolated" 
d="M0 -196q106 -42 187.5 -59t156.5 -17q87 0 144.5 24.5t92.5 64t51 91t21 105.5q-72 -28 -150 -28q-64 0 -127.5 19t-114.5 60t-82.5 105.5t-31.5 155.5q0 51 12 103.5t34 101.5t52.5 92t68 74.5t80 50t89.5 18.5q77 0 138.5 -43.5t118.5 -133.5q59 -92 87 -217.5
t28 -267.5q0 -128 -29.5 -241.5t-92 -198.5t-159 -134.5t-230.5 -49.5q-42 0 -83 4.5t-83 14t-86 24.5t-92 35v247zM649 241q-6 37 -22 84t-39 89t-51.5 71t-61.5 29q-28 0 -52.5 -18t-42.5 -44.5t-28.5 -57.5t-10.5 -56q0 -33 14.5 -56t39 -37.5t56.5 -21.5t67 -7
q33 0 67.5 5.5t63.5 19.5zM419 1411h138l242 -362h-165l-147 219l-144 -219h-161z" />
    <glyph glyph-name="uni06CA.fina" unicode="&#x6ca;" horiz-adv-x="1026" 
d="M0 -196q55 -21 102.5 -35.5t90 -23.5t81.5 -13t77 -4q69 0 118 16t82 43t52.5 61.5t29.5 70.5q3 10 6.5 27t5.5 35h-97q-195 0 -300 89t-105 255q0 77 26.5 155.5t72.5 141.5t107 103t130 40q77 0 139 -43.5t119 -135.5q45 -72 72 -164t37 -199h180v-245h-182
q-12 -107 -47.5 -198t-96.5 -158t-147.5 -105t-200.5 -38q-43 0 -84.5 4t-84 13.5t-88 24.5t-95.5 36v247zM626 316q-12 37 -29 72.5t-36.5 63.5t-42.5 45t-47 17q-27 0 -51 -18t-42.5 -44t-29.5 -56t-11 -55q0 -68 50.5 -95t154.5 -27h105q-4 23 -8.5 48.5t-12.5 48.5z
M412 1033h-222v203h222v-203zM749 1033h-222v203h222v-203z" />
    <glyph glyph-name="uni06CB" unicode="&#x6cb;" horiz-adv-x="1026" arabic-form="isolated" 
d="M0 -196q106 -42 187.5 -59t156.5 -17q87 0 144.5 24.5t92.5 64t51 91t21 105.5q-72 -28 -150 -28q-64 0 -127.5 19t-114.5 60t-82.5 105.5t-31.5 155.5q0 51 12 103.5t34 101.5t52.5 92t68 74.5t80 50t89.5 18.5q77 0 138.5 -43.5t118.5 -133.5q59 -92 87 -217.5
t28 -267.5q0 -128 -29.5 -241.5t-92 -198.5t-159 -134.5t-230.5 -49.5q-42 0 -83 4.5t-83 14t-86 24.5t-92 35v247zM649 241q-6 37 -22 84t-39 89t-51.5 71t-61.5 29q-28 0 -52.5 -18t-42.5 -44.5t-28.5 -57.5t-10.5 -56q0 -33 14.5 -56t39 -37.5t56.5 -21.5t67 -7
q33 0 67.5 5.5t63.5 19.5zM411 1033h-222v203h222v-203zM749 1033h-222v203h222v-203zM581 1313h-223v203h223v-203z" />
    <glyph glyph-name="uni06CC" unicode="&#x6cc;" horiz-adv-x="1539" arabic-form="isolated" 
d="M414 754q-18 -66 -31.5 -120.5t-22.5 -101t-13.5 -87t-4.5 -79.5q0 -57 12 -110.5t49 -95t105 -67t179 -25.5q96 0 183.5 18.5t154.5 48t107 67t40 75.5q0 21 -13 38t-35.5 31.5t-52 29t-61.5 31.5q-44 23 -80.5 50.5t-63 61.5t-41.5 76.5t-15 96.5q0 91 43.5 163
t124 125.5t195 89t257.5 55.5v-241q-102 -14 -182 -29t-135 -35t-83.5 -45.5t-28.5 -59.5q0 -21 11 -37t32 -31t51 -30t67 -33q50 -25 88.5 -50.5t64.5 -56t39.5 -67.5t13.5 -85q0 -59 -21.5 -119.5t-63 -116.5t-102 -105t-138 -85t-171 -57t-201.5 -21q-148 0 -249.5 39
t-164.5 108.5t-90.5 165t-27.5 209.5q0 100 21 201t57 210h197z" />
    <glyph glyph-name="uni06CD.fina" unicode="&#x6cd;" horiz-adv-x="1880" 
d="M557 561q-20 -77 -32 -143t-12 -139q0 -66 15 -121.5t56.5 -96.5t114 -64t186.5 -23q73 0 132 5.5t101 18.5t65 33t23 50q0 34 -16.5 60t-36.5 55q-20 30 -31.5 63.5t-11.5 73.5q0 52 19.5 97.5t53.5 79t80.5 52.5t101.5 19q46 0 81 -11t61 -29.5t46 -44t38 -54.5
q22 -37 42.5 -75.5t51 -70.5t76.5 -52.5t119 -20.5v-245h-21q-84 0 -143.5 24t-102 60.5t-72 80t-54.5 82.5q-17 26 -31.5 49t-29.5 40t-31.5 27t-36.5 10q-25 0 -40 -16t-15 -42t14 -46.5t33 -44.5q23 -30 36.5 -64.5t13.5 -76.5q0 -60 -22 -107.5t-60.5 -84.5t-90.5 -63
t-112.5 -43t-127 -25t-133.5 -8q-104 0 -184 19t-139.5 53.5t-100.5 82.5t-65.5 105.5t-35.5 122.5t-11 134q0 25 1 51t4 52l-284 -79v148l518 142v0z" />
    <glyph glyph-name="uni06CE.init" unicode="&#x6ce;" horiz-adv-x="684" 
d="M513 837v-474q0 -120 -31 -195t-83 -117.5t-119.5 -57.5t-140.5 -15h-139q-35 0 -52.5 34t-17.5 89t17.5 88.5t52.5 33.5h149q42 0 73 4t51.5 19t30.5 44.5t10 79.5v467h199zM556 1422h160l-236 -362h-138l-243 362h166l147 -218z" />
    <glyph glyph-name="uni06CE.medi" unicode="&#x6ce;" horiz-adv-x="684" 
d="M513 439q0 -56 3 -96.5t19.5 -67t51 -39.5t97.5 -13v-245h-36q-91 0 -152.5 28.5t-90.5 88.5h-5q-26 -35 -58.5 -57.5t-68 -36t-71.5 -18.5t-67 -5h-135q-35 0 -52.5 33.5t-17.5 89.5q0 55 17.5 88.5t52.5 33.5h149q39 0 70 5t52 20.5t32 44.5t11 77v467h199v-398z
M561 1422h160l-236 -362h-138l-243 362h166l147 -218z" />
    <glyph glyph-name="uni06CE.fina" unicode="&#x6ce;" horiz-adv-x="1710" 
d="M386 556q-20 -74 -32 -139t-12 -138q0 -65 15.5 -120.5t57.5 -96.5t115 -64.5t189 -23.5q73 0 132 5.5t101 18.5t65 33t23 50q0 33 -17 60.5t-37 56.5q-20 31 -31 64.5t-11 70.5q0 52 19.5 97.5t53.5 79t80.5 52.5t101.5 19q37 0 69 -8t59.5 -25.5t53 -46t49.5 -68.5
q32 -53 56.5 -92t54 -65.5t68.5 -39.5t101 -13v-245h-21q-80 0 -136 18.5t-99.5 55t-80 90.5t-77.5 124q-29 49 -52.5 67t-51.5 18q-25 0 -40 -16t-15 -42q0 -23 13.5 -44t33.5 -47q50 -65 50 -141q0 -90 -49 -152.5t-128 -102.5t-178 -58t-199 -18q-158 0 -261.5 43.5
t-165 115.5t-86.5 166.5t-25 196.5q0 78 12 154t32 150h200zM923 1150h160l-236 -362h-138l-243 362h166l147 -218z" />
    <glyph glyph-name="uni06CF.fina" unicode="&#x6cf;" horiz-adv-x="1026" 
d="M0 -196q55 -21 102.5 -35.5t90 -23.5t81.5 -13t77 -4q69 0 118 16t82 43t52.5 61.5t29.5 70.5q3 10 6.5 27t5.5 35h-97q-195 0 -300 89t-105 255q0 77 26.5 155.5t72.5 141.5t107 103t130 40q77 0 139 -43.5t119 -135.5q45 -72 72 -164t37 -199h180v-245h-182
q-12 -107 -47.5 -198t-96.5 -158t-147.5 -105t-200.5 -38q-43 0 -84.5 4t-84 13.5t-88 24.5t-95.5 36v247zM626 316q-12 37 -29 72.5t-36.5 63.5t-42.5 45t-47 17q-27 0 -51 -18t-42.5 -44t-29.5 -56t-11 -55q0 -68 50.5 -95t154.5 -27h105q-4 23 -8.5 48.5t-12.5 48.5z
M581 1033h-223v203h223v-203z" />
    <glyph glyph-name="uni06D0" unicode="&#x6d0;" horiz-adv-x="1539" arabic-form="isolated" 
d="M414 903q-18 -66 -31.5 -120.5t-22.5 -101t-13.5 -87t-4.5 -79.5q0 -57 12 -110.5t49 -95t105 -67t179 -25.5q96 0 183.5 18.5t154.5 48t107 67t40 75.5q0 21 -13 38t-35.5 31.5t-52 29t-61.5 31.5q-44 23 -80.5 50.5t-63 61.5t-41.5 76.5t-15 96.5q0 91 43.5 163
t124 125.5t195 89t257.5 55.5v-241q-102 -14 -182 -29t-135 -35t-83.5 -45.5t-28.5 -59.5q0 -21 11 -37t32 -31t51 -30t67 -33q50 -25 88.5 -50.5t64.5 -56t39.5 -67.5t13.5 -85q0 -59 -21.5 -119.5t-63 -116.5t-102 -105t-138 -85t-171 -57t-201.5 -21q-148 0 -249.5 39
t-164.5 108.5t-90.5 165t-27.5 209.5q0 100 21 201t57 210h197zM881 -588h-223v203h223v-203zM881 -308h-223v203h223v-203z" />
    <glyph glyph-name="uni06D1.init" unicode="&#x6d1;" horiz-adv-x="684" 
d="M513 837v-474q0 -120 -31 -195t-83 -117.5t-119.5 -57.5t-140.5 -15h-139q-35 0 -52.5 34t-17.5 89t17.5 88.5t52.5 33.5h149q42 0 73 4t51.5 19t30.5 44.5t10 79.5v467h199zM329 -308h-222v203h222v-203zM667 -308h-222v203h222v-203zM498 -588h-223v203h223v-203z" />
    <glyph glyph-name="uni06D1.medi" unicode="&#x6d1;" horiz-adv-x="684" 
d="M513 439q0 -56 3 -96.5t19.5 -67t51 -39.5t97.5 -13v-245h-36q-91 0 -152.5 28.5t-90.5 88.5h-5q-26 -35 -58.5 -57.5t-68 -36t-71.5 -18.5t-67 -5h-135q-35 0 -52.5 33.5t-17.5 89.5q0 55 17.5 88.5t52.5 33.5h149q39 0 70 5t52 20.5t32 44.5t11 77v467h199v-398z
M329 -308h-222v203h222v-203zM667 -308h-222v203h222v-203zM498 -588h-223v203h223v-203z" />
    <glyph glyph-name="uni06D1.fina" unicode="&#x6d1;" horiz-adv-x="1710" 
d="M386 760q-10 -36 -18 -69.5t-14 -65.5t-9 -65t-3 -69q0 -65 14 -118.5t54 -92.5t112 -60.5t188 -21.5q84 0 141 4t91.5 14t49.5 27t15 42q0 19 -6.5 38t-15.5 38q-11 23 -21.5 52t-10.5 61q0 41 17.5 79t50 67.5t77.5 47t100 17.5q46 0 81.5 -12.5t63 -35t48.5 -53.5
t39 -67q24 -49 44.5 -101t49.5 -95t72.5 -70.5t113.5 -27.5v-245h-21q-65 0 -115 18.5t-88.5 49t-67.5 70t-52 82t-42 84.5t-37 78q-23 45 -45 70.5t-51 25.5q-26 0 -38.5 -16.5t-12.5 -39.5q0 -20 8.5 -42t16.5 -39q11 -23 21.5 -52t10.5 -55q0 -69 -44.5 -117.5t-116 -80
t-161.5 -46t-180 -14.5q-109 0 -192.5 19t-145 53t-102.5 81.5t-66.5 103.5t-36 119.5t-10.5 130.5q0 78 13 151t33 148h198v0zM654 -313h-222v203h222v-203zM992 -313h-222v203h222v-203zM823 -593h-223v203h223v-203z" />
    <glyph glyph-name="uni06D2" unicode="&#x6d2;" horiz-adv-x="1881" arabic-form="isolated" 
d="M904 745q-79 -66 -149.5 -115.5t-131.5 -86t-111.5 -62.5t-89.5 -45q-59 -30 -91 -53t-32 -54q0 -36 30 -58t100 -35t184.5 -17.5t283.5 -4.5q244 0 461 13.5t407 31.5v-243q-121 -12 -243 -20.5t-237 -14.5t-218.5 -8.5t-185.5 -2.5q-155 0 -273 10.5t-205 30.5t-145 49
t-93 67t-50 84t-15 100q0 61 20 112t55.5 95t85 82t109.5 73q47 28 97 56.5t101 60t102 67.5t99 78z" />
    <glyph glyph-name="uni06D3" unicode="&#x6d3;" horiz-adv-x="1881" arabic-form="isolated" 
d="M904 745q-79 -66 -149.5 -115.5t-131.5 -86t-111.5 -62.5t-89.5 -45q-59 -30 -91 -53t-32 -54q0 -36 30 -58t100 -35t184.5 -17.5t283.5 -4.5q244 0 461 13.5t407 31.5v-243q-121 -12 -243 -20.5t-237 -14.5t-218.5 -8.5t-185.5 -2.5q-155 0 -273 10.5t-205 30.5t-145 49
t-93 67t-50 84t-15 100q0 61 20 112t55.5 95t85 82t109.5 73q47 28 97 56.5t101 60t102 67.5t99 78zM557 1298q-20 5 -39 7.5t-32 2.5q-39 0 -65.5 -16t-26.5 -55q0 -40 30 -59.5t87 -19.5h92v-111h-369v105h82l1 4q-42 52 -42 105q0 35 14.5 64.5t41.5 51t65 33.5t84 12
q31 0 77 -8v-116z" />
    <glyph glyph-name="uni06D5.fina" unicode="&#x6d5;" horiz-adv-x="1026" 
d="M657 1061h198v-642q0 -50 4.5 -87t21.5 -61t51 -36t94 -12v-245h-41q-51 0 -97.5 9.5t-86 32.5t-70 61.5t-50.5 95.5q-41 -11 -81.5 -16.5t-80.5 -5.5q-75 0 -142.5 19.5t-118.5 60t-81.5 102t-30.5 144.5q0 99 42 177t113 136t163 95.5t193 54.5v117zM657 712
q-65 -13 -122.5 -31t-101 -43.5t-69 -59t-25.5 -76.5q0 -34 15.5 -56t41 -34.5t58.5 -17t68 -4.5t68.5 4t66.5 13v305z" />
    <glyph glyph-name="uni06EE.fina" unicode="&#x6ee;" horiz-adv-x="1026" 
d="M50 248q109 -14 195.5 -21.5t155.5 -7.5q70 0 113.5 9.5t67.5 27.5t32.5 45.5t8.5 63.5q0 46 -15 119t-39.5 161t-57.5 186t-69 193h231q57 -168 95 -310t67 -270q9 -37 19.5 -76t30.5 -71.5t53.5 -53t87.5 -20.5v-245h-28q-32 0 -62 7t-57 23t-50.5 43t-41.5 66h-5
q-30 -42 -72.5 -69.5t-93 -44t-107 -23.5t-115.5 -7q-57 0 -134 6.5t-162 20.5zM395 1623h138l242 -362h-165l-147 219l-144 -219h-161z" />
    <glyph glyph-name="uni06EF.fina" unicode="&#x6ef;" horiz-adv-x="855" 
d="M855 -22h-25q-59 0 -91 15.5t-55 44.5q-2 0 -2.5 -0.5t-2.5 -0.5q-6 -144 -45 -249t-102 -173.5t-146 -102t-176 -33.5q-49 0 -98.5 9.5t-111.5 32.5v245q68 -20 115.5 -29t88.5 -9q82 0 134.5 29t83 78.5t42 115t11.5 139.5q0 69 -9 137t-26.5 138.5t-42 147
t-55.5 163.5h218q34 -85 57.5 -172t39.5 -175q4 -24 15 -43.5t33 -33.5t58 -21.5t92 -7.5v-245zM344 1281h138l242 -362h-165l-147 219l-144 -219h-161z" />
    <glyph glyph-name="uni06FA.init" unicode="&#x6fa;" horiz-adv-x="1710" 
d="M513 649v-213q0 -55 3.5 -95t18.5 -66.5t45.5 -39t83.5 -12.5q31 0 60.5 4.5t52 20t36.5 44.5t14 78v279h199v-210q0 -56 3.5 -96.5t19.5 -67t48.5 -39.5t90.5 -13q33 0 61 4.5t48 19.5t31.5 44t11.5 79v467h199v-480q0 -116 -29.5 -189.5t-78.5 -115.5t-113 -58
t-132 -16q-40 0 -78.5 5.5t-72 18.5t-62 35.5t-48.5 55.5h-4q-27 -33 -60.5 -55t-68.5 -35.5t-71 -19t-67 -5.5q-93 0 -153.5 27t-96.5 88h-4q-28 -33 -62 -55t-70 -35.5t-72 -19t-68 -5.5h-128q-35 0 -52.5 33.5t-17.5 89.5q0 55 17.5 88.5t52.5 33.5h138q26 0 57 5.5
t57.5 21.5t44.5 44.5t18 75.5v279h198zM864 889h-222v203h222v-203zM1202 889h-222v203h222v-203zM1034 1169h-223v203h223v-203zM1034 -367h-223v203h223v-203z" />
    <glyph glyph-name="uni06FA.medi" unicode="&#x6fa;" horiz-adv-x="1710" 
d="M513 649v-213q0 -55 3.5 -95t18.5 -66.5t45.5 -39t83.5 -12.5q31 0 60.5 4.5t52 20t36.5 44.5t14 78v279h199v-210q0 -56 3.5 -96.5t19.5 -67t48.5 -39.5t90.5 -13q33 0 61 4.5t48 19.5t31.5 44t11.5 79v467h199v-392q0 -56 3 -98t19.5 -69.5t51 -41t97.5 -13.5v-245h-36
q-85 0 -139.5 24.5t-89.5 80.5h-4q-25 -32 -55.5 -52t-63.5 -32t-67.5 -16.5t-68.5 -4.5q-40 0 -78.5 5.5t-72 18.5t-62 35.5t-48.5 55.5h-4q-27 -33 -60.5 -55t-68.5 -35.5t-71 -19t-67 -5.5q-94 0 -154 27t-96 88h-4q-28 -33 -61 -55t-68.5 -35.5t-71 -19t-67.5 -5.5h-132
q-35 0 -52.5 33.5t-17.5 89.5q0 55 17.5 88.5t52.5 33.5h142q26 0 56.5 5.5t56.5 21.5t43 44.5t17 75.5v279h198zM864 889h-222v203h222v-203zM1202 889h-222v203h222v-203zM1034 1169h-223v203h223v-203zM1034 -367h-223v203h223v-203z" />
    <glyph glyph-name="uni06FA.fina" unicode="&#x6fa;" horiz-adv-x="2394" 
d="M373 329q-9 -56 -15 -99.5t-9.5 -79t-5 -64.5t-1.5 -55q0 -80 13.5 -137.5t47.5 -94.5t92 -55t147 -18q102 0 171 24t111.5 74.5t60.5 130t18 190.5q0 43 -2.5 87t-8 97.5t-13.5 118.5t-19 150h199q11 -88 19 -154.5t13 -123.5q3 -29 14 -48t31.5 -30t50.5 -15t71 -4
q30 0 57.5 4.5t48.5 20t34 44.5t13 78v279h199v-210q0 -56 3.5 -96.5t19.5 -67t48.5 -39.5t90.5 -13q33 0 61 4.5t48 19.5t31.5 44t11.5 79v467h199v-392q0 -56 3 -98t19.5 -69.5t51 -41t97.5 -13.5v-245h-36q-85 0 -141.5 24t-87.5 81h-4q-25 -32 -55.5 -52t-63.5 -32
t-67.5 -16.5t-68.5 -4.5q-40 0 -78.5 5.5t-72.5 19t-62 36.5t-47 59h-6q-20 -30 -47 -52.5t-58.5 -37.5t-65.5 -22.5t-66 -7.5q-53 0 -95.5 13t-74.5 45l-7 -1q-8 -137 -44 -241t-103.5 -174t-168 -105.5t-237.5 -35.5t-231 35t-152.5 102.5t-84.5 166t-26 225.5
q0 35 2 70.5t6 74t10.5 82t16.5 94.5h195v0zM1548 889h-222v203h222v-203zM1886 889h-222v203h222v-203zM1718 1169h-223v203h223v-203zM1718 -367h-223v203h223v-203z" />
    <glyph glyph-name="uni06FB.init" unicode="&#x6fb;" horiz-adv-x="2052" 
d="M467 598q14 -84 24 -152.5t18 -126.5q2 -12 7 -27.5t17.5 -29t35 -24t59.5 -13.5q26 69 65.5 147.5t92 155.5t117.5 148t142.5 125t166.5 86t190 32q121 0 211 -40t149.5 -110.5t89 -168t29.5 -211.5q0 -101 -23 -171t-64.5 -116.5t-99.5 -73t-128.5 -39.5t-150.5 -16
t-166 -3q-180 0 -308.5 0.5t-216.5 4t-140.5 10t-80.5 18.5q-33 14 -56 37t-42 58h-4q-24 -35 -56 -58t-67 -37t-70 -19.5t-66 -5.5h-142q-35 0 -52.5 33.5t-17.5 89.5q0 55 17.5 88.5t52.5 33.5h149q33 0 61 7t49 20.5t32.5 32t11.5 42.5q0 42 -10 106.5t-31 166.5h205z
M1383 672q-104 0 -191 -39t-157 -102.5t-122.5 -145t-87.5 -166.5q30 -2 85.5 -2.5t119.5 -1t129 -0.5h114q123 0 202 4t125 20.5t64 49t18 89.5q0 75 -21.5 130.5t-60.5 91.5t-94 54t-123 18zM1280 -367h-223v203h223v-203zM1156 1090h-223v203h223v-203z" />
    <glyph glyph-name="uni06FB.medi" unicode="&#x6fb;" horiz-adv-x="2052" 
d="M467 598q14 -84 24 -152.5t18 -126.5q2 -12 7 -27.5t17.5 -29t35 -24t59.5 -13.5q26 69 65.5 147.5t92 155.5t117.5 148t142.5 125t166.5 86t190 32q118 0 207 -38.5t148.5 -107t90 -162.5t33.5 -204q1 -45 6 -79.5t22.5 -58t51 -35t91.5 -11.5v-245h-36q-42 0 -78 6
t-65.5 20.5t-52 38.5t-36.5 59h-6q-39 -48 -96.5 -75t-127 -39.5t-147.5 -15t-158 -2.5q-180 0 -308.5 0.5t-216.5 3.5t-140.5 10t-80.5 19q-32 14 -55.5 37t-42.5 58h-4q-25 -35 -57 -58t-66.5 -37t-69.5 -19.5t-66 -5.5h-142q-35 0 -52.5 33.5t-17.5 89.5q0 55 17.5 88.5
t52.5 33.5h149q33 0 61 7t49 20.5t32.5 32t11.5 42.5q0 42 -10 106.5t-31 166.5h205zM1383 672q-104 0 -191 -39t-157 -102.5t-122.5 -145t-87.5 -166.5q30 -2 85.5 -2.5t119.5 -1t129 -0.5h114q123 0 202 4t125 20.5t64 49t18 89.5q0 75 -21.5 130.5t-60.5 91.5t-94 54
t-123 18zM1156 1090h-223v203h223v-203zM1280 -367h-223v203h223v-203z" />
    <glyph glyph-name="uni06FB.fina" unicode="&#x6fb;" horiz-adv-x="2736" 
d="M373 329q-8 -56 -14 -100t-10 -79t-5.5 -64.5t-1.5 -57.5q0 -78 14 -135t48.5 -94t93 -55t147.5 -18q102 0 171 24t110 75.5t58.5 132.5t17.5 195q0 41 -2.5 87t-9 100t-17.5 117.5t-28 140.5h205q15 -84 24.5 -151t17.5 -118q3 -21 7.5 -37.5t16.5 -29.5t34 -22.5
t61 -14.5q26 69 65.5 147.5t92 155.5t117.5 148t142.5 125t167 86t190.5 32q118 0 207 -38.5t148 -107t90 -162.5t34 -204q1 -45 6 -79.5t22 -58t50.5 -35t92.5 -11.5v-245h-37q-42 0 -78 6t-65.5 20.5t-52 38.5t-36.5 59h-6q-39 -48 -96.5 -75t-127 -39.5t-147.5 -15
t-158 -2.5q-172 0 -286.5 0.5t-188.5 3.5t-116.5 9t-69.5 17q-22 8 -40.5 22t-33.5 31q-2 -1 -2.5 -1t-2.5 -1q-6 -141 -41.5 -248t-104 -179t-171 -108.5t-241.5 -36.5q-136 0 -230 35t-152 102t-83.5 165.5t-25.5 226.5q0 35 2 70.5t6 74.5t10.5 82t16.5 94h195zM2066 672
q-104 0 -191 -39t-157 -102.5t-122.5 -145t-87.5 -166.5q31 -2 86.5 -2.5t119.5 -1t129 -0.5h114q123 0 202 4t124.5 20.5t63.5 49t18 89.5q0 75 -21.5 130.5t-60.5 91.5t-94 54t-123 18zM1840 1090h-223v203h223v-203zM1964 -367h-223v203h223v-203z" />
    <glyph glyph-name="uni06FC.init" unicode="&#x6fc;" horiz-adv-x="1198" 
d="M1086 160q-123 -54 -232.5 -89.5t-211.5 -56t-201 -28.5t-202 -8h-239q-35 0 -52.5 33.5t-17.5 89.5q0 55 17.5 88.5t52.5 33.5h288l2 6q-47 42 -76 82.5t-46 79.5t-23 76t-6 71q0 94 39 171.5t110 132.5t169.5 85.5t217.5 30.5q38 0 81.5 -3.5t98.5 -13.5v-248
q-54 9 -103 14t-99 5q-60 0 -116.5 -5.5t-100.5 -25t-71 -56.5t-27 -99q0 -20 8.5 -49.5t32.5 -65.5t68.5 -77t116.5 -85q62 12 123.5 28.5t125 37.5t131 48t142.5 61v-264zM653 -367h-223v203h223v-203zM653 1140h-223v203h223v-203z" />
    <glyph glyph-name="uni06FC.medi" unicode="&#x6fc;" horiz-adv-x="1197" 
d="M156 874q48 9 108.5 19t125.5 18.5t131 14.5t126 6t126.5 -9t123 -35t93 -74t36.5 -127q0 -40 -11 -89.5t-32 -102.5t-52.5 -107t-72.5 -103q75 -31 157 -46.5t182 -15.5v-245h-67q-135 0 -252 35.5t-213 107.5h-6q-102 -66 -233.5 -104.5t-303.5 -38.5h-122
q-35 0 -52.5 33.5t-17.5 89.5q0 55 17.5 88.5t52.5 33.5h132q105 0 186.5 14t149.5 39q-92 80 -167 168t-145 194v236zM376 675q60 -85 131 -155.5t159 -131.5h4q37 30 66.5 65t49.5 68.5t30.5 62t10.5 46.5q0 43 -49.5 60.5t-137.5 17.5q-62 0 -132.5 -6.5t-131.5 -17.5v-9
zM710 -367h-223v203h223v-203zM710 1140h-223v203h223v-203z" />
    <glyph glyph-name="uni06FC.fina" unicode="&#x6fc;" horiz-adv-x="1197" 
d="M1197 -22h-52q-88 0 -171 18.5t-161 53t-150.5 82t-138.5 106.5q-81 -36 -133 -73t-82 -74t-41.5 -72.5t-11.5 -68.5q0 -53 23.5 -98.5t73 -78.5t127.5 -52t187 -19q49 0 96.5 4t96 12.5t100.5 22t109 33.5v-234q-58 -19 -109 -32.5t-100 -21.5t-96.5 -12t-98.5 -4
q-152 0 -265.5 31.5t-189 91.5t-113 146t-37.5 195q0 67 16 129.5t52 120.5t95 111t146 103q-57 68 -111 146.5t-102 163.5v234q43 7 101 17.5t123.5 20t133.5 16t130 6.5q41 0 84.5 -3.5t85.5 -13t80 -26.5t66.5 -44t45 -65.5t16.5 -91.5q0 -38 -11.5 -88t-41.5 -105
t-83 -110.5t-136 -104.5q93 -63 202.5 -95t234.5 -32h10v-245zM376 745q45 -73 94 -135.5t103 -118.5q74 35 122.5 67t76.5 60t39 50.5t11 37.5q0 38 -47.5 55t-137.5 17q-63 0 -132 -6.5t-129 -17.5v-9zM650 -135h-223v203h223v-203zM710 1204h-223v203h223v-203z" />
    <glyph glyph-name="uni06FF.init" unicode="&#x6ff;" horiz-adv-x="1368" 
d="M333 1192q206 -113 366.5 -236.5t271 -243.5t168.5 -231t58 -198q0 -63 -11.5 -118.5t-32 -97t-48.5 -65.5t-61 -24q-47 0 -103 5t-116 15.5t-121 28t-119 43.5q-43 -30 -95.5 -48t-109.5 -28t-116 -13t-114 -3h-150q-38 0 -64.5 32t-26.5 91q0 60 26.5 91t64.5 31
q53 0 108 -1t96 -3q42 -2 77 -2.5t50 -0.5l2 5q-48 22 -81 52t-54 66t-30 77t-9 84q0 55 14.5 110t43 105t69 91.5t93.5 69.5l2 7l-48 30v279zM731 251q58 -20 121.5 -30.5t125.5 -15.5q14 28 14 53q0 35 -16.5 73t-44.5 76.5t-65 78t-78 77.5l-6 -4q2 -15 3.5 -30t1.5 -31
q0 -66 -12.5 -129.5t-43.5 -117.5zM557 308q40 62 50.5 113.5t10.5 92.5q0 32 -10 65t-27 59.5t-38.5 43.5t-44.5 17q-28 0 -54 -19.5t-46.5 -48t-33 -60t-12.5 -56.5q0 -18 5 -40t25.5 -48.5t61.5 -56t113 -62.5zM532 1682h138l242 -362h-165l-147 219l-144 -219h-161z" />
    <glyph glyph-name="uni06FF.medi" unicode="&#x6ff;" horiz-adv-x="1026" 
d="M158 223q22 132 56.5 235.5t74.5 181.5t84 132t86.5 88t81 49t67.5 15q50 0 95 -38t78.5 -98.5t53.5 -135.5t20 -149q0 -85 -27 -156.5t-82 -118.5l1 -5h279v-245h-263l-2 -5q50 -48 72 -101.5t22 -108.5q0 -56 -21.5 -108.5t-60 -93t-92 -64.5t-117.5 -24q-37 0 -80 10
t-87 32.5t-85.5 60.5t-76 94t-58 132t-31.5 176h-146q-35 0 -52.5 33.5t-17.5 89.5q0 55 17.5 88.5t52.5 33.5h158zM460 223q48 0 85 24t61.5 61.5t37.5 82t13 86.5q0 34 -7.5 69.5t-19.5 64.5t-28 47.5t-32 18.5q-20 0 -50 -29.5t-61.5 -87t-60 -142.5t-44.5 -195h106z
M341 -22q9 -64 30 -113t50.5 -82t65.5 -50t74 -17q51 0 74.5 26t23.5 60q0 28 -15.5 59t-44 57t-68.5 43t-88 17h-102zM465 1532h138l242 -362h-165l-147 219l-144 -219h-161z" />
    <glyph glyph-name="uni06FF.fina" unicode="&#x6ff;" horiz-adv-x="1368" 
d="M498 223q22 132 56.5 235.5t74.5 181.5t84 132t86.5 88t81 49t67.5 15q50 0 95.5 -38t79.5 -98.5t54 -135.5t20 -149q0 -85 -28 -156.5t-83 -118.5l1 -5h281v-245h-265q-1 -1 -1 -2t-1 -3q50 -48 73 -101.5t23 -108.5q0 -56 -21.5 -108.5t-60.5 -93t-92.5 -64.5
t-117.5 -24q-37 0 -80.5 10t-87 32.5t-85.5 60.5t-76.5 94t-58 132t-31.5 176q-81 0 -140 2t-102.5 5t-74.5 7.5t-54 9.5q-12 60 -24 122.5t-24 125.5q54 -7 103 -12t99.5 -8.5t106 -5t122.5 -1.5zM911 677q-20 0 -50.5 -29.5t-62.5 -87t-60 -142t-44 -195.5h106q48 0 85 24
t62.5 61.5t38.5 82t13 86.5q0 34 -7.5 69.5t-20 64.5t-28.5 47.5t-32 18.5zM681 -22q9 -64 30 -113t51 -82t66.5 -50t74.5 -17q51 0 74.5 26t23.5 60q0 28 -16 59t-44.5 57t-69 43t-88.5 17h-102zM807 1532h138l242 -362h-165l-147 219l-144 -219h-161z" />
    <glyph glyph-name="uniFB51" unicode="&#x671;" horiz-adv-x="513" arabic-form="final" 
d="M342 1516v-1077q0 -59 4 -100t21.5 -66.5t51.5 -37.5t94 -12v-245h-39q-102 0 -166.5 32.5t-101 87.5t-50 128t-13.5 154v1136h199zM-134 1740q27 18 50 31.5t44.5 22.5t43 13t45.5 4h11.5t14.5 -2q36 112 97.5 164.5t141.5 52.5q42 0 74.5 -14t55 -37t34 -53.5
t11.5 -63.5q0 -41 -17.5 -78.5t-47.5 -65.5t-69.5 -44.5t-83.5 -16.5q-33 0 -64.5 8t-60.5 18t-55 18t-48 8q-20 0 -47.5 -11t-71.5 -44zM266 1759q24 0 43 8.5t31.5 22.5t19.5 31t7 35q0 29 -17.5 46.5t-45.5 17.5q-36 0 -70.5 -32t-63.5 -107q26 -10 51 -16t45 -6z" />
    <glyph glyph-name="uniFB53" unicode="&#x67b;" horiz-adv-x="1881" arabic-form="final" 
d="M374 650q-7 -33 -13 -61t-10 -53.5t-6.5 -50t-2.5 -50.5q0 -24 2.5 -45.5t9.5 -41t19.5 -37t32.5 -32.5q30 -23 75 -36t114 -19.5t166 -8.5t231 -2q149 0 249 4t160 20.5t85 51t25 95.5v453h199v-398q0 -56 3 -96.5t19.5 -67t51 -39.5t97.5 -13v-245h-40
q-88 0 -144.5 29.5t-86.5 89.5h-6q-48 -45 -115 -70.5t-152 -38t-186.5 -15.5t-218.5 -3q-109 0 -209 2t-186 12t-156 32t-118 61q-35 28 -58.5 64t-38 77t-21 85t-6.5 88q0 68 10 132t26 127h199zM1053 -588h-223v203h223v-203zM1053 -308h-223v203h223v-203z" />
    <glyph glyph-name="uniFB54" unicode="&#x67b;" horiz-adv-x="684" arabic-form="initial" 
d="M513 837v-474q0 -120 -31 -195t-83 -117.5t-119.5 -57.5t-140.5 -15h-139q-35 0 -52.5 34t-17.5 89t17.5 88.5t52.5 33.5h149q42 0 73 4t51.5 19t30.5 44.5t10 79.5v467h199zM499 -588h-223v203h223v-203zM499 -308h-223v203h223v-203z" />
    <glyph glyph-name="uniFB55" unicode="&#x67b;" horiz-adv-x="684" arabic-form="medial" 
d="M513 439q0 -56 3 -96.5t19.5 -67t51 -39.5t97.5 -13v-245h-36q-91 0 -152.5 28.5t-90.5 88.5h-5q-26 -35 -58.5 -57.5t-68 -36t-71.5 -18.5t-67 -5h-135q-35 0 -52.5 33.5t-17.5 89.5q0 55 17.5 88.5t52.5 33.5h149q39 0 70 5t52 20.5t32 44.5t11 77v467h199v-398z
M499 -588h-223v203h223v-203zM499 -308h-223v203h223v-203z" />
    <glyph glyph-name="uniFB57" unicode="&#x67e;" horiz-adv-x="1881" arabic-form="final" 
d="M374 650q-7 -33 -13 -61t-10 -53.5t-6.5 -50t-2.5 -50.5q0 -24 2.5 -45.5t9.5 -41t19.5 -37t32.5 -32.5q30 -23 75 -36t114 -19.5t166 -8.5t231 -2q149 0 249 4t160 20.5t85 51t25 95.5v453h199v-398q0 -56 3 -96.5t19.5 -67t51 -39.5t97.5 -13v-245h-40
q-88 0 -144.5 29.5t-86.5 89.5h-6q-48 -45 -115 -70.5t-152 -38t-186.5 -15.5t-218.5 -3q-109 0 -209 2t-186 12t-156 32t-118 61q-35 28 -58.5 64t-38 77t-21 85t-6.5 88q0 68 10 132t26 127h199zM883 -308h-222v203h222v-203zM1221 -308h-222v203h222v-203zM1052 -588
h-223v203h223v-203z" />
    <glyph glyph-name="uniFB58" unicode="&#x67e;" horiz-adv-x="684" arabic-form="initial" 
d="M513 837v-474q0 -120 -31 -195t-83 -117.5t-119.5 -57.5t-140.5 -15h-139q-35 0 -52.5 34t-17.5 89t17.5 88.5t52.5 33.5h149q42 0 73 4t51.5 19t30.5 44.5t10 79.5v467h199zM329 -308h-222v203h222v-203zM667 -308h-222v203h222v-203zM498 -588h-223v203h223v-203z" />
    <glyph glyph-name="uniFB59" unicode="&#x67e;" horiz-adv-x="684" arabic-form="medial" 
d="M513 439q0 -56 3 -96.5t19.5 -67t51 -39.5t97.5 -13v-245h-36q-91 0 -152.5 28.5t-90.5 88.5h-5q-26 -35 -58.5 -57.5t-68 -36t-71.5 -18.5t-67 -5h-135q-35 0 -52.5 33.5t-17.5 89.5q0 55 17.5 88.5t52.5 33.5h149q39 0 70 5t52 20.5t32 44.5t11 77v467h199v-398z
M329 -308h-222v203h222v-203zM667 -308h-222v203h222v-203zM498 -588h-223v203h223v-203z" />
    <glyph glyph-name="uniFB5B" unicode="&#x680;" horiz-adv-x="1881" arabic-form="final" 
d="M374 650q-7 -33 -13 -61t-10 -53.5t-6.5 -50t-2.5 -50.5q0 -24 2.5 -45.5t9.5 -41t19.5 -37t32.5 -32.5q30 -23 75 -36t114 -19.5t166 -8.5t231 -2q149 0 249 4t160 20.5t85 51t25 95.5v453h199v-398q0 -56 3 -96.5t19.5 -67t51 -39.5t97.5 -13v-245h-40
q-88 0 -144.5 29.5t-86.5 89.5h-6q-48 -45 -115 -70.5t-152 -38t-186.5 -15.5t-218.5 -3q-109 0 -209 2t-186 12t-156 32t-118 61q-35 28 -58.5 64t-38 77t-21 85t-6.5 88q0 68 10 132t26 127h199zM883 -588h-222v203h222v-203zM1221 -588h-222v203h222v-203zM883 -308h-222
v203h222v-203zM1221 -308h-222v203h222v-203z" />
    <glyph glyph-name="uniFB5C" unicode="&#x680;" horiz-adv-x="684" arabic-form="initial" 
d="M513 837v-474q0 -120 -31 -195t-83 -117.5t-119.5 -57.5t-140.5 -15h-139q-35 0 -52.5 34t-17.5 89t17.5 88.5t52.5 33.5h149q42 0 73 4t51.5 19t30.5 44.5t10 79.5v467h199zM329 -588h-222v203h222v-203zM667 -588h-222v203h222v-203zM329 -308h-222v203h222v-203z
M667 -308h-222v203h222v-203z" />
    <glyph glyph-name="uniFB5D" unicode="&#x680;" horiz-adv-x="684" arabic-form="medial" 
d="M513 439q0 -56 3 -96.5t19.5 -67t51 -39.5t97.5 -13v-245h-36q-91 0 -152.5 28.5t-90.5 88.5h-5q-26 -35 -58.5 -57.5t-68 -36t-71.5 -18.5t-67 -5h-135q-35 0 -52.5 33.5t-17.5 89.5q0 55 17.5 88.5t52.5 33.5h149q39 0 70 5t52 20.5t32 44.5t11 77v467h199v-398z
M329 -588h-222v203h222v-203zM667 -588h-222v203h222v-203zM329 -308h-222v203h222v-203zM667 -308h-222v203h222v-203z" />
    <glyph glyph-name="uniFB5F" unicode="&#x67a;" horiz-adv-x="1881" arabic-form="final" 
d="M374 650q-7 -33 -13 -61t-10 -53.5t-6.5 -50t-2.5 -50.5q0 -24 2.5 -45.5t9.5 -41t19.5 -37t32.5 -32.5q30 -23 75 -36t114 -19.5t166 -8.5t231 -2q149 0 249 4t160 20.5t85 51t25 95.5v453h199v-398q0 -56 3 -96.5t19.5 -67t51 -39.5t97.5 -13v-245h-40
q-88 0 -144.5 29.5t-86.5 89.5h-6q-48 -45 -115 -70.5t-152 -38t-186.5 -15.5t-218.5 -3q-109 0 -209 2t-186 12t-156 32t-118 61q-35 28 -58.5 64t-38 77t-21 85t-6.5 88q0 68 10 132t26 127h199zM1053 1060h-223v203h223v-203zM1053 1340h-223v203h223v-203z" />
    <glyph glyph-name="uniFB60" unicode="&#x67a;" horiz-adv-x="684" arabic-form="initial" 
d="M513 837v-474q0 -120 -31 -195t-83 -117.5t-119.5 -57.5t-140.5 -15h-139q-35 0 -52.5 34t-17.5 89t17.5 88.5t52.5 33.5h149q42 0 73 4t51.5 19t30.5 44.5t10 79.5v467h199zM519 1060h-223v203h223v-203zM519 1340h-223v203h223v-203z" />
    <glyph glyph-name="uniFB61" unicode="&#x67a;" horiz-adv-x="684" arabic-form="medial" 
d="M513 439q0 -56 3 -96.5t19.5 -67t51 -39.5t97.5 -13v-245h-36q-91 0 -152.5 28.5t-90.5 88.5h-5q-26 -35 -58.5 -57.5t-68 -36t-71.5 -18.5t-67 -5h-135q-35 0 -52.5 33.5t-17.5 89.5q0 55 17.5 88.5t52.5 33.5h149q39 0 70 5t52 20.5t32 44.5t11 77v467h199v-398z
M519 1060h-223v203h223v-203zM519 1340h-223v203h223v-203z" />
    <glyph glyph-name="uniFB63" unicode="&#x67f;" horiz-adv-x="1881" arabic-form="final" 
d="M374 650q-7 -33 -13 -61t-10 -53.5t-6.5 -50t-2.5 -50.5q0 -24 2.5 -45.5t9.5 -41t19.5 -37t32.5 -32.5q30 -23 75 -36t114 -19.5t166 -8.5t231 -2q149 0 249 4t160 20.5t85 51t25 95.5v453h199v-398q0 -56 3 -96.5t19.5 -67t51 -39.5t97.5 -13v-245h-40
q-88 0 -144.5 29.5t-86.5 89.5h-6q-48 -45 -115 -70.5t-152 -38t-186.5 -15.5t-218.5 -3q-109 0 -209 2t-186 12t-156 32t-118 61q-35 28 -58.5 64t-38 77t-21 85t-6.5 88q0 68 10 132t26 127h199zM883 1060h-222v203h222v-203zM1221 1060h-222v203h222v-203zM883 1340h-222
v203h222v-203zM1221 1340h-222v203h222v-203z" />
    <glyph glyph-name="uniFB64" unicode="&#x67f;" horiz-adv-x="684" arabic-form="initial" 
d="M513 837v-474q0 -120 -31 -195t-83 -117.5t-119.5 -57.5t-140.5 -15h-139q-35 0 -52.5 34t-17.5 89t17.5 88.5t52.5 33.5h149q42 0 73 4t51.5 19t30.5 44.5t10 79.5v467h199zM349 1060h-222v203h222v-203zM687 1060h-222v203h222v-203zM349 1340h-222v203h222v-203z
M687 1340h-222v203h222v-203z" />
    <glyph glyph-name="uniFB65" unicode="&#x67f;" horiz-adv-x="684" arabic-form="medial" 
d="M513 439q0 -56 3 -96.5t19.5 -67t51 -39.5t97.5 -13v-245h-36q-91 0 -152.5 28.5t-90.5 88.5h-5q-26 -35 -58.5 -57.5t-68 -36t-71.5 -18.5t-67 -5h-135q-35 0 -52.5 33.5t-17.5 89.5q0 55 17.5 88.5t52.5 33.5h149q39 0 70 5t52 20.5t32 44.5t11 77v467h199v-398z
M349 1060h-222v203h222v-203zM687 1060h-222v203h222v-203zM349 1340h-222v203h222v-203zM687 1340h-222v203h222v-203z" />
    <glyph glyph-name="uniFB67" unicode="&#x679;" horiz-adv-x="1881" arabic-form="final" 
d="M374 650q-7 -33 -13 -61t-10 -53.5t-6.5 -50t-2.5 -50.5q0 -24 2.5 -45.5t9.5 -41t19.5 -37t32.5 -32.5q30 -23 75 -36t114 -19.5t166 -8.5t231 -2q149 0 249 4t160 20.5t85 51t25 95.5v453h199v-398q0 -56 3 -96.5t19.5 -67t51 -39.5t97.5 -13v-245h-40
q-88 0 -144.5 29.5t-86.5 89.5h-6q-48 -45 -115 -70.5t-152 -38t-186.5 -15.5t-218.5 -3q-109 0 -209 2t-186 12t-156 32t-118 61q-35 28 -58.5 64t-38 77t-21 85t-6.5 88q0 68 10 132t26 127h199zM613 1026q31 -4 62 -5.5t65 -1.5v494h116v-322l3 -1q38 52 84.5 85
t111.5 33q51 0 87.5 -19.5t60.5 -52t35 -74.5t11 -87q0 -66 -20.5 -102t-56 -53t-83.5 -20t-104 -3q-71 0 -125.5 1t-96.5 2.5t-74.5 4t-59.5 5.5zM973 1016q48 0 79.5 1t51 7t27.5 18t8 35q0 56 -28 84.5t-67 28.5q-30 0 -57.5 -15t-51.5 -39.5t-43.5 -55.5t-34.5 -64h116z
" />
    <glyph glyph-name="uniFB68" unicode="&#x679;" horiz-adv-x="684" arabic-form="initial" 
d="M513 837v-474q0 -120 -31 -195t-83 -117.5t-119.5 -57.5t-140.5 -15h-139q-35 0 -52.5 34t-17.5 89t17.5 88.5t52.5 33.5h149q42 0 73 4t51.5 19t30.5 44.5t10 79.5v467h199zM37 1147q31 -4 62 -5.5t65 -1.5v494h116v-322l3 -1q38 52 84.5 85t111.5 33q51 0 87.5 -19.5
t60.5 -52t35 -74.5t11 -87q0 -66 -20.5 -102t-56 -53t-83.5 -20t-104 -3q-71 0 -125.5 1t-96.5 2.5t-74.5 4t-59.5 5.5zM397 1137q48 0 79.5 1t51 7t27.5 18t8 35q0 56 -28 84.5t-67 28.5q-30 0 -57.5 -15t-51.5 -39.5t-43.5 -55.5t-34.5 -64h116z" />
    <glyph glyph-name="uniFB69" unicode="&#x679;" horiz-adv-x="684" arabic-form="medial" 
d="M513 439q0 -56 3 -96.5t19.5 -67t51 -39.5t97.5 -13v-245h-36q-91 0 -152.5 28.5t-90.5 88.5h-5q-26 -35 -58.5 -57.5t-68 -36t-71.5 -18.5t-67 -5h-135q-35 0 -52.5 33.5t-17.5 89.5q0 55 17.5 88.5t52.5 33.5h149q39 0 70 5t52 20.5t32 44.5t11 77v467h199v-398z
M42 1147q31 -4 62 -5.5t65 -1.5v494h116v-322l3 -1q38 52 84.5 85t111.5 33q51 0 87.5 -19.5t60.5 -52t35 -74.5t11 -87q0 -66 -20.5 -102t-56 -53t-83.5 -20t-104 -3q-71 0 -125.5 1t-96.5 2.5t-74.5 4t-59.5 5.5zM402 1137q48 0 79.5 1t51 7t27.5 18t8 35q0 56 -28 84.5
t-67 28.5q-30 0 -57.5 -15t-51.5 -39.5t-43.5 -55.5t-34.5 -64h116z" />
    <glyph glyph-name="uniFB6B" unicode="&#x6a4;" horiz-adv-x="2052" arabic-form="final" 
d="M1500 709q-27 0 -51 -18t-42 -45t-28.5 -59t-10.5 -60q0 -21 9.5 -47t38 -57.5t81.5 -68t141 -78.5q11 9 19 22t12.5 28t7 30t3.5 28q1 14 -0.5 29t-3.5 32q-6 40 -22.5 86.5t-40.5 86t-53 65.5t-60 26zM374 650q-8 -33 -13.5 -61t-10 -53.5t-6.5 -50t-2 -50.5
q0 -49 11.5 -86t40.5 -62q28 -27 74.5 -41.5t116 -22t166.5 -9t226 -1.5h188q36 0 63 0.5t49 1t39.5 1t32.5 1.5l3 8q-94 58 -137.5 132.5t-43.5 165.5q0 50 12 102t34.5 101t53.5 91.5t69 74.5t81 50.5t90 18.5q51 0 98 -23t88 -63.5t75 -95.5t58 -118t37.5 -131t13.5 -136
q0 -48 -8 -88t-24 -75q22 -3 43.5 -4.5t45.5 -2t51.5 -1t62.5 -0.5v-245h-32q-44 0 -93 3.5t-98.5 10.5t-96.5 18t-86 26q-53 -23 -118 -36t-136.5 -19.5t-148 -8.5t-153.5 -2h-116q-129 0 -237 1.5t-196 11.5t-155.5 30t-116.5 58q-37 29 -62 65.5t-40 78t-21.5 86.5
t-6.5 90q0 68 10 132t26 127h199zM1424 1204h-222v203h222v-203zM1762 1204h-222v203h222v-203zM1594 1484h-223v203h223v-203z" />
    <glyph glyph-name="uniFB6C" unicode="&#x6a4;" horiz-adv-x="1026" arabic-form="initial" 
d="M474 709q-27 0 -51 -18t-42 -45.5t-28.5 -59.5t-10.5 -59q0 -21 9.5 -47t38 -57.5t81.5 -68t141 -78.5q21 22 31.5 50.5t10.5 61.5q0 14 -1 28t-4 37q-5 37 -21.5 82t-40 83.5t-53 64.5t-60.5 26zM321 225q-94 58 -135 132.5t-41 165.5q0 50 12 102t34.5 101t53.5 91.5
t69 74.5t81 50.5t90 18.5q50 0 97.5 -23t88.5 -63.5t75 -95t58 -117.5t37.5 -131.5t13.5 -136.5q0 -98 -29.5 -167.5t-79.5 -115.5t-116.5 -72.5t-141.5 -40t-153.5 -17t-152.5 -3.5h-182q-35 0 -52.5 33.5t-17.5 89.5q0 55 17.5 88.5t52.5 33.5h129q20 0 47 -1l54 -2
t50.5 -2t37.5 -1zM401 1204h-222v203h222v-203zM739 1204h-222v203h222v-203zM571 1484h-223v203h223v-203z" />
    <glyph glyph-name="uniFB6D" unicode="&#x6a4;" horiz-adv-x="1026" arabic-form="medial" 
d="M475 709q-27 0 -51 -18t-42.5 -45.5t-29 -59.5t-10.5 -59q0 -21 9.5 -47.5t38 -58t82 -68t141.5 -78.5q11 9 18.5 22t12.5 28t7.5 30.5t2.5 28.5q1 14 -0.5 29t-3.5 32q-6 40 -22.5 86.5t-40 86t-52.5 65.5t-60 26zM322 225q-94 58 -135.5 132.5t-41.5 165.5
q0 50 12.5 102t34.5 101t53.5 91.5t69 74.5t81 50.5t90.5 18.5q51 0 98 -23t88 -63.5t74.5 -95.5t58 -118t37.5 -131t13 -136q0 -48 -8 -88.5t-23 -74.5q22 -3 43.5 -4.5t45 -2t51 -1t62.5 -0.5v-245h-32q-44 0 -92 3.5t-97 10.5t-96 18t-88 27q-54 -22 -114 -34
t-119.5 -17.5t-116 -6.5t-104.5 -1h-167q-35 0 -52.5 33.5t-17.5 89.5q0 55 17.5 88.5t52.5 33.5h130q20 0 47 -1l54 -2t50.5 -2t37.5 -1zM401 1204h-222v203h222v-203zM739 1204h-222v203h222v-203zM571 1484h-223v203h223v-203z" />
    <glyph glyph-name="uniFB6F" unicode="&#x6a6;" horiz-adv-x="2052" arabic-form="final" 
d="M1500 709q-27 0 -51 -18t-42 -45t-28.5 -59t-10.5 -60q0 -21 9.5 -47t38 -57.5t81.5 -68t141 -78.5q11 9 19 22t12.5 28t7 30t3.5 28q1 14 -0.5 29t-3.5 32q-6 40 -22.5 86.5t-40.5 86t-53 65.5t-60 26zM374 650q-8 -33 -13.5 -61t-10 -53.5t-6.5 -50t-2 -50.5
q0 -49 11.5 -86t40.5 -62q28 -27 74.5 -41.5t116 -22t166.5 -9t226 -1.5h188q36 0 63 0.5t49 1t39.5 1t32.5 1.5l3 8q-94 58 -137.5 132.5t-43.5 165.5q0 50 12 102t34.5 101t53.5 91.5t69 74.5t81 50.5t90 18.5q51 0 98 -23t88 -63.5t75 -95.5t58 -118t37.5 -131t13.5 -136
q0 -48 -8 -88t-24 -75q22 -3 43.5 -4.5t45.5 -2t51.5 -1t62.5 -0.5v-245h-32q-44 0 -93 3.5t-98.5 10.5t-96.5 18t-86 26q-53 -23 -118 -36t-136.5 -19.5t-148 -8.5t-153.5 -2h-116q-129 0 -237 1.5t-196 11.5t-155.5 30t-116.5 58q-37 29 -62 65.5t-40 78t-21.5 86.5
t-6.5 90q0 68 10 132t26 127h199zM1424 1204h-222v203h222v-203zM1762 1204h-222v203h222v-203zM1424 1484h-222v203h222v-203zM1762 1484h-222v203h222v-203z" />
    <glyph glyph-name="uniFB70" unicode="&#x6a6;" horiz-adv-x="1026" arabic-form="initial" 
d="M474 709q-27 0 -51 -18t-42 -45.5t-28.5 -59.5t-10.5 -59q0 -21 9.5 -47t38 -57.5t81.5 -68t141 -78.5q21 22 31.5 50.5t10.5 61.5q0 14 -1 28t-4 37q-5 37 -21.5 82t-40 83.5t-53 64.5t-60.5 26zM321 225q-94 58 -135 132.5t-41 165.5q0 50 12 102t34.5 101t53.5 91.5
t69 74.5t81 50.5t90 18.5q50 0 97.5 -23t88.5 -63.5t75 -95t58 -117.5t37.5 -131.5t13.5 -136.5q0 -98 -29.5 -167.5t-79.5 -115.5t-116.5 -72.5t-141.5 -40t-153.5 -17t-152.5 -3.5h-182q-35 0 -52.5 33.5t-17.5 89.5q0 55 17.5 88.5t52.5 33.5h129q20 0 47 -1l54 -2
t50.5 -2t37.5 -1zM401 1204h-222v203h222v-203zM739 1204h-222v203h222v-203zM401 1484h-222v203h222v-203zM739 1484h-222v203h222v-203z" />
    <glyph glyph-name="uniFB71" unicode="&#x6a6;" horiz-adv-x="1026" arabic-form="medial" 
d="M475 709q-27 0 -51 -18t-42.5 -45.5t-29 -59.5t-10.5 -59q0 -21 9.5 -47.5t38 -58t82 -68t141.5 -78.5q11 9 18.5 22t12.5 28t7.5 30.5t2.5 28.5q1 14 -0.5 29t-3.5 32q-6 40 -22.5 86.5t-40 86t-52.5 65.5t-60 26zM322 225q-94 58 -135.5 132.5t-41.5 165.5
q0 50 12.5 102t34.5 101t53.5 91.5t69 74.5t81 50.5t90.5 18.5q51 0 98 -23t88 -63.5t74.5 -95.5t58 -118t37.5 -131t13 -136q0 -48 -8 -88.5t-23 -74.5q22 -3 43.5 -4.5t45 -2t51 -1t62.5 -0.5v-245h-32q-44 0 -92 3.5t-97 10.5t-96 18t-88 27q-54 -22 -114 -34
t-119.5 -17.5t-116 -6.5t-104.5 -1h-167q-35 0 -52.5 33.5t-17.5 89.5q0 55 17.5 88.5t52.5 33.5h130q20 0 47 -1l54 -2t50.5 -2t37.5 -1zM401 1204h-222v203h222v-203zM739 1204h-222v203h222v-203zM401 1484h-222v203h222v-203zM739 1484h-222v203h222v-203z" />
    <glyph glyph-name="uniFB73" unicode="&#x684;" horiz-adv-x="1197" arabic-form="final" 
d="M756 44h-181v179h181v-179zM756 -203h-181v179h181v-179zM171 896q63 20 125 30.5t134 10.5q74 0 130.5 -12t105 -30.5t92.5 -39.5t94.5 -39.5t111 -31.5t140.5 -14l-46 -262q-28 -8 -55.5 -16t-54.5 -16q9 -82 27.5 -132t48.5 -77t73 -35.5t100 -8.5v-245h-29
q-87 0 -153 24.5t-112.5 78t-74.5 138t-39 203.5q-136 -51 -225 -104.5t-141.5 -108t-74 -109t-21.5 -108.5q0 -51 18.5 -101t63 -90t118.5 -65t186 -25q94 0 192 20t212 61v-234q-61 -21 -114.5 -36t-103 -24.5t-97.5 -14t-97 -4.5q-147 0 -256 36.5t-180 101t-106 154
t-35 195.5q0 59 11.5 120.5t39 122t72.5 119t111.5 111.5t157 99.5t208.5 84.5v9q-35 18 -65 31.5t-62 22.5t-69 13t-85 4q-74 0 -145 -9.5t-131 -26.5v229z" />
    <glyph glyph-name="uniFB74" unicode="&#x684;" horiz-adv-x="1197" arabic-form="initial" 
d="M171 819q68 20 132.5 31t140.5 11q72 0 128.5 -12t106 -31t95 -43.5t94.5 -48.5q31 -16 62.5 -27t66.5 -19t75 -12.5t90 -7.5l-45 -268q-48 -11 -107 -46.5t-131 -81.5t-158.5 -96.5t-189.5 -92.5t-224 -69.5t-262 -27.5h-45q-35 0 -52.5 33.5t-17.5 89.5q0 55 17.5 88.5
t52.5 33.5h54q118 0 224 24.5t202.5 64.5t184 90.5t170.5 103.5v7q-47 27 -90.5 48t-90 35t-100 21.5t-121.5 7.5q-74 0 -136.5 -8.5t-125.5 -25.5v228zM710 -588h-223v203h223v-203zM710 -308h-223v203h223v-203z" />
    <glyph glyph-name="uniFB75" unicode="&#x684;" horiz-adv-x="1197" arabic-form="medial" 
d="M171 819q68 20 132.5 31t140.5 11q70 0 126.5 -11.5t105.5 -30.5t95 -43t96 -49q33 -17 65 -28.5t67 -19t74.5 -12t88.5 -7.5l-45 -268q-37 -9 -81 -33t-95 -56q3 -24 11 -39.5t25 -24.5t44.5 -12.5t69.5 -3.5h106v-245h-53q-91 0 -151 18t-97.5 50.5t-56 77.5t-26.5 98
q-70 -43 -151.5 -86t-177 -78t-205 -57.5t-234.5 -22.5h-45q-35 0 -52.5 33.5t-17.5 89.5q0 55 17.5 88.5t52.5 33.5h54q118 0 224 24.5t202.5 64.5t184 90.5t170.5 103.5v7q-47 27 -90.5 48t-90 35t-100 21.5t-121.5 7.5q-74 0 -136.5 -8.5t-125.5 -25.5v228v0zM710 -588
h-223v203h223v-203zM710 -308h-223v203h223v-203z" />
    <glyph glyph-name="uniFB77" unicode="&#x683;" horiz-adv-x="1368" arabic-form="final" 
d="M666 -51h-181v179h181v-179zM960 -51h-181v179h181v-179zM1059 515q-219 -59 -362 -122.5t-227 -129.5t-117.5 -134t-33.5 -137q0 -54 19.5 -105.5t65.5 -92t121.5 -65.5t187.5 -25q94 0 192 19.5t212 60.5v-226q-61 -21 -114.5 -36t-103 -24.5t-97.5 -14t-97 -4.5
q-147 0 -256 36.5t-180 101t-106 154t-35 195.5q0 59 11.5 120.5t39 122t72.5 119t111.5 111.5t157 99.5t208.5 84.5v9q-35 18 -65 31.5t-62 22.5t-69 13t-85 4q-74 0 -145 -9.5t-131 -26.5v229q63 20 125 30.5t134 10.5q74 0 130.5 -12t105 -30.5t92.5 -39.5t94.5 -39.5
t111 -31.5t140.5 -14zM1148 417q3 -50 15 -86.5t35.5 -60.5t59.5 -35.5t86 -11.5h24v-245h-32q-164 0 -254.5 99t-101.5 290z" />
    <glyph glyph-name="uniFB78" unicode="&#x683;" horiz-adv-x="1197" arabic-form="initial" 
d="M171 819q68 20 132.5 31t140.5 11q72 0 128.5 -12t106 -31t95 -43.5t94.5 -48.5q31 -16 62.5 -27t66.5 -19t75 -12.5t90 -7.5l-45 -268q-48 -11 -107 -46.5t-131 -81.5t-158.5 -96.5t-189.5 -92.5t-224 -69.5t-262 -27.5h-45q-35 0 -52.5 33.5t-17.5 89.5q0 55 17.5 88.5
t52.5 33.5h54q118 0 224 24.5t202.5 64.5t184 90.5t170.5 103.5v7q-47 27 -90.5 48t-90 35t-100 21.5t-121.5 7.5q-74 0 -136.5 -8.5t-125.5 -25.5v228zM541 -367h-222v203h222v-203zM878 -367h-222v203h222v-203z" />
    <glyph glyph-name="uniFB79" unicode="&#x683;" horiz-adv-x="1197" arabic-form="medial" 
d="M171 819q68 20 132.5 31t140.5 11q70 0 126.5 -11.5t105.5 -30.5t95 -43t96 -49q33 -17 65 -28.5t67 -19t74.5 -12t88.5 -7.5l-45 -268q-37 -9 -81 -33t-95 -56q3 -24 11 -39.5t25 -24.5t44.5 -12.5t69.5 -3.5h106v-245h-53q-91 0 -151 18t-97.5 50.5t-56 77.5t-26.5 98
q-70 -43 -151.5 -86t-177 -78t-205 -57.5t-234.5 -22.5h-45q-35 0 -52.5 33.5t-17.5 89.5q0 55 17.5 88.5t52.5 33.5h54q118 0 224 24.5t202.5 64.5t184 90.5t170.5 103.5v7q-47 27 -90.5 48t-90 35t-100 21.5t-121.5 7.5q-74 0 -136.5 -8.5t-125.5 -25.5v228v0zM541 -367
h-222v203h222v-203zM878 -367h-222v203h222v-203z" />
    <glyph glyph-name="uniFB7B" unicode="&#x686;" horiz-adv-x="1368" arabic-form="final" 
d="M666 47h-181v179h181v-179zM960 47h-181v179h181v-179zM813 -213h-181v179h181v-179zM1059 515q-219 -59 -362 -122.5t-227 -129.5t-117.5 -134t-33.5 -137q0 -54 19.5 -105.5t65.5 -92t121.5 -65.5t187.5 -25q94 0 192 19.5t212 60.5v-226q-61 -21 -114.5 -36
t-103 -24.5t-97.5 -14t-97 -4.5q-147 0 -256 36.5t-180 101t-106 154t-35 195.5q0 59 11.5 120.5t39 122t72.5 119t111.5 111.5t157 99.5t208.5 84.5v9q-35 18 -65 31.5t-62 22.5t-69 13t-85 4q-74 0 -145 -9.5t-131 -26.5v229q63 20 125 30.5t134 10.5q74 0 130.5 -12
t105 -30.5t92.5 -39.5t94.5 -39.5t111 -31.5t140.5 -14zM1148 417q3 -50 15 -86.5t35.5 -60.5t59.5 -35.5t86 -11.5h24v-245h-32q-164 0 -254.5 99t-101.5 290z" />
    <glyph glyph-name="uniFB7C" unicode="&#x686;" horiz-adv-x="1197" arabic-form="initial" 
d="M171 819q68 20 132.5 31t140.5 11q72 0 128.5 -12t106 -31t95 -43.5t94.5 -48.5q31 -16 62.5 -27t66.5 -19t75 -12.5t90 -7.5l-45 -268q-48 -11 -107 -46.5t-131 -81.5t-158.5 -96.5t-189.5 -92.5t-224 -69.5t-262 -27.5h-45q-35 0 -52.5 33.5t-17.5 89.5q0 55 17.5 88.5
t52.5 33.5h54q118 0 224 24.5t202.5 64.5t184 90.5t170.5 103.5v7q-47 27 -90.5 48t-90 35t-100 21.5t-121.5 7.5q-74 0 -136.5 -8.5t-125.5 -25.5v228zM540 -308h-222v203h222v-203zM878 -308h-222v203h222v-203zM709 -588h-223v203h223v-203z" />
    <glyph glyph-name="uniFB7D" unicode="&#x686;" horiz-adv-x="1197" arabic-form="medial" 
d="M171 819q68 20 132.5 31t140.5 11q70 0 126.5 -11.5t105.5 -30.5t95 -43t96 -49q33 -17 65 -28.5t67 -19t74.5 -12t88.5 -7.5l-45 -268q-37 -9 -81 -33t-95 -56q3 -24 11 -39.5t25 -24.5t44.5 -12.5t69.5 -3.5h106v-245h-53q-91 0 -151 18t-97.5 50.5t-56 77.5t-26.5 98
q-70 -43 -151.5 -86t-177 -78t-205 -57.5t-234.5 -22.5h-45q-35 0 -52.5 33.5t-17.5 89.5q0 55 17.5 88.5t52.5 33.5h54q118 0 224 24.5t202.5 64.5t184 90.5t170.5 103.5v7q-47 27 -90.5 48t-90 35t-100 21.5t-121.5 7.5q-74 0 -136.5 -8.5t-125.5 -25.5v228v0zM540 -308
h-222v203h222v-203zM878 -308h-222v203h222v-203zM709 -588h-223v203h223v-203z" />
    <glyph glyph-name="uniFB7F" unicode="&#x687;" horiz-adv-x="1368" arabic-form="final" 
d="M1059 515q-219 -59 -362 -122.5t-227 -129.5t-117.5 -134t-33.5 -137q0 -54 19.5 -105.5t65.5 -92t121.5 -65.5t187.5 -25q94 0 192 19.5t212 60.5v-226q-61 -21 -114.5 -36t-103 -24.5t-97.5 -14t-97 -4.5q-147 0 -256 36.5t-180 101t-106 154t-35 195.5
q0 59 11.5 120.5t39 122t72.5 119t111.5 111.5t157 99.5t208.5 84.5v9q-35 18 -65 31.5t-62 22.5t-69 13t-85 4q-74 0 -145 -9.5t-131 -26.5v229q63 20 125 30.5t134 10.5q74 0 130.5 -12t105 -30.5t92.5 -39.5t94.5 -39.5t111 -31.5t140.5 -14zM1148 417q3 -50 15 -86.5
t35.5 -60.5t59.5 -35.5t86 -11.5h24v-245h-32q-164 0 -254.5 99t-101.5 290zM677 67h-181v179h181v-179zM966 67h-181v179h181v-179zM677 -198h-181v179h181v-179zM966 -198h-181v179h181v-179z" />
    <glyph glyph-name="uniFB80" unicode="&#x687;" horiz-adv-x="1197" arabic-form="initial" 
d="M171 819q68 20 132.5 31t140.5 11q72 0 128.5 -12t106 -31t95 -43.5t94.5 -48.5q31 -16 62.5 -27t66.5 -19t75 -12.5t90 -7.5l-45 -268q-48 -11 -107 -46.5t-131 -81.5t-158.5 -96.5t-189.5 -92.5t-224 -69.5t-262 -27.5h-45q-35 0 -52.5 33.5t-17.5 89.5q0 55 17.5 88.5
t52.5 33.5h54q118 0 224 24.5t202.5 64.5t184 90.5t170.5 103.5v7q-47 27 -90.5 48t-90 35t-100 21.5t-121.5 7.5q-74 0 -136.5 -8.5t-125.5 -25.5v228zM540 -588h-222v203h222v-203zM878 -588h-222v203h222v-203zM540 -308h-222v203h222v-203zM878 -308h-222v203h222v-203z
" />
    <glyph glyph-name="uniFB81" unicode="&#x687;" horiz-adv-x="1197" arabic-form="medial" 
d="M171 819q68 20 132.5 31t140.5 11q70 0 126.5 -11.5t105.5 -30.5t95 -43t96 -49q33 -17 65 -28.5t67 -19t74.5 -12t88.5 -7.5l-45 -268q-37 -9 -81 -33t-95 -56q3 -24 11 -39.5t25 -24.5t44.5 -12.5t69.5 -3.5h106v-245h-53q-91 0 -151 18t-97.5 50.5t-56 77.5t-26.5 98
q-70 -43 -151.5 -86t-177 -78t-205 -57.5t-234.5 -22.5h-45q-35 0 -52.5 33.5t-17.5 89.5q0 55 17.5 88.5t52.5 33.5h54q118 0 224 24.5t202.5 64.5t184 90.5t170.5 103.5v7q-47 27 -90.5 48t-90 35t-100 21.5t-121.5 7.5q-74 0 -136.5 -8.5t-125.5 -25.5v228v0zM540 -588
h-222v203h222v-203zM878 -588h-222v203h222v-203zM540 -308h-222v203h222v-203zM878 -308h-222v203h222v-203z" />
    <glyph glyph-name="uniFB83" unicode="&#x68d;" horiz-adv-x="1026" arabic-form="final" 
d="M50 248q109 -14 195.5 -21.5t155.5 -7.5q70 0 113.5 9.5t67.5 27.5t32.5 45.5t8.5 63.5q0 46 -15 119t-39.5 161t-57.5 186t-69 193h231q57 -168 95 -310t67 -270q9 -37 19.5 -76t30.5 -71.5t53.5 -53t87.5 -20.5v-245h-28q-32 0 -62 7t-57 23t-50.5 43t-41.5 66h-5
q-30 -42 -72.5 -69.5t-93 -44t-107 -23.5t-115.5 -7q-57 0 -134 6.5t-162 20.5zM370 -357h-222v203h222v-203zM707 -357h-222v203h222v-203z" />
    <glyph glyph-name="uniFB85" unicode="&#x68c;" horiz-adv-x="1026" arabic-form="final" 
d="M50 248q109 -14 195.5 -21.5t155.5 -7.5q70 0 113.5 9.5t67.5 27.5t32.5 45.5t8.5 63.5q0 46 -15 119t-39.5 161t-57.5 186t-69 193h231q57 -168 95 -310t67 -270q9 -37 19.5 -76t30.5 -71.5t53.5 -53t87.5 -20.5v-245h-28q-32 0 -62 7t-57 23t-50.5 43t-41.5 66h-5
q-30 -42 -72.5 -69.5t-93 -44t-107 -23.5t-115.5 -7q-57 0 -134 6.5t-162 20.5zM424 1261h-222v203h222v-203zM761 1261h-222v203h222v-203z" />
    <glyph glyph-name="uniFB87" unicode="&#x68e;" horiz-adv-x="1026" arabic-form="final" 
d="M50 248q109 -14 195.5 -21.5t155.5 -7.5q70 0 113.5 9.5t67.5 27.5t32.5 45.5t8.5 63.5q0 46 -15 119t-39.5 161t-57.5 186t-69 193h231q57 -168 95 -310t67 -270q9 -37 19.5 -76t30.5 -71.5t53.5 -53t87.5 -20.5v-245h-28q-32 0 -62 7t-57 23t-50.5 43t-41.5 66h-5
q-30 -42 -72.5 -69.5t-93 -44t-107 -23.5t-115.5 -7q-57 0 -134 6.5t-162 20.5zM423 1261h-222v203h222v-203zM761 1261h-222v203h222v-203zM593 1541h-223v203h223v-203z" />
    <glyph glyph-name="uniFB89" unicode="&#x688;" horiz-adv-x="1026" arabic-form="final" 
d="M50 248q109 -14 195.5 -21.5t155.5 -7.5q70 0 113.5 9.5t67.5 27.5t32.5 45.5t8.5 63.5q0 46 -15 119t-39.5 161t-57.5 186t-69 193h231q57 -168 95 -310t67 -270q9 -37 19.5 -76t30.5 -71.5t53.5 -53t87.5 -20.5v-245h-28q-32 0 -62 7t-57 23t-50.5 43t-41.5 66h-5
q-30 -42 -72.5 -69.5t-93 -44t-107 -23.5t-115.5 -7q-57 0 -134 6.5t-162 20.5zM153 1390q31 -4 62 -5.5t65 -1.5v494h116v-322l3 -1q38 52 84.5 85t111.5 33q51 0 87.5 -19.5t60.5 -52t35 -74.5t11 -87q0 -66 -20.5 -102t-56 -53t-83.5 -20t-104 -3q-71 0 -125.5 1
t-96.5 2.5t-74.5 4t-59.5 5.5zM513 1380q48 0 79.5 1t51 7t27.5 18t8 35q0 56 -28 84.5t-67 28.5q-30 0 -57.5 -15t-51.5 -39.5t-43.5 -55.5t-34.5 -64h116z" />
    <glyph glyph-name="uniFB8B" unicode="&#x698;" horiz-adv-x="855" arabic-form="final" 
d="M855 -22h-25q-59 0 -91 15.5t-55 44.5q-2 0 -2.5 -0.5t-2.5 -0.5q-6 -144 -45 -249t-102 -173.5t-146 -102t-176 -33.5q-49 0 -98.5 9.5t-111.5 32.5v245q68 -20 115.5 -29t88.5 -9q82 0 134.5 29t83 78.5t42 115t11.5 139.5q0 69 -9 137t-26.5 138.5t-42 147
t-55.5 163.5h218q34 -85 57.5 -172t39.5 -175q4 -24 15 -43.5t33 -33.5t58 -21.5t92 -7.5v-245zM352 919h-222v203h222v-203zM690 919h-222v203h222v-203zM522 1199h-223v203h223v-203z" />
    <glyph glyph-name="uniFB8D" unicode="&#x691;" horiz-adv-x="855" arabic-form="final" 
d="M855 -22h-25q-59 0 -91 15.5t-55 44.5q-2 0 -2.5 -0.5t-2.5 -0.5q-6 -144 -45 -249t-102 -173.5t-146 -102t-176 -33.5q-49 0 -98.5 9.5t-111.5 32.5v245q68 -20 115.5 -29t88.5 -9q82 0 134.5 29t83 78.5t42 115t11.5 139.5q0 69 -9 137t-26.5 138.5t-42 147
t-55.5 163.5h218q34 -85 57.5 -172t39.5 -175q4 -24 15 -43.5t33 -33.5t58 -21.5t92 -7.5v-245zM82 1056q31 -4 62 -5.5t65 -1.5v494h116v-322l3 -1q38 52 84.5 85t111.5 33q51 0 87.5 -19.5t60.5 -52t35 -74.5t11 -87q0 -66 -20.5 -102t-56 -53t-83.5 -20t-104 -3
q-71 0 -125.5 1t-96.5 2.5t-74.5 4t-59.5 5.5zM442 1046q48 0 79.5 1t51 7t27.5 18t8 35q0 56 -28 84.5t-67 28.5q-30 0 -57.5 -15t-51.5 -39.5t-43.5 -55.5t-34.5 -64h116z" />
    <glyph glyph-name="uniFB8F" unicode="&#x6a9;" horiz-adv-x="1881" arabic-form="final" 
d="M1726 1623v-260l-623 -383q127 -62 226 -126t169.5 -133t112 -145.5t54.5 -163.5q6 -39 19.5 -73t39 -59.5t64 -40.5t93.5 -16v-245h-22q-38 0 -76 8.5t-72.5 26.5t-64.5 46.5t-52 69.5h-6q-35 -43 -79.5 -71.5t-104.5 -46.5q-46 -14 -101 -22t-121.5 -12.5t-145.5 -5.5
t-172 -1q-96 0 -184.5 2.5t-165.5 13t-141 32t-110 59.5q-35 28 -58.5 63.5t-38 76.5t-21 86t-6.5 91q0 65 10 130.5t26 125.5h199q-7 -33 -13 -61.5t-10 -54t-6.5 -49.5t-2.5 -50q0 -54 14.5 -93t49.5 -65q30 -22 76 -34.5t113 -19t157 -8t208 -1.5q128 0 226.5 3.5
t164.5 21.5q40 11 63.5 24.5t35 28.5t14.5 31t3 31q0 117 -155.5 240t-456.5 268v206z" />
    <glyph glyph-name="uniFB90" unicode="&#x6a9;" horiz-adv-x="1026" arabic-form="initial" 
d="M871 1623v-260l-623 -383q124 -61 228 -127.5t179 -142t116.5 -162t41.5 -186.5q0 -40 -7.5 -84t-28 -87t-56.5 -81.5t-94 -67.5t-140.5 -46.5t-195.5 -17.5h-291q-35 0 -52.5 33.5t-17.5 89.5q0 55 17.5 88.5t52.5 33.5h294q93 0 154 6t97.5 20.5t51.5 39.5t15 63
q0 60 -39 119.5t-116.5 122t-192 129t-264.5 139.5v206z" />
    <glyph glyph-name="uniFB91" unicode="&#x6a9;" horiz-adv-x="1026" arabic-form="medial" 
d="M871 1623v-260l-623 -383q127 -63 226 -126.5t169.5 -132.5t112.5 -145t54 -164q5 -29 13 -58.5t31 -58.5q10 -14 24 -26.5t34.5 -23t48.5 -16.5t65 -6v-245h-22q-38 0 -76 8.5t-72.5 26.5t-64.5 46.5t-52 69.5h-6q-25 -33 -63 -60.5t-92 -47.5t-125 -31.5t-162 -11.5
h-291q-35 0 -52.5 33.5t-17.5 89.5q0 55 17.5 88.5t52.5 33.5h294q93 0 154 6t97.5 20.5t51.5 39.5t15 63q0 60 -39 119.5t-116.5 122t-192 129t-264.5 139.5v206z" />
    <glyph glyph-name="uniFB93" unicode="&#x6af;" horiz-adv-x="1881" arabic-form="final" 
d="M1726 1623v-260l-623 -383q127 -62 226 -126t169.5 -133t112 -145.5t54.5 -163.5q6 -39 19.5 -73t39 -59.5t64 -40.5t93.5 -16v-245h-22q-38 0 -76 8.5t-72.5 26.5t-64.5 46.5t-52 69.5h-6q-35 -43 -79.5 -71.5t-104.5 -46.5q-46 -14 -101 -22t-121.5 -12.5t-145.5 -5.5
t-172 -1q-96 0 -184.5 2.5t-165.5 13t-141 32t-110 59.5q-35 28 -58.5 63.5t-38 76.5t-21 86t-6.5 91q0 65 10 130.5t26 125.5h199q-7 -33 -13 -61.5t-10 -54t-6.5 -49.5t-2.5 -50q0 -54 14.5 -93t49.5 -65q30 -22 76 -34.5t113 -19t157 -8t208 -1.5q128 0 226.5 3.5
t164.5 21.5q40 11 63.5 24.5t35 28.5t14.5 31t3 31q0 117 -155.5 240t-456.5 268v206zM1726 1933v-171l-871 -554v170z" />
    <glyph glyph-name="uniFB94" unicode="&#x6af;" horiz-adv-x="1026" arabic-form="initial" 
d="M871 1623v-260l-623 -383q124 -61 228 -127.5t179 -142t116.5 -162t41.5 -186.5q0 -40 -7.5 -84t-28 -87t-56.5 -81.5t-94 -67.5t-140.5 -46.5t-195.5 -17.5h-291q-35 0 -52.5 33.5t-17.5 89.5q0 55 17.5 88.5t52.5 33.5h294q93 0 154 6t97.5 20.5t51.5 39.5t15 63
q0 60 -39 119.5t-116.5 122t-192 129t-264.5 139.5v206zM871 1933v-171l-871 -554v170z" />
    <glyph glyph-name="uniFB95" unicode="&#x6af;" horiz-adv-x="1026" arabic-form="medial" 
d="M871 1623v-260l-623 -383q127 -63 226 -126.5t169.5 -132.5t112.5 -145t54 -164q5 -29 13 -58.5t31 -58.5q10 -14 24 -26.5t34.5 -23t48.5 -16.5t65 -6v-245h-22q-38 0 -76 8.5t-72.5 26.5t-64.5 46.5t-52 69.5h-6q-25 -33 -63 -60.5t-92 -47.5t-125 -31.5t-162 -11.5
h-291q-35 0 -52.5 33.5t-17.5 89.5q0 55 17.5 88.5t52.5 33.5h294q93 0 154 6t97.5 20.5t51.5 39.5t15 63q0 60 -39 119.5t-116.5 122t-192 129t-264.5 139.5v206zM871 1933v-171l-871 -554v170z" />
    <glyph glyph-name="uniFB97" unicode="&#x6b3;" horiz-adv-x="1881" arabic-form="final" 
d="M1726 1623v-260l-623 -383q127 -62 226 -126t169.5 -133t112 -145.5t54.5 -163.5q6 -39 19.5 -73t39 -59.5t64 -40.5t93.5 -16v-245h-22q-38 0 -76 8.5t-72.5 26.5t-64.5 46.5t-52 69.5h-6q-35 -43 -79.5 -71.5t-104.5 -46.5q-46 -14 -101 -22t-121.5 -12.5t-145.5 -5.5
t-172 -1q-96 0 -184.5 2.5t-165.5 13t-141 32t-110 59.5q-35 28 -58.5 63.5t-38 76.5t-21 86t-6.5 91q0 65 10 130.5t26 125.5h199q-7 -33 -13 -61.5t-10 -54t-6.5 -49.5t-2.5 -50q0 -54 14.5 -93t49.5 -65q30 -22 76 -34.5t113 -19t157 -8t208 -1.5q128 0 226.5 3.5
t164.5 21.5q40 11 63.5 24.5t35 28.5t14.5 31t3 31q0 117 -155.5 240t-456.5 268v206zM1053 -588h-223v203h223v-203zM1053 -308h-223v203h223v-203zM1726 1933v-171l-871 -554v170z" />
    <glyph glyph-name="uniFB98" unicode="&#x6b3;" horiz-adv-x="1026" arabic-form="initial" 
d="M871 1623v-260l-623 -383q124 -61 228 -127.5t179 -142t116.5 -162t41.5 -186.5q0 -40 -7.5 -84t-28 -87t-56.5 -81.5t-94 -67.5t-140.5 -46.5t-195.5 -17.5h-291q-35 0 -52.5 33.5t-17.5 89.5q0 55 17.5 88.5t52.5 33.5h294q93 0 154 6t97.5 20.5t51.5 39.5t15 63
q0 60 -39 119.5t-116.5 122t-192 129t-264.5 139.5v206zM539 -588h-223v203h223v-203zM539 -308h-223v203h223v-203zM871 1933v-171l-871 -554v170z" />
    <glyph glyph-name="uniFB99" unicode="&#x6b3;" horiz-adv-x="1026" arabic-form="medial" 
d="M871 1623v-260l-623 -383q127 -63 226 -126.5t169.5 -132.5t112.5 -145t54 -164q5 -29 13 -58.5t31 -58.5q10 -14 24 -26.5t34.5 -23t48.5 -16.5t65 -6v-245h-22q-38 0 -76 8.5t-72.5 26.5t-64.5 46.5t-52 69.5h-6q-25 -33 -63 -60.5t-92 -47.5t-125 -31.5t-162 -11.5
h-291q-35 0 -52.5 33.5t-17.5 89.5q0 55 17.5 88.5t52.5 33.5h294q93 0 154 6t97.5 20.5t51.5 39.5t15 63q0 60 -39 119.5t-116.5 122t-192 129t-264.5 139.5v206zM539 -588h-223v203h223v-203zM539 -308h-223v203h223v-203zM871 1933v-171l-871 -554v170z" />
    <glyph glyph-name="uniFB9B" unicode="&#x6b1;" horiz-adv-x="1881" arabic-form="final" 
d="M1726 1623v-260l-623 -383q127 -62 226 -126t169.5 -133t112 -145.5t54.5 -163.5q6 -39 19.5 -73t39 -59.5t64 -40.5t93.5 -16v-245h-22q-38 0 -76 8.5t-72.5 26.5t-64.5 46.5t-52 69.5h-6q-35 -43 -79.5 -71.5t-104.5 -46.5q-46 -14 -101 -22t-121.5 -12.5t-145.5 -5.5
t-172 -1q-96 0 -184.5 2.5t-165.5 13t-141 32t-110 59.5q-35 28 -58.5 63.5t-38 76.5t-21 86t-6.5 91q0 65 10 130.5t26 125.5h199q-7 -33 -13 -61.5t-10 -54t-6.5 -49.5t-2.5 -50q0 -54 14.5 -93t49.5 -65q30 -22 76 -34.5t113 -19t157 -8t208 -1.5q128 0 226.5 3.5
t164.5 21.5q40 11 63.5 24.5t35 28.5t14.5 31t3 31q0 117 -155.5 240t-456.5 268v206zM1726 1933v-171l-871 -554v170zM1086 1815h-222v203h222v-203zM1423 1815h-222v203h222v-203z" />
    <glyph glyph-name="uniFB9C" unicode="&#x6b1;" horiz-adv-x="1026" arabic-form="initial" 
d="M871 1623v-260l-623 -383q124 -61 228 -127.5t179 -142t116.5 -162t41.5 -186.5q0 -40 -7.5 -84t-28 -87t-56.5 -81.5t-94 -67.5t-140.5 -46.5t-195.5 -17.5h-291q-35 0 -52.5 33.5t-17.5 89.5q0 55 17.5 88.5t52.5 33.5h294q93 0 154 6t97.5 20.5t51.5 39.5t15 63
q0 60 -39 119.5t-116.5 122t-192 129t-264.5 139.5v206zM871 1933v-171l-871 -554v170zM231 1815h-222v203h222v-203zM568 1815h-222v203h222v-203z" />
    <glyph glyph-name="uniFB9D" unicode="&#x6b1;" horiz-adv-x="1026" arabic-form="medial" 
d="M871 1623v-260l-623 -383q127 -63 226 -126.5t169.5 -132.5t112.5 -145t54 -164q5 -29 13 -58.5t31 -58.5q10 -14 24 -26.5t34.5 -23t48.5 -16.5t65 -6v-245h-22q-38 0 -76 8.5t-72.5 26.5t-64.5 46.5t-52 69.5h-6q-25 -33 -63 -60.5t-92 -47.5t-125 -31.5t-162 -11.5
h-291q-35 0 -52.5 33.5t-17.5 89.5q0 55 17.5 88.5t52.5 33.5h294q93 0 154 6t97.5 20.5t51.5 39.5t15 63q0 60 -39 119.5t-116.5 122t-192 129t-264.5 139.5v206zM871 1933v-171l-871 -554v170zM231 1815h-222v203h222v-203zM568 1815h-222v203h222v-203z" />
    <glyph glyph-name="uniFB9F" unicode="&#x6ba;" horiz-adv-x="1368" arabic-form="final" 
d="M1156 520q11 -62 17 -108.5t11 -91.5q3 -20 11.5 -37.5t28.5 -30.5t55 -21t89 -8v-245h-30q-29 0 -50.5 4t-38.5 11t-30 17.5t-25 22.5l-7 -3q-9 -132 -44 -235t-102.5 -173t-170 -106.5t-245.5 -36.5q-134 0 -227.5 35t-151.5 102.5t-84 166.5t-26 228q0 68 8 143.5
t27 174.5h195q-9 -56 -15 -99.5t-9.5 -79t-5 -64.5t-1.5 -55q0 -80 14 -137.5t48.5 -94.5t92.5 -55t146 -18q102 0 170.5 24t109.5 75.5t58.5 132.5t17.5 196q0 33 -2 70t-6.5 81t-12 96.5t-19.5 118.5h204z" />
    <glyph glyph-name="uniFBA1" unicode="&#x6bb;" horiz-adv-x="1368" arabic-form="final" 
d="M1156 520q11 -62 17 -108.5t11 -91.5q3 -20 11.5 -37.5t28.5 -30.5t55 -21t89 -8v-245h-30q-29 0 -50.5 4t-38.5 11t-30 17.5t-25 22.5l-7 -3q-9 -132 -44 -235t-102.5 -173t-170 -106.5t-245.5 -36.5q-134 0 -227.5 35t-151.5 102.5t-84 166.5t-26 228q0 68 8 143.5
t27 174.5h195q-9 -56 -15 -99.5t-9.5 -79t-5 -64.5t-1.5 -55q0 -80 14 -137.5t48.5 -94.5t92.5 -55t146 -18q102 0 170.5 24t109.5 75.5t58.5 132.5t17.5 196q0 33 -2 70t-6.5 81t-12 96.5t-19.5 118.5h204zM343 855q31 -4 62 -5.5t65 -1.5v494h116v-322l3 -1q38 52 84.5 85
t111.5 33q51 0 87.5 -19.5t60.5 -52t35 -74.5t11 -87q0 -66 -20.5 -102t-56 -53t-83.5 -20t-104 -3q-71 0 -125.5 1t-96.5 2.5t-74.5 4t-59.5 5.5zM703 845q48 0 79.5 1t51 7t27.5 18t8 35q0 56 -28 84.5t-67 28.5q-30 0 -57.5 -15t-51.5 -39.5t-43.5 -55.5t-34.5 -64h116z
" />
    <glyph glyph-name="uniFBA2" unicode="&#x6bb;" horiz-adv-x="684" arabic-form="initial" 
d="M513 837v-474q0 -120 -31 -195t-83 -117.5t-119.5 -57.5t-140.5 -15h-139q-35 0 -52.5 34t-17.5 89t17.5 88.5t52.5 33.5h149q42 0 73 4t51.5 19t30.5 44.5t10 79.5v467h199zM42 1147q31 -4 62 -5.5t65 -1.5v494h116v-322l3 -1q38 52 84.5 85t111.5 33q51 0 87.5 -19.5
t60.5 -52t35 -74.5t11 -87q0 -66 -20.5 -102t-56 -53t-83.5 -20t-104 -3q-71 0 -125.5 1t-96.5 2.5t-74.5 4t-59.5 5.5zM402 1137q48 0 79.5 1t51 7t27.5 18t8 35q0 56 -28 84.5t-67 28.5q-30 0 -57.5 -15t-51.5 -39.5t-43.5 -55.5t-34.5 -64h116z" />
    <glyph glyph-name="uniFBA3" unicode="&#x6bb;" horiz-adv-x="684" arabic-form="medial" 
d="M513 439q0 -56 3 -96.5t19.5 -67t51 -39.5t97.5 -13v-245h-36q-91 0 -152.5 28.5t-90.5 88.5h-5q-26 -35 -58.5 -57.5t-68 -36t-71.5 -18.5t-67 -5h-135q-35 0 -52.5 33.5t-17.5 89.5q0 55 17.5 88.5t52.5 33.5h149q39 0 70 5t52 20.5t32 44.5t11 77v467h199v-398z
M42 1147q31 -4 62 -5.5t65 -1.5v494h116v-322l3 -1q38 52 84.5 85t111.5 33q51 0 87.5 -19.5t60.5 -52t35 -74.5t11 -87q0 -66 -20.5 -102t-56 -53t-83.5 -20t-104 -3q-71 0 -125.5 1t-96.5 2.5t-74.5 4t-59.5 5.5zM402 1137q48 0 79.5 1t51 7t27.5 18t8 35q0 56 -28 84.5
t-67 28.5q-30 0 -57.5 -15t-51.5 -39.5t-43.5 -55.5t-34.5 -64h116z" />
    <glyph glyph-name="uniFBA5" unicode="&#x6c0;" horiz-adv-x="1026" arabic-form="final" 
d="M657 1061h198v-642q0 -50 4.5 -87t21.5 -61t51 -36t94 -12v-245h-41q-51 0 -97.5 9.5t-86 32.5t-70 61.5t-50.5 95.5q-41 -11 -81.5 -16.5t-80.5 -5.5q-75 0 -142.5 19.5t-118.5 60t-81.5 102t-30.5 144.5q0 99 42 177t113 136t163 95.5t193 54.5v117zM657 712
q-65 -13 -122.5 -31t-101 -43.5t-69 -59t-25.5 -76.5q0 -34 15.5 -56t41 -34.5t58.5 -17t68 -4.5t68.5 4t66.5 13v305zM704 1527q-20 5 -39 7.5t-32 2.5q-39 0 -65.5 -16t-26.5 -55q0 -40 30 -59.5t87 -19.5h92v-111h-369v105h82l1 4q-42 52 -42 105q0 35 14.5 64.5t41.5 51
t65 33.5t84 12q31 0 77 -8v-116z" />
    <glyph glyph-name="uniFBA7" unicode="&#x6c1;" horiz-adv-x="1026" arabic-form="final" 
d="M82 -89q-6 57 -6 101q0 136 34 230.5t87.5 153t119.5 84.5t130 26t118.5 -21t102.5 -52.5t91.5 -68t86.5 -68t87 -52.5t93 -21v-245h-23q-68 0 -124 21t-104 52t-89.5 68t-81.5 68t-80 52t-84 21q-37 0 -70 -14t-57.5 -48t-38.5 -91t-14 -143q0 -12 0.5 -25.5t1.5 -27.5
h-180z" />
    <glyph glyph-name="uniFBA8" unicode="&#x6c1;" horiz-adv-x="684" arabic-form="initial" 
d="M513 837v-474q0 -120 -31 -195t-83 -117.5t-119.5 -57.5t-140.5 -15h-139q-35 0 -52.5 34t-17.5 89t17.5 88.5t52.5 33.5h149q42 0 73 4t51.5 19t30.5 44.5t10 79.5v467h199zM357 -82q-54 -24 -83.5 -64t-29.5 -95q0 -5 0.5 -13t2.5 -16q12 3 25.5 4.5t25.5 1.5
q30 0 53 -10t38 -26.5t22.5 -38t7.5 -43.5q0 -24 -8.5 -47t-26 -41t-43 -29.5t-59.5 -11.5q-43 0 -74 17.5t-51.5 46.5t-30.5 68t-10 83q0 89 46.5 166t153.5 127z" />
    <glyph glyph-name="uniFBA9" unicode="&#x6c1;" horiz-adv-x="1026" arabic-form="medial" 
d="M601 583q-60 -128 -96 -223.5t-55.5 -166.5t-26 -122t-6.5 -91q0 -56 11 -93t29.5 -60t42.5 -35t51 -18q12 100 49 183t97 142t143 91.5t186 32.5v-245q-173 0 -257.5 -107t-84.5 -331q0 -18 0.5 -33.5t1.5 -29.5q-125 19 -213 53.5t-144 86.5t-82 121t-26 157
q0 23 2 48.5t6 51.5l-5 3q-23 -8 -55.5 -14t-89.5 -6h-79q-35 0 -52.5 33.5t-17.5 89.5q0 55 17.5 88.5t52.5 33.5h153q30 0 48 1.5t30.5 8.5t21.5 21.5t20 40.5q12 29 24 59.5t25.5 65t30 74.5t37.5 89h211z" />
    <glyph glyph-name="uniFBAB" unicode="&#x6be;" horiz-adv-x="1368" arabic-form="final" 
d="M498 223q22 132 56.5 235.5t74.5 181.5t84 132t86.5 88t81 49t67.5 15q50 0 95.5 -38t79.5 -98.5t54 -135.5t20 -149q0 -85 -28 -156.5t-83 -118.5l1 -5h281v-245h-265q-1 -1 -1 -2t-1 -3q50 -48 73 -101.5t23 -108.5q0 -56 -21.5 -108.5t-60.5 -93t-92.5 -64.5
t-117.5 -24q-37 0 -80.5 10t-87 32.5t-85.5 60.5t-76.5 94t-58 132t-31.5 176q-81 0 -140 2t-102.5 5t-74.5 7.5t-54 9.5q-12 60 -24 122.5t-24 125.5q54 -7 103 -12t99.5 -8.5t106 -5t122.5 -1.5zM911 677q-20 0 -50.5 -29.5t-62.5 -87t-60 -142t-44 -195.5h106q48 0 85 24
t62.5 61.5t38.5 82t13 86.5q0 34 -7.5 69.5t-20 64.5t-28.5 47.5t-32 18.5zM681 -22q9 -64 30 -113t51 -82t66.5 -50t74.5 -17q51 0 74.5 26t23.5 60q0 28 -16 59t-44.5 57t-69 43t-88.5 17h-102z" />
    <glyph glyph-name="uniFBAC" unicode="&#x6be;" horiz-adv-x="1368" arabic-form="initial" 
d="M333 1192q206 -113 366.5 -236.5t271 -243.5t168.5 -231t58 -198q0 -63 -11.5 -118.5t-32 -97t-48.5 -65.5t-61 -24q-47 0 -103 5t-116 15.5t-121 28t-119 43.5q-43 -30 -95.5 -48t-109.5 -28t-116 -13t-114 -3h-150q-38 0 -64.5 32t-26.5 91q0 60 26.5 91t64.5 31
q53 0 108 -1t96 -3q42 -2 77 -2.5t50 -0.5l2 5q-48 22 -81 52t-54 66t-30 77t-9 84q0 55 14.5 110t43 105t69 91.5t93.5 69.5l2 7l-48 30v279zM731 251q58 -20 121.5 -30.5t125.5 -15.5q14 28 14 53q0 35 -16.5 73t-44.5 76.5t-65 78t-78 77.5l-6 -4q2 -15 3.5 -30t1.5 -31
q0 -66 -12.5 -129.5t-43.5 -117.5zM557 308q40 62 50.5 113.5t10.5 92.5q0 32 -10 65t-27 59.5t-38.5 43.5t-44.5 17q-28 0 -54 -19.5t-46.5 -48t-33 -60t-12.5 -56.5q0 -18 5 -40t25.5 -48.5t61.5 -56t113 -62.5z" />
    <glyph glyph-name="uniFBAD" unicode="&#x6be;" horiz-adv-x="1026" arabic-form="medial" 
d="M158 223q22 132 56.5 235.5t74.5 181.5t84 132t86.5 88t81 49t67.5 15q50 0 95 -38t78.5 -98.5t53.5 -135.5t20 -149q0 -85 -27 -156.5t-82 -118.5l1 -5h279v-245h-263l-2 -5q50 -48 72 -101.5t22 -108.5q0 -56 -21.5 -108.5t-60 -93t-92 -64.5t-117.5 -24q-37 0 -80 10
t-87 32.5t-85.5 60.5t-76 94t-58 132t-31.5 176h-146q-35 0 -52.5 33.5t-17.5 89.5q0 55 17.5 88.5t52.5 33.5h158zM460 223q48 0 85 24t61.5 61.5t37.5 82t13 86.5q0 34 -7.5 69.5t-19.5 64.5t-28 47.5t-32 18.5q-20 0 -50 -29.5t-61.5 -87t-60 -142.5t-44.5 -195h106z
M341 -22q9 -64 30 -113t50.5 -82t65.5 -50t74 -17q51 0 74.5 26t23.5 60q0 28 -15.5 59t-44 57t-68.5 43t-88 17h-102z" />
    <glyph glyph-name="uniFBAF" unicode="&#x6d2;" horiz-adv-x="684" arabic-form="final" 
d="M684 -22h-18q-65 0 -131 -2t-118.5 -12t-85.5 -30.5t-33 -56.5q0 -35 31 -56.5t99.5 -34.5t178 -17.5t267.5 -4.5q120 0 239 3.5t233 10t220 14.5t199 17v-243q-121 -12 -246.5 -20.5t-245 -14.5t-226 -8.5t-189.5 -2.5q-214 0 -359.5 21t-234 64t-126.5 107.5t-38 150.5
q0 80 30.5 137.5t80 97.5t112 64.5t126 38t122 18t100.5 4.5h13v-245z" />
    <glyph glyph-name="uniFBB1" unicode="&#x6d3;" horiz-adv-x="684" arabic-form="final" 
d="M684 -22h-18q-65 0 -131 -2t-118.5 -12t-85.5 -30.5t-33 -56.5q0 -35 31 -56.5t99.5 -34.5t178 -17.5t267.5 -4.5q120 0 239 3.5t233 10t220 14.5t199 17v-243q-121 -12 -246.5 -20.5t-245 -14.5t-226 -8.5t-189.5 -2.5q-214 0 -359.5 21t-234 64t-126.5 107.5t-38 150.5
q0 80 30.5 137.5t80 97.5t112 64.5t126 38t122 18t100.5 4.5h13v-245zM557 785q-20 5 -39 7.5t-32 2.5q-39 0 -65.5 -16t-26.5 -55q0 -40 30 -59.5t87 -19.5h92v-111h-369v105h82l1 4q-42 52 -42 105q0 35 14.5 64.5t41.5 51t65 33.5t84 12q31 0 77 -8v-116z" />
    <glyph glyph-name="uniFBD4" unicode="&#x6ad;" horiz-adv-x="1710" arabic-form="final" 
d="M684 710q180 10 180 66q0 8 -12 19.5t-48 27.5q-43 20 -66.5 47t-23.5 73q0 40 25 73t68 57.5t99.5 41.5t119.5 26v-120q-92 -12 -133.5 -30.5t-41.5 -43.5q0 -12 14 -23.5t57 -29.5q40 -18 59.5 -42t19.5 -68q0 -33 -19.5 -65.5t-58.5 -60t-98.5 -46t-140.5 -22.5v120z
M374 650q-7 -33 -13 -61.5t-10 -54t-6.5 -49.5t-2.5 -50q0 -24 2.5 -45.5t9.5 -41t19.5 -37t32.5 -32.5q26 -20 65 -33t97.5 -20.5t140.5 -10t196 -2.5q126 0 209.5 4t134 20.5t71 51t20.5 95.5v1132h199v-1077q0 -56 3 -96.5t19.5 -67t51 -39.5t97.5 -13v-245h-40
q-89 0 -146 29t-87 90h-6q-42 -45 -100.5 -70.5t-129.5 -38t-152.5 -15.5t-169.5 -3q-99 0 -190.5 2.5t-171 13t-144.5 31.5t-111 59q-35 28 -58.5 64t-38 77t-20.5 85.5t-6 88.5q0 68 10 132t26 127h199zM825 1523h-222v203h222v-203zM1163 1523h-222v203h222v-203z
M995 1803h-223v203h223v-203z" />
    <glyph glyph-name="uniFBD5" unicode="&#x6ad;" horiz-adv-x="1026" arabic-form="initial" 
d="M871 1623v-260l-623 -383q124 -61 228 -127.5t179 -142t116.5 -162t41.5 -186.5q0 -40 -7.5 -84t-28 -87t-56.5 -81.5t-94 -67.5t-140.5 -46.5t-195.5 -17.5h-291q-35 0 -52.5 33.5t-17.5 89.5q0 55 17.5 88.5t52.5 33.5h294q93 0 154 6t97.5 20.5t51.5 39.5t15 63
q0 60 -39 119.5t-116.5 122t-192 129t-264.5 139.5v206zM198 1523h-222v203h222v-203zM536 1523h-222v203h222v-203zM368 1803h-223v203h223v-203z" />
    <glyph glyph-name="uniFBD6" unicode="&#x6ad;" horiz-adv-x="1026" arabic-form="medial" 
d="M871 1623v-260l-623 -383q127 -63 226 -126.5t169.5 -132.5t112.5 -145t54 -164q5 -29 13 -58.5t31 -58.5q10 -14 24 -26.5t34.5 -23t48.5 -16.5t65 -6v-245h-22q-38 0 -76 8.5t-72.5 26.5t-64.5 46.5t-52 69.5h-6q-25 -33 -63 -60.5t-92 -47.5t-125 -31.5t-162 -11.5
h-291q-35 0 -52.5 33.5t-17.5 89.5q0 55 17.5 88.5t52.5 33.5h294q93 0 154 6t97.5 20.5t51.5 39.5t15 63q0 60 -39 119.5t-116.5 122t-192 129t-264.5 139.5v206zM198 1523h-222v203h222v-203zM536 1523h-222v203h222v-203zM368 1803h-223v203h223v-203z" />
    <glyph glyph-name="uniFBD8" unicode="&#x6c7;" horiz-adv-x="1026" arabic-form="final" 
d="M0 -196q55 -21 102.5 -35.5t90 -23.5t81.5 -13t77 -4q69 0 118 16t82 43t52.5 61.5t29.5 70.5q3 10 6.5 27t5.5 35h-97q-195 0 -300 89t-105 255q0 77 26.5 155.5t72.5 141.5t107 103t130 40q77 0 139 -43.5t119 -135.5q45 -72 72 -164t37 -199h180v-245h-182
q-12 -107 -47.5 -198t-96.5 -158t-147.5 -105t-200.5 -38q-43 0 -84.5 4t-84 13.5t-88 24.5t-95.5 36v247zM626 316q-12 37 -29 72.5t-36.5 63.5t-42.5 45t-47 17q-27 0 -51 -18t-42.5 -44t-29.5 -56t-11 -55q0 -68 50.5 -95t154.5 -27h105q-4 23 -8.5 48.5t-12.5 48.5z
M548 1004q-29 22 -51 40t-37 32q-10 -2 -21.5 -3t-22.5 -2t-20 -1h-13q-64 0 -117 7.5t-112 23.5l21 98q48 -13 88.5 -21t84.5 -10q8 0 16.5 -0.5t17.5 -0.5q-1 1 -1 1.5t-1 1.5q-45 63 -45 125q0 40 16 70.5t42.5 51.5t60.5 32t69 11q33 0 65 -10t57 -31t40 -53t15 -75
q0 -64 -33 -108t-92 -71q5 -7 12 -13t26 -20zM586 1290q0 36 -20 52.5t-46 16.5t-48 -16t-22 -50q0 -26 14 -53t37 -53q38 14 61.5 39.5t23.5 63.5z" />
    </font>
</defs>
</svg>
