<?xml version="1.0" encoding="utf-8"?>
<!-- Generator: Adobe Illustrator 22.1.0, SVG Export Plug-In . SVG Version: 6.00 Build 0)  -->
<svg version="1.1" id="图层_1" xmlns="http://www.w3.org/2000/svg" xmlns:xlink="http://www.w3.org/1999/xlink" x="0px" y="0px"
	 viewBox="0 0 990 110" style="enable-background:new 0 0 990 110;" xml:space="preserve">
<style type="text/css">
	.st0{fill:#00328F;}
	.st1{fill:none;}
</style>
<title>banner_sensor+module</title>
<g id="图层_2_1_">
	<g id="图层_1-2">
		<path class="st0" d="M493.9,45.5L493.9,45.5c-3.3,0-6-2.7-6-6c0,0,0,0,0-0.1c0-2,1.1-3.9,2.8-5V7.7c0-1.8,1.4-3.2,3.2-3.2
			c1.8,0,3.2,1.4,3.2,3.2v26.8c2.8,1.8,3.5,5.6,1.7,8.3C497.7,44.4,495.9,45.4,493.9,45.5L493.9,45.5z M493.9,5.5
			c-1.2,0-2.2,1-2.2,2.2V35l-0.2,0.2c-1.6,0.9-2.5,2.5-2.5,4.3c0,2.8,2.2,5,5,5.1l0,0c1.3,0,2.6-0.5,3.5-1.5c1.9-2,1.9-5.1,0-7.1
			c-0.3-0.3-0.7-0.6-1-0.8l-0.2-0.1V7.7C496.1,6.5,495.1,5.5,493.9,5.5L493.9,5.5z"/>
		<rect x="500.2" y="11.7" class="st0" width="7.4" height="1"/>
		<rect x="500.2" y="15.7" class="st0" width="4.4" height="1"/>
		<rect x="500.2" y="19.8" class="st0" width="7.4" height="1"/>
		<rect x="500.2" y="23.8" class="st0" width="4.4" height="1"/>
		<rect x="470" class="st1" width="50" height="50"/>
		<g id="_编组_">
			<path class="st0" d="M385,42.3c-1.7,0-3.2-1.4-3.2-3.2s1.4-3.2,3.2-3.2c1.7,0,3.2,1.4,3.2,3.2C388.2,40.9,386.7,42.3,385,42.3z
				 M385,37c-1.2,0-2.2,1-2.2,2.2s1,2.2,2.2,2.2c1.2,0,2.2-1,2.2-2.2C387.2,38,386.2,37,385,37L385,37z"/>
		</g>
		<path class="st0" d="M364.6,23.3l-4.8-4.8l0.4-0.4c13.5-13.7,35.5-13.9,49.3-0.4c0.1,0.1,0.3,0.3,0.4,0.4l0.4,0.4l-4.8,4.8
			l-0.4-0.4c-10.9-11.1-28.7-11.3-39.8-0.4c-0.1,0.1-0.3,0.3-0.4,0.4L364.6,23.3z M385,13.5c7.7,0,15,3,20.4,8.4l3.4-3.4
			c-13.2-13-34.4-13-47.6,0l3.4,3.4C370,16.5,377.3,13.4,385,13.5z"/>
		<path class="st0" d="M395.3,33.4l-0.4-0.4c-5.3-5.5-14-5.7-19.5-0.4c-0.1,0.1-0.3,0.3-0.4,0.4l-0.4,0.4l-4.8-4.8l0.4-0.4
			c7.9-8.1,20.9-8.3,29-0.4c0.1,0.1,0.3,0.3,0.4,0.4l0.4,0.4L395.3,33.4z M371.4,28.6l3.4,3.4c5.7-5.6,14.9-5.6,20.6,0l3.4-3.4
			C391.1,21.2,378.9,21.2,371.4,28.6L371.4,28.6z"/>
		<rect x="360" class="st1" width="50" height="50"/>
		<path class="st0" d="M264.8,5h1.8c0.1,0,0.1,0.1,0.1,0.2v4.1c0,0.1-0.1,0.1-0.1,0.1h-1.8c-0.1,0-0.1-0.1-0.1-0.1V5.2
			C264.6,5.1,264.7,5,264.8,5z"/>
		<path class="st0" d="M271,5h1.8c0.1,0,0.1,0.1,0.1,0.2v4.1c0,0.1-0.1,0.1-0.1,0.1H271c-0.1,0-0.1-0.1-0.1-0.1V5.2
			C270.9,5.1,270.9,5,271,5z"/>
		<path class="st0" d="M277.2,5h1.8c0.1,0,0.1,0.1,0.1,0.2v4.1c0,0.1-0.1,0.1-0.1,0.1h-1.8c-0.1,0-0.1-0.1-0.1-0.1V5.2
			C277.1,5.1,277.1,5,277.2,5z"/>
		<path class="st0" d="M283.5,5h1.8c0.1,0,0.1,0.1,0.1,0.2v4.1c0,0.1-0.1,0.1-0.1,0.1h-1.8c-0.1,0-0.1-0.1-0.1-0.1V5.2
			C283.3,5.1,283.4,5,283.5,5z"/>
		<path class="st0" d="M264.8,40h1.8c0.1,0,0.1,0.1,0.1,0.2v4.7c0,0.1-0.1,0.2-0.1,0.2h-1.8c-0.1,0-0.1-0.1-0.1-0.2v-4.7
			C264.6,40.1,264.7,40,264.8,40z"/>
		<path class="st0" d="M271,40h1.8c0.1,0,0.1,0.1,0.1,0.2v4.7c0,0.1-0.1,0.2-0.1,0.2H271c-0.1,0-0.1-0.1-0.1-0.2v-4.7
			C270.9,40.1,270.9,40,271,40z"/>
		<path class="st0" d="M277.2,40h1.8c0.1,0,0.1,0.1,0.1,0.2v4.7c0,0.1-0.1,0.2-0.1,0.2h-1.8c-0.1,0-0.1-0.1-0.1-0.2v-4.7
			C277.1,40.1,277.1,40,277.2,40z"/>
		<path class="st0" d="M283.5,40h1.8c0.1,0,0.1,0.1,0.1,0.2v4.7c0,0.1-0.1,0.2-0.1,0.2h-1.8c-0.1,0-0.1-0.1-0.1-0.2v-4.7
			C283.3,40.1,283.4,40,283.5,40z"/>
		<path class="st0" d="M295,14.8v1.8c0,0.1-0.1,0.1-0.1,0.1h-4.4c-0.1,0-0.1-0.1-0.1-0.1v-1.8c0-0.1,0.1-0.1,0.1-0.1h4.4
			C294.9,14.6,295,14.7,295,14.8z"/>
		<path class="st0" d="M295,21v1.8c0,0.1-0.1,0.1-0.1,0.1h-4.4c-0.1,0-0.2-0.1-0.2-0.1V21c0-0.1,0.1-0.1,0.2-0.1h4.4
			C294.9,20.9,295,20.9,295,21z"/>
		<path class="st0" d="M295,27.2V29c0,0.1-0.1,0.1-0.2,0.1h-4.4c-0.1,0-0.1-0.1-0.1-0.1v-1.8c0-0.1,0.1-0.1,0.1-0.1h4.4
			C294.9,27.1,295,27.1,295,27.2z"/>
		<path class="st0" d="M295,33.5v1.8c0,0.1-0.1,0.1-0.1,0.1h-4.4c-0.1,0-0.1-0.1-0.1-0.1v-1.8c0-0.1,0.1-0.1,0.1-0.1h4.4
			C294.9,33.3,295,33.4,295,33.5z"/>
		<path class="st0" d="M259.7,14.8v1.8c0,0.1-0.1,0.1-0.1,0.1h-4.4c-0.1,0-0.1-0.1-0.1-0.1v-1.8c0-0.1,0.1-0.1,0.1-0.1h4.4
			C259.6,14.6,259.7,14.7,259.7,14.8z"/>
		<path class="st0" d="M259.7,21v1.8c0,0.1-0.1,0.1-0.1,0.1h-4.4c-0.1,0-0.1-0.1-0.1-0.1V21c0-0.1,0.1-0.1,0.1-0.1h4.4
			C259.6,20.8,259.7,20.9,259.7,21z"/>
		<path class="st0" d="M259.7,27.2V29c0,0.1-0.1,0.1-0.2,0.1h-4.4c-0.1,0-0.2-0.1-0.2-0.1v-1.8c0-0.1,0.1-0.1,0.2-0.1h4.4
			C259.6,27.1,259.7,27.1,259.7,27.2z"/>
		<path class="st0" d="M259.7,33.5v1.8c0,0.1-0.1,0.1-0.1,0.1h-4.4c-0.1,0-0.2-0.1-0.2-0.1v-1.8c0-0.1,0.1-0.1,0.2-0.1h4.4
			C259.6,33.3,259.7,33.4,259.7,33.5z"/>
		<path class="st1" d="M260.5,9.4h29c0.4,0,0.8,0.4,0.8,0.8v29c0,0.4-0.4,0.8-0.8,0.8h-29c-0.4,0-0.8-0.4-0.8-0.8v-29
			C259.7,9.7,260,9.4,260.5,9.4z"/>
		<path class="st0" d="M289.5,40.5h-29c-0.7,0-1.3-0.6-1.3-1.3v-29c0-0.7,0.6-1.3,1.3-1.3h29c0.7,0,1.3,0.6,1.3,1.3v29
			C290.8,39.9,290.2,40.5,289.5,40.5z M260.5,9.9c-0.2,0-0.3,0.1-0.3,0.3c0,0,0,0,0,0v29c0,0.2,0.1,0.3,0.3,0.3c0,0,0,0,0,0h29
			c0.2,0,0.3-0.1,0.3-0.3c0,0,0,0,0,0v-29c0-0.2-0.1-0.3-0.3-0.3c0,0,0,0,0,0L260.5,9.9z"/>
		<rect x="250" class="st1" width="50" height="50"/>
		<path class="st0" d="M172.6,17.7h-15.2V4.5h15.2V17.7z M158.4,16.7h13.2V5.5h-13.2V16.7z"/>
		<path class="st0" d="M179.1,23h-28.2c-1,0-1.8-0.8-1.8-1.8v-8.3c0-1,0.8-1.8,1.8-1.8h7.5v5.6h13.2v-5.6h7.5c1,0,1.8,0.8,1.8,1.8
			v8.3C180.9,22.2,180.1,23,179.1,23C179.1,23,179.1,23,179.1,23z M150.9,12.1c-0.4,0-0.8,0.4-0.8,0.8v8.3c0,0.4,0.4,0.8,0.8,0.8
			h28.2c0.4,0,0.8-0.4,0.8-0.8v-8.3c0-0.4-0.4-0.8-0.8-0.8h-6.5v5.6h-15.2v-5.6H150.9z"/>
		<path class="st0" d="M179.1,45.5h-28.2c-1,0-1.8-0.8-1.8-1.8V21.2h1c0,0.4,0.4,0.8,0.8,0.8h28.2c0.4,0,0.8-0.4,0.8-0.8h1v22.5
			C180.9,44.7,180.1,45.5,179.1,45.5z M150.1,22.8v20.9c0,0.4,0.4,0.8,0.8,0.8h28.2c0.4,0,0.8-0.4,0.8-0.8V22.8
			c-0.2,0.1-0.5,0.2-0.8,0.2h-28.3C150.6,23,150.3,22.9,150.1,22.8L150.1,22.8z"/>
		<rect x="161.7" y="10.2" class="st0" width="1.9" height="2.8"/>
		<rect x="166.5" y="10.2" class="st0" width="1.9" height="2.8"/>
		<rect x="140" class="st1" width="50" height="50"/>
		<path class="st0" d="M603.3,22.6c-2.9,0-5.3-2.4-5.3-5.3c0-2.8,4.7-9.8,4.9-10.1l0.4-0.6l0.4,0.6c0.2,0.3,4.9,7.3,4.9,10.1
			C608.6,20.2,606.2,22.6,603.3,22.6z M603.3,8.4c-1.5,2.3-4.3,7.1-4.3,8.9c-0.1,2.4,1.7,4.4,4.1,4.5s4.4-1.7,4.5-4.1
			c0-0.1,0-0.3,0-0.4C607.6,15.5,604.8,10.7,603.3,8.4z"/>
		<path class="st0" d="M597.1,43c-2.9,0-5.3-2.4-5.3-5.3c0-2.8,4.7-9.8,4.9-10.1l0.4-0.6l0.4,0.6c0.2,0.3,4.9,7.3,4.9,10.1
			C602.4,40.6,600,43,597.1,43z M597.1,28.8c-1.5,2.3-4.3,7.1-4.3,8.9c-0.1,2.4,1.7,4.4,4.1,4.5c2.4,0.1,4.4-1.7,4.5-4.1
			c0-0.1,0-0.3,0-0.4C601.4,35.8,598.6,31.1,597.1,28.8z"/>
		<path class="st0" d="M612.9,38.2c-2.9,0-5.3-2.4-5.3-5.3c0-2.8,4.7-9.8,4.9-10.1l0.4-0.6l0.4,0.6c0.2,0.3,4.9,7.3,4.9,10.1
			C618.2,35.8,615.8,38.2,612.9,38.2z M612.9,24c-1.5,2.3-4.3,7-4.3,8.9c-0.1,2.4,1.7,4.4,4.1,4.5c2.4,0.1,4.4-1.7,4.5-4.1
			c0-0.1,0-0.3,0-0.4C617.2,31,614.4,26.3,612.9,24L612.9,24z"/>
		<rect x="580" class="st1" width="50" height="50"/>
		<g id="_编组_2">
			<g>
				<path class="st0" d="M55.1,45.7L55.1,45.7c-11.5-0.1-20.7-9.5-20.6-20.9c0.1-5.4,2.2-10.6,6.1-14.4c3.8-3.8,9-6,14.4-6H55
					c11.4,0.1,20.6,9.4,20.6,20.9c0,5.5-2.2,10.7-6.1,14.5C65.6,43.5,60.5,45.7,55.1,45.7z M54.9,5.4c-5.1,0-10.1,2-13.7,5.6
					c-7.7,7.7-7.7,20.2,0,27.9c3.6,3.7,8.6,5.7,13.7,5.8c5.2,0,10.1-2,13.7-5.7c7.7-7.7,7.7-20.2,0-27.9C65.1,7.5,60.2,5.4,54.9,5.4
					L54.9,5.4z"/>
			</g>
		</g>
		<g id="_编组_3">
			<g id="_编组_4">
				<path class="st0" d="M54.9,17c-1.3,0-2.3-1-2.3-2.3s1-2.3,2.3-2.3c1.3,0,2.3,1,2.3,2.3S56.2,17,54.9,17L54.9,17z M54.9,13.3
					c-0.7,0-1.3,0.6-1.3,1.3s0.6,1.3,1.3,1.3s1.3-0.6,1.3-1.3C56.2,13.9,55.6,13.3,54.9,13.3L54.9,13.3z"/>
			</g>
			<g id="_编组_5">
				<path class="st0" d="M54.9,38c-1.3,0-2.3-1-2.3-2.3s1-2.3,2.3-2.3s2.3,1,2.3,2.3S56.2,38,54.9,38L54.9,38z M54.9,34.3
					c-0.7,0-1.3,0.6-1.3,1.3s0.6,1.3,1.3,1.3s1.3-0.6,1.3-1.3C56.2,34.9,55.6,34.3,54.9,34.3L54.9,34.3z"/>
			</g>
			<g id="_编组_6">
				<path class="st0" d="M44.4,27.5c-1.3,0-2.3-1-2.3-2.3s1-2.3,2.3-2.3s2.3,1,2.3,2.3C46.7,26.5,45.7,27.5,44.4,27.5
					C44.4,27.5,44.4,27.5,44.4,27.5z M44.4,23.9c-0.7,0-1.3,0.6-1.3,1.3s0.6,1.3,1.3,1.3s1.3-0.6,1.3-1.3S45.1,23.9,44.4,23.9
					L44.4,23.9z"/>
			</g>
			<g id="_编组_7">
				<path class="st0" d="M65.4,27.5c-1.3,0-2.3-1-2.3-2.3c0-1.3,1-2.3,2.3-2.3s2.3,1,2.3,2.3c0,0,0,0,0,0
					C67.7,26.5,66.7,27.5,65.4,27.5z M65.4,23.9c-0.7,0-1.3,0.6-1.3,1.3c0,0.7,0.6,1.3,1.3,1.3s1.3-0.6,1.3-1.3c0,0,0,0,0,0
					C66.7,24.5,66.1,23.9,65.4,23.9z"/>
			</g>
			<g id="_编组_8">
				<path class="st0" d="M47.5,20.1c-1.3,0-2.3-1-2.3-2.3c0-1.3,1-2.3,2.3-2.3c1.3,0,2.3,1,2.3,2.3c0,0.6-0.2,1.2-0.7,1.7
					C48.7,19.9,48.1,20.1,47.5,20.1z M47.5,16.4c-0.7,0-1.3,0.7-1.3,1.4c0,0.7,0.7,1.3,1.4,1.3s1.3-0.7,1.3-1.4
					c0-0.3-0.2-0.7-0.4-0.9C48.2,16.6,47.8,16.4,47.5,16.4z"/>
			</g>
			<g id="_编组_9">
				<path class="st0" d="M62.3,35c-0.6,0-1.2-0.2-1.7-0.7c-0.9-0.9-0.9-2.4,0-3.3c0.9-0.9,2.4-0.9,3.3,0c0.9,0.9,0.9,2.4,0,3.3
					C63.6,34.8,63,35,62.3,35z M62.3,31.3c-0.4,0-0.7,0.1-1,0.4c-0.5,0.5-0.5,1.4,0,1.9c0.5,0.5,1.4,0.5,1.9,0
					c0.5-0.5,0.5-1.4,0-1.9C63,31.5,62.7,31.3,62.3,31.3L62.3,31.3z"/>
			</g>
			<g id="_编组_10">
				<path class="st0" d="M47.5,35c-1.3,0-2.3-1-2.3-2.3c0-0.6,0.2-1.2,0.7-1.7l0,0c0.9-0.9,2.4-0.9,3.3,0c0.9,0.9,0.9,2.4,0,3.3
					C48.7,34.8,48.1,35,47.5,35z M46.5,31.7c-0.5,0.5-0.5,1.4,0,1.9c0.5,0.5,1.4,0.5,1.9,0c0.5-0.5,0.5-1.4,0-1.9
					C47.9,31.2,47.1,31.2,46.5,31.7C46.5,31.7,46.5,31.7,46.5,31.7L46.5,31.7z"/>
			</g>
			<g id="_编组_11">
				<path class="st0" d="M62.3,20.1c-0.6,0-1.2-0.2-1.7-0.7c-0.9-0.9-0.9-2.4,0-3.3l0,0c0.9-0.9,2.4-0.9,3.3,0
					c0.9,0.9,0.9,2.4,0,3.3C63.5,19.9,62.9,20.1,62.3,20.1z M62.3,16.4c-0.4,0-0.7,0.1-1,0.4l0,0c-0.5,0.5-0.5,1.4,0,1.9
					c0.5,0.5,1.4,0.5,1.9,0c0.5-0.5,0.5-1.4,0-1.9C63,16.6,62.7,16.4,62.3,16.4z"/>
			</g>
		</g>
		<rect x="30" class="st1" width="50" height="50"/>
		<rect x="690" class="st1" width="50" height="50"/>
		<path class="st0" d="M715,39.8c-10.3,0-18.4-3.4-18.4-7.7v-5.2h1c0,3.6,8,6.7,17.4,6.7s17.4-3.1,17.4-6.7h1V32
			C733.4,36.4,725.3,39.8,715,39.8z M697.6,29.4V32c0,3.7,8,6.7,17.4,6.7s17.4-3.1,17.4-6.7v-2.6c-2.5,3-9.2,5.2-17.4,5.2
			S700.1,32.5,697.6,29.4z"/>
		<path class="st0" d="M715,32c-7.2,0-12.9-2.4-12.9-5.5v-7.9h1c0,2.2,4.8,4.5,11.9,4.5s11.9-2.3,11.9-4.5h1v7.9
			C727.9,29.6,722.2,32,715,32z M703.1,20.8v5.7c0,2.2,4.8,4.5,11.9,4.5s11.9-2.3,11.9-4.5v-5.7c-1.9,2-6.5,3.4-11.9,3.4
			S705,22.8,703.1,20.8z"/>
		<path class="st0" d="M715,24.1c-7.2,0-12.9-2.4-12.9-5.5s5.7-5.5,12.9-5.5s12.9,2.4,12.9,5.5S722.2,24.1,715,24.1z M715,14.1
			c-7.1,0-11.9,2.3-11.9,4.5s4.8,4.5,11.9,4.5s11.9-2.3,11.9-4.5S722.1,14.1,715,14.1L715,14.1z"/>
		<path class="st0" d="M715,34.6c-10.3,0-18.4-3.4-18.4-7.7c0-2.2,2.1-4.2,5.8-5.6l0.7-0.3v5.5c0,2.2,4.8,4.5,11.9,4.5
			s11.9-2.3,11.9-4.5v-5.5l0.7,0.3c3.7,1.5,5.8,3.5,5.8,5.6C733.4,31.2,725.3,34.6,715,34.6z M702.1,22.4c-2.8,1.2-4.5,2.8-4.5,4.4
			c0,3.6,8,6.7,17.4,6.7s17.4-3.1,17.4-6.7c0-1.6-1.6-3.2-4.5-4.4v4c0,3.1-5.7,5.5-12.9,5.5s-12.9-2.4-12.9-5.5L702.1,22.4z"/>
		<rect x="800" class="st1" width="50" height="50"/>
		<path class="st0" d="M825,29.4c-6,0-10.6-2-10.6-4.6v-2.3h1c0,1.7,4,3.6,9.6,3.6s9.6-1.9,9.6-3.6h1v2.3
			C835.6,27.4,831,29.4,825,29.4z M815.4,24.5v0.3c0,1.7,4,3.6,9.6,3.6s9.6-1.9,9.6-3.6v-0.3c-1.6,1.5-5.3,2.6-9.6,2.6
			S817,26,815.4,24.5z"/>
		<path class="st0" d="M825,25c-4.2,0-7.4-1.4-7.4-3.3v-11c0-4.1,3.3-7.4,7.4-7.4h0.1c4.1,0,7.4,3.3,7.4,7.4v10.9
			C832.4,23.6,829.2,25,825,25z M824.9,4.4c-3.5,0-6.4,2.9-6.4,6.4v10.9c0,1.1,2.8,2.3,6.4,2.3s6.4-1.2,6.4-2.3V10.8
			c0-3.5-2.9-6.4-6.4-6.4L824.9,4.4z"/>
		<path class="st0" d="M825,27.1c-6,0-10.6-2-10.6-4.6c0-1.4,1.2-2.6,3.5-3.5l0.7-0.2v2.9c0,1.1,2.8,2.3,6.4,2.3s6.4-1.2,6.4-2.3
			v-2.9l0.7,0.2c2.3,0.9,3.5,2.1,3.5,3.5C835.6,25.1,831,27.1,825,27.1z M817.6,20.3c-1.4,0.6-2.2,1.5-2.2,2.2c0,1.7,4,3.6,9.6,3.6
			s9.6-1.9,9.6-3.6c0-0.8-0.8-1.6-2.2-2.2v1.4c0,1.9-3.2,3.3-7.4,3.3s-7.4-1.4-7.4-3.3V20.3z"/>
		<rect x="821.8" y="13" class="st0" width="1" height="33.1"/>
		<rect x="827.2" y="13" class="st0" width="1" height="33.1"/>
		<rect x="822.3" y="13" class="st0" width="5.4" height="3.8"/>
		<path class="st0" d="M948.1,38.7l-23.6,0c-1.5,0-2.9-0.3-4.3-0.9c-1.3-0.5-2.5-1.3-3.5-2.3c-1-1-1.8-2.2-2.3-3.5
			c-1.1-2.7-1.1-5.8,0-8.6c0.6-1.3,1.4-2.5,2.3-3.5c1-1,2.2-1.8,3.5-2.4c1.9-0.8,4-1.1,6-0.7c0.5-0.8,1.1-1.5,1.8-2.1
			c0.7-0.7,1.6-1.3,2.5-1.8c3.2-1.7,7-2,10.4-0.7c2.8,1.1,5,3.2,6.4,5.8c0.6,1.2,1.1,2.5,1.3,3.9c1,0,1.9,0.3,2.8,0.6
			c1,0.4,1.9,1,2.7,1.8c0.8,0.8,1.4,1.7,1.8,2.7c0.9,2.1,0.9,4.5,0,6.6C954.5,36.7,951.5,38.7,948.1,38.7L948.1,38.7z M924.5,17.6
			c-2.7,0-5.2,1-7.1,2.9c-0.9,0.9-1.6,2-2.1,3.2c-1,2.5-1,5.3,0,7.8c0.5,1.2,1.2,2.3,2.1,3.2c1.9,1.9,4.4,2.9,7.1,2.9h23.6
			c1,0,1.9-0.2,2.8-0.6c0.9-0.4,1.7-0.9,2.4-1.6c0.7-0.7,1.2-1.5,1.6-2.3c0.4-0.9,0.6-1.9,0.6-2.9c0-4.1-3.3-7.4-7.4-7.4
			c0,0,0,0,0,0h-0.4v-0.4c-0.2-1.4-0.6-2.7-1.2-4c-0.6-1.2-1.5-2.3-2.5-3.2c-2.8-2.5-6.7-3.5-10.4-2.5c-0.9,0.2-1.8,0.6-2.6,1
			c-0.8,0.4-1.6,1-2.2,1.6c-0.7,0.7-1.3,1.4-1.8,2.2l-0.2,0.3l-0.3-0.1C925.7,17.7,925.1,17.6,924.5,17.6z"/>
		<rect x="910" class="st1" width="50" height="50"/>
		<rect class="st1" width="990" height="110"/>
	</g>
</g>
</svg>
