<svg xmlns="http://www.w3.org/2000/svg" viewBox="0 0 35 35"><defs><style>.cls-1{fill:none;}</style></defs><title>benefits_puzzle</title><g id="图层_2" data-name="图层 2"><g id="图层_1-2" data-name="图层 1"><path d="M18,4.5a2,2,0,0,1,1.41.59A2,2,0,0,1,20,6.5v3h6v4H25a4,4,0,0,0-1.58.32,4,4,0,0,0-2.1,2.1,4.06,4.06,0,0,0,0,3.16,4,4,0,0,0,2.1,2.1A4,4,0,0,0,25,21.5h1v4H20v3a2,2,0,0,1-2.76,1.85A2,2,0,0,1,16,28.5v-3H10v-6H7a2,2,0,0,1-1.41-.59,2,2,0,0,1,0-2.82A2,2,0,0,1,7,15.5h3v-6h6v-3a2,2,0,0,1,.59-1.41A2,2,0,0,1,18,4.5m0-2a3.83,3.83,0,0,0-1.55.31A4,4,0,0,0,14.31,5,3.83,3.83,0,0,0,14,6.5v1H8v6H7a3.83,3.83,0,0,0-1.55.31A4,4,0,0,0,3.31,16a4,4,0,0,0,0,3.1,4,4,0,0,0,2.14,2.14A3.83,3.83,0,0,0,7,21.5H8v6h6v1a3.83,3.83,0,0,0,.31,1.55,4,4,0,0,0,2.14,2.14,4,4,0,0,0,3.1,0,4,4,0,0,0,2.14-2.14A3.83,3.83,0,0,0,22,28.5v-1h6v-8H25a1.85,1.85,0,0,1-.78-.16,2.06,2.06,0,0,1-1.06-1.06,2,2,0,0,1,0-1.56,2.06,2.06,0,0,1,1.06-1.06A1.85,1.85,0,0,1,25,15.5h3v-8H22v-1A3.83,3.83,0,0,0,21.69,5a4,4,0,0,0-2.14-2.14A3.83,3.83,0,0,0,18,2.5Z"/><rect class="cls-1" width="35" height="35"/></g></g></svg>