<svg xmlns="http://www.w3.org/2000/svg" viewBox="0 0 35 35"><defs><style>.cls-1,.cls-2{fill:none;}.cls-1{stroke:#000;stroke-miterlimit:10;stroke-width:2px;}</style></defs><title>benefits_vscode</title><g id="图层_2" data-name="图层 2"><g id="图层_1-2" data-name="图层 1"><path class="cls-1" d="M30.28,5.76,24,2.7a1.55,1.55,0,0,0-1.28.14A.92.92,0,0,1,24,3.69V31.31a.92.92,0,0,1-1.28.85A1.55,1.55,0,0,0,24,32.3l6.31-3.06a2.14,2.14,0,0,0,1.22-1.93V7.69A2.14,2.14,0,0,0,30.28,5.76Z"/><path class="cls-1" d="M22.41,3a1.38,1.38,0,0,1,.28-.19,1,1,0,0,0-.26.16Z"/><path class="cls-1" d="M22.43,32a1,1,0,0,0,.26.16,1.38,1.38,0,0,1-.28-.19Z"/><path class="cls-1" d="M1.78,21.91a.85.85,0,0,0,0,1.25l2,1.92a.85.85,0,0,0,1.1.06L10.37,21,6.6,17.5Z"/><path class="cls-1" d="M24,3.69A.92.92,0,0,0,22.43,3L10.37,14.05l4.51,3.45L24,10.55Z"/><path class="cls-1" d="M24,24.45v6.86a.92.92,0,0,1-1.54.69L1.78,13.09a.85.85,0,0,1,0-1.25l2-1.92a.85.85,0,0,1,1.1-.06Z"/><rect class="cls-2" width="35" height="35"/></g></g></svg>