<svg xmlns="http://www.w3.org/2000/svg" viewBox="0 0 35 35"><defs><style>.cls-1,.cls-2{fill:none;}.cls-1{stroke:#000;stroke-miterlimit:10;stroke-width:2px;}</style></defs><title>benefits_cloud</title><g id="图层_2" data-name="图层 2"><g id="图层_1-2" data-name="图层 1"><path class="cls-1" d="M28.21,26.07a4.22,4.22,0,0,0,1.67-.33,4.41,4.41,0,0,0,1.36-.92,4.49,4.49,0,0,0,.93-1.37,4.37,4.37,0,0,0,0-3.33,4.46,4.46,0,0,0-2.29-2.29,4.22,4.22,0,0,0-1.67-.33H26.07V16.43a7.32,7.32,0,0,0-.58-2.92,7.53,7.53,0,0,0-4-4,7.32,7.32,0,0,0-2.92-.58,7.46,7.46,0,0,0-2.26.35,7.32,7.32,0,0,0-2,1A7.08,7.08,0,0,0,12.7,11.8a7.55,7.55,0,0,0-1.13,2,6.29,6.29,0,0,0-5.14-.08,6.39,6.39,0,0,0-2,1.38,6.61,6.61,0,0,0-1.38,2,6.5,6.5,0,0,0,0,5,6.8,6.8,0,0,0,1.38,2,6.73,6.73,0,0,0,2.05,1.38,6.31,6.31,0,0,0,2.5.5Z"/><rect class="cls-2" width="35" height="35"/></g></g></svg>