<?xml version="1.0" encoding="UTF-8"?>
<svg width="1260px" height="312px" viewBox="0 0 1260 312" version="1.1" xmlns="http://www.w3.org/2000/svg" xmlns:xlink="http://www.w3.org/1999/xlink">
    <!-- Generator: Sketch 52.2 (67145) - http://www.bohemiancoding.com/sketch -->
    <title>Group</title>
    <desc>Created with Sketch.</desc>
    <g id="Landing-page" stroke="none" stroke-width="1" fill="none" fill-rule="evenodd">
        <g id="Call-to-Action--Copy" transform="translate(-7.000000, 0.000000)" fill="#E2F5FF">
            <g id="Group" transform="translate(6.000000, -18.000000)">
                <path d="M1234.65239,0 L1200.98637,0 L1160.59341,0 L1119.67294,0 L1038.87919,0 L1034.72577,0 L1028.53156,0 L1028.17119,0 L1028.17119,0.0367483594 C1018.43332,1.69698674 1011,10.1609214 1011,20.4215883 C1011,31.8739521 1020.23648,41.1568501 1031.62867,41.1568501 C1038.47573,41.1568501 1044.4989,37.7655015 1048.25146,32.602357 C1053.27186,37.2195259 1059.72068,40.2906388 1066.8785,40.9954198 C1069.70924,59.326289 1085.43503,73.372037 1104.46552,73.372037 C1115.33804,73.372037 1125.12161,68.7693049 1132.06137,61.4248828 C1138.29215,82.5670015 1157.73524,98 1180.78989,98 C1206.90508,98 1228.39551,78.2018213 1231.27848,52.7260212 C1232.38571,52.8677648 1233.5073,52.9661979 1234.65239,52.9661979 C1249.20305,52.9661979 1261,41.1096022 1261,26.4837552 C1261,11.8579081 1249.20305,0 1234.65239,0" id="Fill-1"></path>
                <path d="M402.594837,320.742796 C402.630073,320.563541 402.644428,320.379052 402.677054,320.199796 C402.842792,320.379052 402.999394,320.566158 403.167742,320.742796 L402.594837,320.742796 Z M39.1545293,378.108609 C39.006415,378.110276 38.8581009,378.111111 38.7095915,378.111111 C17.3314203,378.111111 0,360.800219 0,339.444444 C0,318.089979 17.3314203,300.777778 38.7095915,300.777778 C39.759343,300.777778 40.7993371,300.819521 41.8280008,300.901436 C42.2389701,260.01682 75.5465211,227 116.573712,227 C116.905087,227 117.235958,227.002154 117.566313,227.006449 C117.895544,227.002154 118.225296,227 118.555556,227 C153.228678,227 182.305866,250.690517 190.775457,282.7838 C201.025098,271.5836 215.700067,264.519362 232.057209,264.519362 C261.84433,264.519362 286.139919,287.82389 287.95651,317.232266 C288.016541,317.230958 288.072657,317.213948 288.133993,317.213948 C291.200794,317.213948 294.105772,317.844614 296.816302,318.86781 C301.167244,311.746 308.930819,306.94797 317.871522,306.94797 C322.901076,306.94797 327.567834,308.473605 331.473764,311.057764 C332.7305,292.273877 348.283749,277.41791 367.335761,277.41791 C377.757664,277.41791 387.115975,281.887523 393.688064,288.98578 C396.825336,272.265295 411.44158,259.608807 429.029357,259.608807 C448.903533,259.608807 465.015331,275.761432 465.015331,295.688891 C465.015331,299.285778 464.473747,302.751821 463.496286,306.029449 C464.003939,306.008514 464.502458,305.952252 465.015331,305.952252 C484.889507,305.952252 501,322.106185 501,342.032336 C501,361.958486 484.889507,378.111111 465.015331,378.111111 L257.174067,378.111111 L257.174067,379 L39.1545293,379 L39.1545293,378.108609 Z" id="Fill-3"></path>
            </g>
        </g>
    </g>
</svg>