<svg id="Layer_1" data-name="Layer 1" xmlns="http://www.w3.org/2000/svg" viewBox="0 0 102.81 102.81"><defs><style>.cls-1{fill:#fff;}</style></defs><title>logo-azure-certified</title><path class="cls-1" d="M54.56,34.1a2.62,2.62,0,0,0-1.95.82,3.72,3.72,0,0,0-1,2.14h5.46a3.3,3.3,0,0,0-.68-2.18A2.31,2.31,0,0,0,54.56,34.1Z"/><path class="cls-1" d="M53.73,23.29a3,3,0,0,0,2.42-1A4.41,4.41,0,0,0,57,19.38a4.49,4.49,0,0,0-.84-2.92,3,3,0,0,0-2.42-1,3.08,3.08,0,0,0-2.47,1.06,4.36,4.36,0,0,0-.91,2.93,4.13,4.13,0,0,0,.92,2.83A3.12,3.12,0,0,0,53.73,23.29Z"/><path class="cls-1" d="M74.17,23.29a3,3,0,0,0,2.42-1,4.41,4.41,0,0,0,.84-2.89,4.49,4.49,0,0,0-.84-2.92,3,3,0,0,0-2.42-1,3.08,3.08,0,0,0-2.47,1.06,4.36,4.36,0,0,0-.91,2.93,4.13,4.13,0,0,0,.92,2.83A3.12,3.12,0,0,0,74.17,23.29Z"/><path class="cls-1" d="M15,31.59a5.69,5.69,0,0,1-.22-.95h0a5.4,5.4,0,0,1-.23.95l-2.2,6h4.91Z"/><path class="cls-1" d="M0,0V102.81H102.81V0ZM86.8,14.3h1.74V11.83l1.62-.52v3H92.7v1.38H90.15v5.7a2.36,2.36,0,0,0,.35,1.45,1.38,1.38,0,0,0,1.15.43,1.7,1.7,0,0,0,1.06-.34v1.38a3.12,3.12,0,0,1-1.51.32q-2.66,0-2.66-3v-6H86.8Zm-6.23,0h1.73V12.66a3.41,3.41,0,0,1,.92-2.51,3.1,3.1,0,0,1,2.29-.92,3.18,3.18,0,0,1,1.18.18v1.46a2.16,2.16,0,0,0-1.08-.27q-1.7,0-1.7,2.14V14.3h2.37v1.38H83.9v8.73H82.29V15.68H80.56Zm-10,1.2a5,5,0,0,1,3.76-1.43,4.54,4.54,0,0,1,3.53,1.39,5.53,5.53,0,0,1,1.27,3.86,5.44,5.44,0,0,1-1.37,3.88,4.79,4.79,0,0,1-3.67,1.46,4.69,4.69,0,0,1-3.58-1.42,5.25,5.25,0,0,1-1.34-3.76A5.47,5.47,0,0,1,70.53,15.49Zm-9.9,6.82a4.79,4.79,0,0,0,2.91,1q2.13,0,2.13-1.42a1.23,1.23,0,0,0-.18-.69,1.83,1.83,0,0,0-.49-.5,3.82,3.82,0,0,0-.73-.39l-.9-.36a11.44,11.44,0,0,1-1.18-.54,3.56,3.56,0,0,1-.85-.61,2.29,2.29,0,0,1-.51-.78,2.74,2.74,0,0,1-.17-1A2.43,2.43,0,0,1,61,15.73a2.9,2.9,0,0,1,.87-.92,4,4,0,0,1,1.24-.56,5.5,5.5,0,0,1,1.44-.19,5.81,5.81,0,0,1,2.35.45v1.64a4.58,4.58,0,0,0-2.57-.73,3,3,0,0,0-.82.1,2,2,0,0,0-.63.29,1.34,1.34,0,0,0-.41.45,1.18,1.18,0,0,0-.14.58,1.38,1.38,0,0,0,.14.66,1.46,1.46,0,0,0,.42.47,3.21,3.21,0,0,0,.67.38l.9.37a12.58,12.58,0,0,1,1.21.53,4.1,4.1,0,0,1,.91.61,2.39,2.39,0,0,1,.58.79,2.53,2.53,0,0,1,.2,1.06A2.5,2.5,0,0,1,67,23a2.83,2.83,0,0,1-.88.92,4.06,4.06,0,0,1-1.27.54,6.31,6.31,0,0,1-1.51.18,5.74,5.74,0,0,1-2.71-.6ZM52.52,41a3.14,3.14,0,0,0,2.39.92,5,5,0,0,0,3.14-1.13v1.52a5.87,5.87,0,0,1-3.53,1,4.28,4.28,0,0,1-3.37-1.38,5.64,5.64,0,0,1-1.22-3.88,5.53,5.53,0,0,1,1.34-3.85,4.29,4.29,0,0,1,3.32-1.49A3.8,3.8,0,0,1,57.67,34a5.35,5.35,0,0,1,1.09,3.57v.85H51.61A3.78,3.78,0,0,0,52.52,41ZM50.09,15.49a5,5,0,0,1,3.76-1.43,4.54,4.54,0,0,1,3.53,1.39,5.53,5.53,0,0,1,1.27,3.86,5.44,5.44,0,0,1-1.37,3.88,4.79,4.79,0,0,1-3.67,1.46A4.69,4.69,0,0,1,50,23.23a5.25,5.25,0,0,1-1.34-3.76A5.47,5.47,0,0,1,50.09,15.49ZM48.86,32.93v1.68a2,2,0,0,0-1.22-.33,2.07,2.07,0,0,0-1.73,1,4.52,4.52,0,0,0-.7,2.67v5.16H43.59V33h1.62v2.08h0a3.53,3.53,0,0,1,1.06-1.66,2.41,2.41,0,0,1,1.59-.6A2.66,2.66,0,0,1,48.86,32.93ZM42.35,14.3H44v2.08h0a3.53,3.53,0,0,1,1.06-1.66,2.41,2.41,0,0,1,1.59-.6,2.66,2.66,0,0,1,1,.14v1.68a2,2,0,0,0-1.22-.33,2.07,2.07,0,0,0-1.73,1,4.52,4.52,0,0,0-.7,2.67v5.16H42.35Zm-8.6,1.28a5,5,0,0,1,3.82-1.52,5.32,5.32,0,0,1,2.35.49v1.66a4.12,4.12,0,0,0-2.41-.79A3.26,3.26,0,0,0,35,16.54a4.22,4.22,0,0,0-1,2.92,4,4,0,0,0,.93,2.81,3.22,3.22,0,0,0,2.5,1,4.06,4.06,0,0,0,2.49-.88v1.54a5.27,5.27,0,0,1-2.77.7,4.58,4.58,0,0,1-3.49-1.41,5.1,5.1,0,0,1-1.33-3.65A5.61,5.61,0,0,1,33.75,15.58ZM31.92,33h1.61v5.79Q33.53,42,36,42a2.48,2.48,0,0,0,2-.87,3.35,3.35,0,0,0,.77-2.29V33h1.62V43.09H38.7v-1.6h0a3.32,3.32,0,0,1-3.12,1.84q-3.62,0-3.62-4.31ZM30,41.71v1.38H21.68v-.5l6-8.23H22.24V33H30v.46l-6,8.27ZM28.11,24.41V14.3h1.62V24.41ZM28.2,9.93a1,1,0,0,1,.74-.3,1,1,0,0,1,.76.3,1.06,1.06,0,0,1,0,1.5,1,1,0,0,1-.76.31,1,1,0,0,1-.74-.3,1,1,0,0,1-.31-.75A1,1,0,0,1,28.2,9.93Zm-18,.32h2.19l4.35,9.88a12.57,12.57,0,0,1,.65,1.7h.06q.42-1.17.68-1.74l4.44-9.84H24.6V24.41H23v-9.5q0-1.13.14-2.76h0a8.73,8.73,0,0,1-.42,1.37L17.79,24.41H17L12.15,13.61a8.43,8.43,0,0,1-.42-1.45h0q.08.85.08,2.78v9.48h-1.6ZM14,28.92h1.72l5.45,14.17H19.29l-1.5-4h-6l-1.41,4H8.52ZM100.4,100.4h-98V73.75h98Z"/><path class="cls-1" d="M17.58,92.16a5.67,5.67,0,0,1-2.63.55,4.3,4.3,0,0,1-3.26-1.28,4.68,4.68,0,0,1-1.23-3.37,4.91,4.91,0,0,1,1.38-3.62A4.72,4.72,0,0,1,15.33,83a5.72,5.72,0,0,1,2.25.38V85a4,4,0,0,0-2.09-.56,3.27,3.27,0,0,0-2.46,1A3.57,3.57,0,0,0,12.09,88,3.41,3.41,0,0,0,13,90.44a3.06,3.06,0,0,0,2.31.92,4.14,4.14,0,0,0,2.29-.63Z"/><path class="cls-1" d="M25.17,89.63H20.62a1.93,1.93,0,0,0,.57,1.43,2.13,2.13,0,0,0,1.5.5,3.3,3.3,0,0,0,2-.64v1.22a4.49,4.49,0,0,1-2.41.57,3,3,0,0,1-2.31-.91,3.64,3.64,0,0,1-.84-2.56A3.56,3.56,0,0,1,20,86.7a3,3,0,0,1,2.29-1,2.63,2.63,0,0,1,2.12.88A3.66,3.66,0,0,1,25.17,89Zm-1.46-1.07a2,2,0,0,0-.38-1.27,1.28,1.28,0,0,0-1-.45,1.47,1.47,0,0,0-1.1.48,2.18,2.18,0,0,0-.56,1.25Z"/><path class="cls-1" d="M30.82,87.32A1.25,1.25,0,0,0,30,87.1a1.35,1.35,0,0,0-1.12.61,2.71,2.71,0,0,0-.45,1.65v3.19H26.95V85.88h1.51v1.38h0a2.33,2.33,0,0,1,.68-1.1,1.54,1.54,0,0,1,1-.39,1.28,1.28,0,0,1,.63.12Z"/><path class="cls-1" d="M36.13,92.48A2.63,2.63,0,0,1,35,92.7Q33,92.7,33,90.84V87.06H31.9V85.88H33V84.33l1.51-.43v2h1.6v1.19h-1.6V90.4a1.32,1.32,0,0,0,.22.85.89.89,0,0,0,.72.25,1,1,0,0,0,.67-.22Z"/><path class="cls-1" d="M38.53,84.48a.91.91,0,0,1-.64-.24.79.79,0,0,1-.26-.61.81.81,0,0,1,.26-.62.9.9,0,0,1,.64-.25.93.93,0,0,1,.65.25.81.81,0,0,1,.27.62.8.8,0,0,1-.27.6A.92.92,0,0,1,38.53,84.48Zm.75,8.08H37.76V85.88h1.51Z"/><path class="cls-1" d="M45.36,83.9a1.37,1.37,0,0,0-.7-.18q-1.1,0-1.1,1.25v.91h1.55v1.19H43.57v5.49H42.06V87.06H40.91V85.88h1.14V84.8a2.1,2.1,0,0,1,.69-1.67,2.52,2.52,0,0,1,1.73-.61,2.58,2.58,0,0,1,.89.12Z"/><path class="cls-1" d="M47.28,84.48a.91.91,0,0,1-.64-.24.79.79,0,0,1-.26-.61.81.81,0,0,1,.26-.62.9.9,0,0,1,.64-.25.93.93,0,0,1,.65.25.81.81,0,0,1,.27.62.8.8,0,0,1-.27.6A.92.92,0,0,1,47.28,84.48ZM48,92.55H46.52V85.88H48Z"/><path class="cls-1" d="M56,89.63H51.44A1.93,1.93,0,0,0,52,91.05a2.13,2.13,0,0,0,1.5.5,3.3,3.3,0,0,0,2-.64v1.22a4.49,4.49,0,0,1-2.41.57,3,3,0,0,1-2.31-.91,3.64,3.64,0,0,1-.84-2.56,3.56,3.56,0,0,1,.92-2.54,3,3,0,0,1,2.29-1,2.63,2.63,0,0,1,2.12.88A3.66,3.66,0,0,1,56,89Zm-1.46-1.07a2,2,0,0,0-.38-1.27,1.28,1.28,0,0,0-1-.45,1.47,1.47,0,0,0-1.1.48,2.18,2.18,0,0,0-.56,1.25Z"/><path class="cls-1" d="M63.84,92.55H62.33V91.42h0a2.61,2.61,0,0,1-4.22.39,3.72,3.72,0,0,1-.74-2.44,4.05,4.05,0,0,1,.82-2.65,2.68,2.68,0,0,1,2.18-1,2.09,2.09,0,0,1,2,1.08h0V82.67h1.51ZM62.35,89.5v-.87a1.7,1.7,0,0,0-.46-1.21,1.54,1.54,0,0,0-1.18-.5,1.59,1.59,0,0,0-1.33.63,2.81,2.81,0,0,0-.49,1.75,2.53,2.53,0,0,0,.47,1.61,1.51,1.51,0,0,0,1.25.59,1.57,1.57,0,0,0,1.26-.57A2.15,2.15,0,0,0,62.35,89.5Z"/></svg>